<svg xmlns="http://www.w3.org/2000/svg" viewBox="0 0 1000 1020" width="1000" height="1020" style="font-family:Helvetica,Arial,sans-serif;background:#ffffff">
<text x="500" y="24" text-anchor="middle" font-size="16" font-weight="bold" fill="#212529">Ermioni — 10.04.2026 bis 17.04.2026</text>
<text x="90" y="38" font-size="12" font-weight="600" fill="#212529">Wind &amp; Böen  </text>
<line x1="90" y1="190.0" x2="980" y2="190.0" stroke="#dee2e6" stroke-width="0.5"/>
<text x="84" y="194.0" text-anchor="end" font-size="11" fill="#6c757d">-4</text>
<line x1="90" y1="160.0" x2="980" y2="160.0" stroke="#dee2e6" stroke-width="0.5"/>
<text x="84" y="164.0" text-anchor="end" font-size="11" fill="#6c757d">8</text>
<line x1="90" y1="130.0" x2="980" y2="130.0" stroke="#dee2e6" stroke-width="0.5"/>
<text x="84" y="134.0" text-anchor="end" font-size="11" fill="#6c757d">19</text>
<line x1="90" y1="100.0" x2="980" y2="100.0" stroke="#dee2e6" stroke-width="0.5"/>
<text x="84" y="104.0" text-anchor="end" font-size="11" fill="#6c757d">31</text>
<line x1="90" y1="70.0" x2="980" y2="70.0" stroke="#dee2e6" stroke-width="0.5"/>
<text x="84" y="74.0" text-anchor="end" font-size="11" fill="#6c757d">42</text>
<line x1="90" y1="40.0" x2="980" y2="40.0" stroke="#dee2e6" stroke-width="0.5"/>
<text x="84" y="44.0" text-anchor="end" font-size="11" fill="#6c757d">54 km/h</text>
<line x1="90.0" y1="40" x2="90.0" y2="190" stroke="#dee2e6" stroke-width="0.5" stroke-dasharray="4,4"/>
<text x="90.0" y="202" text-anchor="start" font-size="8" fill="#6c757d">10.04.2026</text>
<text x="90.0" y="212" text-anchor="start" font-size="8" fill="#6c757d">00:00</text>
<line x1="201.8" y1="40" x2="201.8" y2="190" stroke="#dee2e6" stroke-width="0.5" stroke-dasharray="4,4"/>
<text x="201.8" y="202" text-anchor="middle" font-size="8" fill="#6c757d">11.04.2026</text>
<text x="201.8" y="212" text-anchor="middle" font-size="8" fill="#6c757d">00:00</text>
<line x1="313.7" y1="40" x2="313.7" y2="190" stroke="#dee2e6" stroke-width="0.5" stroke-dasharray="4,4"/>
<text x="313.7" y="202" text-anchor="middle" font-size="8" fill="#6c757d">12.04.2026</text>
<text x="313.7" y="212" text-anchor="middle" font-size="8" fill="#6c757d">00:00</text>
<line x1="425.5" y1="40" x2="425.5" y2="190" stroke="#dee2e6" stroke-width="0.5" stroke-dasharray="4,4"/>
<text x="425.5" y="202" text-anchor="middle" font-size="8" fill="#6c757d">13.04.2026</text>
<text x="425.5" y="212" text-anchor="middle" font-size="8" fill="#6c757d">00:00</text>
<line x1="537.3" y1="40" x2="537.3" y2="190" stroke="#dee2e6" stroke-width="0.5" stroke-dasharray="4,4"/>
<text x="537.3" y="202" text-anchor="middle" font-size="8" fill="#6c757d">14.04.2026</text>
<text x="537.3" y="212" text-anchor="middle" font-size="8" fill="#6c757d">00:00</text>
<line x1="649.2" y1="40" x2="649.2" y2="190" stroke="#dee2e6" stroke-width="0.5" stroke-dasharray="4,4"/>
<text x="649.2" y="202" text-anchor="middle" font-size="8" fill="#6c757d">15.04.2026</text>
<text x="649.2" y="212" text-anchor="middle" font-size="8" fill="#6c757d">00:00</text>
<line x1="761.0" y1="40" x2="761.0" y2="190" stroke="#dee2e6" stroke-width="0.5" stroke-dasharray="4,4"/>
<text x="761.0" y="202" text-anchor="middle" font-size="8" fill="#6c757d">16.04.2026</text>
<text x="761.0" y="212" text-anchor="middle" font-size="8" fill="#6c757d">00:00</text>
<line x1="872.8" y1="40" x2="872.8" y2="190" stroke="#dee2e6" stroke-width="0.5" stroke-dasharray="4,4"/>
<text x="872.8" y="202" text-anchor="end" font-size="8" fill="#6c757d">17.04.2026</text>
<text x="872.8" y="212" text-anchor="end" font-size="8" fill="#6c757d">00:00</text>
<path d="M90.0,149.7 L94.7,152.0 L99.3,156.4 L104.0,162.8 L108.6,166.2 L113.3,169.6 L118.0,171.9 L122.6,172.9 L127.3,170.3 L131.9,164.1 L136.6,172.2 L141.3,176.0 L145.9,166.2 L150.6,157.7 L155.2,154.1 L159.9,150.7 L164.6,140.3 L169.2,139.8 L173.9,141.4 L178.5,142.2 L183.2,150.9 L187.9,155.1 L192.5,157.2 L197.2,165.2 L201.8,167.2 L206.5,164.1 L211.2,164.1 L215.8,159.7 L220.5,155.9 L225.1,155.9 L229.8,153.8 L234.5,151.7 L239.1,146.6 L243.8,140.1 L248.4,137.8 L253.1,139.1 L257.7,139.1 L262.4,136.2 L267.1,135.9 L271.7,132.6 L276.4,135.2 L281.0,133.1 L285.7,133.9 L290.4,136.5 L295.0,145.0 L299.7,146.0 L304.3,143.7 L309.0,149.4 L313.7,155.9 L318.3,156.6 L323.0,157.9 L327.6,160.3 L332.3,156.4 L337.0,154.1 L341.6,154.1 L346.3,153.0 L350.9,154.1 L355.6,158.2 L360.3,159.5 L364.9,153.8 L369.6,144.5 L374.2,139.1 L378.9,133.4 L383.6,130.5 L388.2,134.9 L392.9,140.3 L397.5,145.0 L402.2,150.2 L406.9,158.7 L411.5,161.8 L416.2,158.7 L420.8,161.6 L425.5,162.8 L430.2,166.2 L434.8,166.5 L439.5,165.7 L444.1,164.7 L448.8,164.7 L453.5,161.6 L458.1,162.8 L462.8,155.1 L467.4,144.0 L472.1,146.0 L476.8,141.9 L481.4,139.1 L486.1,140.1 L490.7,141.1 L495.4,132.6 L500.1,135.9 L504.7,136.5 L509.4,141.4 L514.0,144.5 L518.7,155.9 L523.4,153.5 L528.0,163.9 L532.7,167.8 L537.3,165.7 L542.0,166.2 L546.6,163.4 L551.3,160.3 L556.0,161.8 L560.6,164.1 L565.3,160.0 L569.9,164.7 L574.6,158.7 L579.3,160.3 L583.9,145.5 L588.6,158.7 L593.2,169.1 L597.9,162.3 L602.6,141.1 L607.2,132.1 L611.9,135.2 L616.5,139.8 L621.2,137.5 L625.9,143.4 L630.5,153.5 L635.2,152.0 L639.8,168.0 L644.5,169.3 L649.2,168.0 L653.8,171.4 L658.5,169.6 L663.1,168.3 L667.8,172.7 L672.5,171.6 L677.1,169.8 L681.8,172.4 L686.4,167.5 L691.1,167.8 L695.8,165.9 L700.4,152.5 L705.1,169.8 L709.7,161.3 L714.4,164.9 L719.1,164.1 L723.7,172.4 L728.4,170.3 L733.0,167.2 L737.7,171.9 L742.4,170.6 L747.0,173.2 L751.7,170.1 L756.3,168.8 L761.0,168.8 L765.7,161.0 L770.3,154.1 L775.0,161.8 L779.6,158.4 L784.3,151.2 L789.0,152.0 L793.6,146.0 L798.3,145.0 L802.9,118.6 L807.6,132.8 L812.3,141.6 L816.9,149.9 L821.6,145.3 L826.2,137.5 L830.9,122.5 L835.5,122.2 L840.2,140.9 L844.9,142.7 L849.5,142.9 L854.2,144.5 L858.8,148.9 L863.5,149.1 L868.2,139.6 L872.8,148.6 L877.5,140.3 L882.1,130.3 L886.8,139.1 L891.5,150.4 L896.1,134.9 L900.8,115.3 L905.4,122.5 L910.1,134.4 L914.8,137.2 L919.4,127.4 L924.1,127.2 L928.7,119.9 L933.4,112.9 L938.1,107.5 L942.7,110.1 L947.4,116.3 L952.0,129.7 L956.7,141.4 L961.4,149.4 L966.0,152.0 L970.7,145.8 L975.3,150.4 L980.0,153.5 L980.0,190.0 L90.0,190.0 Z" fill="#198754" opacity="0.15" stroke="none"/><path d="M90.0,149.7 L94.7,152.0 L99.3,156.4 L104.0,162.8 L108.6,166.2 L113.3,169.6 L118.0,171.9 L122.6,172.9 L127.3,170.3 L131.9,164.1 L136.6,172.2 L141.3,176.0 L145.9,166.2 L150.6,157.7 L155.2,154.1 L159.9,150.7 L164.6,140.3 L169.2,139.8 L173.9,141.4 L178.5,142.2 L183.2,150.9 L187.9,155.1 L192.5,157.2 L197.2,165.2 L201.8,167.2 L206.5,164.1 L211.2,164.1 L215.8,159.7 L220.5,155.9 L225.1,155.9 L229.8,153.8 L234.5,151.7 L239.1,146.6 L243.8,140.1 L248.4,137.8 L253.1,139.1 L257.7,139.1 L262.4,136.2 L267.1,135.9 L271.7,132.6 L276.4,135.2 L281.0,133.1 L285.7,133.9 L290.4,136.5 L295.0,145.0 L299.7,146.0 L304.3,143.7 L309.0,149.4 L313.7,155.9 L318.3,156.6 L323.0,157.9 L327.6,160.3 L332.3,156.4 L337.0,154.1 L341.6,154.1 L346.3,153.0 L350.9,154.1 L355.6,158.2 L360.3,159.5 L364.9,153.8 L369.6,144.5 L374.2,139.1 L378.9,133.4 L383.6,130.5 L388.2,134.9 L392.9,140.3 L397.5,145.0 L402.2,150.2 L406.9,158.7 L411.5,161.8 L416.2,158.7 L420.8,161.6 L425.5,162.8 L430.2,166.2 L434.8,166.5 L439.5,165.7 L444.1,164.7 L448.8,164.7 L453.5,161.6 L458.1,162.8 L462.8,155.1 L467.4,144.0 L472.1,146.0 L476.8,141.9 L481.4,139.1 L486.1,140.1 L490.7,141.1 L495.4,132.6 L500.1,135.9 L504.7,136.5 L509.4,141.4 L514.0,144.5 L518.7,155.9 L523.4,153.5 L528.0,163.9 L532.7,167.8 L537.3,165.7 L542.0,166.2 L546.6,163.4 L551.3,160.3 L556.0,161.8 L560.6,164.1 L565.3,160.0 L569.9,164.7 L574.6,158.7 L579.3,160.3 L583.9,145.5 L588.6,158.7 L593.2,169.1 L597.9,162.3 L602.6,141.1 L607.2,132.1 L611.9,135.2 L616.5,139.8 L621.2,137.5 L625.9,143.4 L630.5,153.5 L635.2,152.0 L639.8,168.0 L644.5,169.3 L649.2,168.0 L653.8,171.4 L658.5,169.6 L663.1,168.3 L667.8,172.7 L672.5,171.6 L677.1,169.8 L681.8,172.4 L686.4,167.5 L691.1,167.8 L695.8,165.9 L700.4,152.5 L705.1,169.8 L709.7,161.3 L714.4,164.9 L719.1,164.1 L723.7,172.4 L728.4,170.3 L733.0,167.2 L737.7,171.9 L742.4,170.6 L747.0,173.2 L751.7,170.1 L756.3,168.8 L761.0,168.8 L765.7,161.0 L770.3,154.1 L775.0,161.8 L779.6,158.4 L784.3,151.2 L789.0,152.0 L793.6,146.0 L798.3,145.0 L802.9,118.6 L807.6,132.8 L812.3,141.6 L816.9,149.9 L821.6,145.3 L826.2,137.5 L830.9,122.5 L835.5,122.2 L840.2,140.9 L844.9,142.7 L849.5,142.9 L854.2,144.5 L858.8,148.9 L863.5,149.1 L868.2,139.6 L872.8,148.6 L877.5,140.3 L882.1,130.3 L886.8,139.1 L891.5,150.4 L896.1,134.9 L900.8,115.3 L905.4,122.5 L910.1,134.4 L914.8,137.2 L919.4,127.4 L924.1,127.2 L928.7,119.9 L933.4,112.9 L938.1,107.5 L942.7,110.1 L947.4,116.3 L952.0,129.7 L956.7,141.4 L961.4,149.4 L966.0,152.0 L970.7,145.8 L975.3,150.4 L980.0,153.5" fill="none" stroke="#198754" stroke-width="1.5"/><path d="M90.0,128.4 L94.7,131.3 L99.3,134.9 L104.0,141.4 L108.6,152.8 L113.3,158.2 L118.0,164.7 L122.6,167.5 L127.3,162.8 L131.9,151.7 L136.6,147.1 L141.3,150.7 L145.9,138.8 L150.6,126.6 L155.2,120.2 L159.9,115.5 L164.6,104.1 L169.2,103.4 L173.9,105.2 L178.5,110.9 L183.2,116.3 L187.9,133.1 L192.5,136.7 L197.2,142.4 L201.8,154.6 L206.5,154.6 L211.2,153.5 L215.8,144.2 L220.5,139.6 L225.1,139.6 L229.8,135.9 L234.5,133.1 L239.1,125.6 L243.8,117.3 L248.4,106.2 L253.1,106.2 L257.7,103.4 L262.4,96.9 L267.1,94.8 L271.7,94.8 L276.4,92.2 L281.0,94.8 L285.7,94.1 L290.4,97.7 L295.0,106.2 L299.7,122.8 L304.3,120.2 L309.0,120.2 L313.7,127.4 L318.3,139.6 L323.0,140.6 L327.6,141.4 L332.3,140.6 L337.0,136.7 L341.6,134.9 L346.3,133.1 L350.9,134.1 L355.6,128.4 L360.3,134.1 L364.9,124.8 L369.6,108.8 L374.2,100.5 L378.9,92.2 L383.6,89.4 L388.2,87.6 L392.9,95.9 L397.5,104.1 L402.2,114.5 L406.9,126.6 L411.5,145.3 L416.2,144.2 L420.8,144.2 L425.5,148.9 L430.2,151.7 L434.8,157.4 L439.5,155.3 L444.1,153.5 L448.8,152.8 L453.5,148.1 L458.1,148.1 L462.8,142.4 L467.4,122.0 L472.1,112.7 L476.8,105.2 L481.4,98.7 L486.1,98.7 L490.7,98.7 L495.4,94.1 L500.1,89.4 L504.7,94.1 L509.4,97.7 L514.0,108.8 L518.7,118.1 L523.4,139.6 L528.0,135.9 L532.7,152.8 L537.3,157.4 L542.0,155.3 L546.6,152.8 L551.3,150.7 L556.0,143.4 L560.6,148.9 L565.3,144.2 L569.9,143.4 L574.6,144.2 L579.3,144.2 L583.9,117.3 L588.6,113.4 L593.2,127.4 L597.9,123.8 L602.6,104.1 L607.2,94.1 L611.9,95.9 L616.5,93.0 L621.2,106.2 L625.9,105.2 L630.5,117.3 L635.2,115.5 L639.8,133.1 L644.5,157.4 L649.2,161.0 L653.8,163.9 L658.5,164.7 L663.1,153.5 L667.8,164.7 L672.5,164.7 L677.1,161.0 L681.8,162.1 L686.4,161.0 L691.1,144.2 L695.8,144.2 L700.4,122.0 L705.1,120.9 L709.7,134.9 L714.4,134.9 L719.1,137.8 L723.7,137.8 L728.4,145.3 L733.0,148.1 L737.7,151.7 L742.4,158.2 L747.0,165.7 L751.7,163.9 L756.3,158.2 L761.0,161.0 L765.7,150.7 L770.3,140.6 L775.0,137.8 L779.6,147.1 L784.3,135.9 L789.0,128.4 L793.6,129.5 L798.3,120.9 L802.9,94.1 L807.6,78.3 L812.3,98.7 L816.9,108.8 L821.6,114.5 L826.2,103.4 L830.9,99.5 L835.5,80.9 L840.2,80.1 L844.9,112.7 L849.5,117.3 L854.2,120.2 L858.8,122.8 L863.5,130.3 L868.2,116.3 L872.8,117.3 L877.5,118.1 L882.1,104.1 L886.8,99.5 L891.5,116.3 L896.1,109.8 L900.8,77.2 L905.4,72.6 L910.1,86.6 L914.8,107.0 L919.4,94.8 L924.1,93.0 L928.7,80.1 L933.4,66.9 L938.1,52.9 L942.7,54.0 L947.4,57.6 L952.0,69.7 L956.7,94.1 L961.4,114.5 L966.0,131.3 L970.7,124.8 L975.3,122.0 L980.0,131.3" fill="none" stroke="#fd7e14" stroke-width="1.5"/><rect x="95" y="50" width="14" height="4" fill="#198754"/>
<text x="113" y="54" font-size="10" fill="#212529">Wind</text>
<rect x="152" y="50" width="14" height="4" fill="#fd7e14"/>
<text x="170" y="54" font-size="10" fill="#212529">Böen</text>
<text x="90" y="233" font-size="12" font-weight="600" fill="#212529">Windrichtung  </text>
<line x1="90" y1="385.0" x2="980" y2="385.0" stroke="#dee2e6" stroke-width="0.5"/>
<text x="84" y="389.0" text-anchor="end" font-size="11" fill="#6c757d">0</text>
<line x1="90" y1="355.0" x2="980" y2="355.0" stroke="#dee2e6" stroke-width="0.5"/>
<text x="84" y="359.0" text-anchor="end" font-size="11" fill="#6c757d">72</text>
<line x1="90" y1="325.0" x2="980" y2="325.0" stroke="#dee2e6" stroke-width="0.5"/>
<text x="84" y="329.0" text-anchor="end" font-size="11" fill="#6c757d">144</text>
<line x1="90" y1="295.0" x2="980" y2="295.0" stroke="#dee2e6" stroke-width="0.5"/>
<text x="84" y="299.0" text-anchor="end" font-size="11" fill="#6c757d">216</text>
<line x1="90" y1="265.0" x2="980" y2="265.0" stroke="#dee2e6" stroke-width="0.5"/>
<text x="84" y="269.0" text-anchor="end" font-size="11" fill="#6c757d">288</text>
<line x1="90" y1="235.0" x2="980" y2="235.0" stroke="#dee2e6" stroke-width="0.5"/>
<text x="84" y="239.0" text-anchor="end" font-size="11" fill="#6c757d">360 °</text>
<line x1="90.0" y1="235" x2="90.0" y2="385" stroke="#dee2e6" stroke-width="0.5" stroke-dasharray="4,4"/>
<text x="90.0" y="397" text-anchor="start" font-size="8" fill="#6c757d">10.04.2026</text>
<text x="90.0" y="407" text-anchor="start" font-size="8" fill="#6c757d">00:00</text>
<line x1="201.8" y1="235" x2="201.8" y2="385" stroke="#dee2e6" stroke-width="0.5" stroke-dasharray="4,4"/>
<text x="201.8" y="397" text-anchor="middle" font-size="8" fill="#6c757d">11.04.2026</text>
<text x="201.8" y="407" text-anchor="middle" font-size="8" fill="#6c757d">00:00</text>
<line x1="313.7" y1="235" x2="313.7" y2="385" stroke="#dee2e6" stroke-width="0.5" stroke-dasharray="4,4"/>
<text x="313.7" y="397" text-anchor="middle" font-size="8" fill="#6c757d">12.04.2026</text>
<text x="313.7" y="407" text-anchor="middle" font-size="8" fill="#6c757d">00:00</text>
<line x1="425.5" y1="235" x2="425.5" y2="385" stroke="#dee2e6" stroke-width="0.5" stroke-dasharray="4,4"/>
<text x="425.5" y="397" text-anchor="middle" font-size="8" fill="#6c757d">13.04.2026</text>
<text x="425.5" y="407" text-anchor="middle" font-size="8" fill="#6c757d">00:00</text>
<line x1="537.3" y1="235" x2="537.3" y2="385" stroke="#dee2e6" stroke-width="0.5" stroke-dasharray="4,4"/>
<text x="537.3" y="397" text-anchor="middle" font-size="8" fill="#6c757d">14.04.2026</text>
<text x="537.3" y="407" text-anchor="middle" font-size="8" fill="#6c757d">00:00</text>
<line x1="649.2" y1="235" x2="649.2" y2="385" stroke="#dee2e6" stroke-width="0.5" stroke-dasharray="4,4"/>
<text x="649.2" y="397" text-anchor="middle" font-size="8" fill="#6c757d">15.04.2026</text>
<text x="649.2" y="407" text-anchor="middle" font-size="8" fill="#6c757d">00:00</text>
<line x1="761.0" y1="235" x2="761.0" y2="385" stroke="#dee2e6" stroke-width="0.5" stroke-dasharray="4,4"/>
<text x="761.0" y="397" text-anchor="middle" font-size="8" fill="#6c757d">16.04.2026</text>
<text x="761.0" y="407" text-anchor="middle" font-size="8" fill="#6c757d">00:00</text>
<line x1="872.8" y1="235" x2="872.8" y2="385" stroke="#dee2e6" stroke-width="0.5" stroke-dasharray="4,4"/>
<text x="872.8" y="397" text-anchor="end" font-size="8" fill="#6c757d">17.04.2026</text>
<text x="872.8" y="407" text-anchor="end" font-size="8" fill="#6c757d">00:00</text>
<circle cx="90.0" cy="334.2" r="1.5" fill="#fd7e14"/><circle cx="94.7" cy="337.9" r="1.5" fill="#fd7e14"/><circle cx="99.3" cy="341.2" r="1.5" fill="#fd7e14"/><circle cx="104.0" cy="348.3" r="1.5" fill="#fd7e14"/><circle cx="108.6" cy="350.0" r="1.5" fill="#fd7e14"/><circle cx="113.3" cy="352.9" r="1.5" fill="#fd7e14"/><circle cx="118.0" cy="357.9" r="1.5" fill="#fd7e14"/><circle cx="122.6" cy="361.7" r="1.5" fill="#fd7e14"/><circle cx="127.3" cy="367.9" r="1.5" fill="#fd7e14"/><circle cx="131.9" cy="236.2" r="1.5" fill="#fd7e14"/><circle cx="136.6" cy="383.3" r="1.5" fill="#fd7e14"/><circle cx="141.3" cy="300.4" r="1.5" fill="#fd7e14"/><circle cx="145.9" cy="304.2" r="1.5" fill="#fd7e14"/><circle cx="150.6" cy="310.0" r="1.5" fill="#fd7e14"/><circle cx="155.2" cy="316.7" r="1.5" fill="#fd7e14"/><circle cx="159.9" cy="321.7" r="1.5" fill="#fd7e14"/><circle cx="164.6" cy="322.1" r="1.5" fill="#fd7e14"/><circle cx="169.2" cy="323.8" r="1.5" fill="#fd7e14"/><circle cx="173.9" cy="327.5" r="1.5" fill="#fd7e14"/><circle cx="178.5" cy="336.2" r="1.5" fill="#fd7e14"/><circle cx="183.2" cy="340.8" r="1.5" fill="#fd7e14"/><circle cx="187.9" cy="342.9" r="1.5" fill="#fd7e14"/><circle cx="192.5" cy="350.8" r="1.5" fill="#fd7e14"/><circle cx="197.2" cy="354.6" r="1.5" fill="#fd7e14"/><circle cx="201.8" cy="352.9" r="1.5" fill="#fd7e14"/><circle cx="206.5" cy="348.8" r="1.5" fill="#fd7e14"/><circle cx="211.2" cy="354.6" r="1.5" fill="#fd7e14"/><circle cx="215.8" cy="357.9" r="1.5" fill="#fd7e14"/><circle cx="220.5" cy="357.1" r="1.5" fill="#fd7e14"/><circle cx="225.1" cy="356.2" r="1.5" fill="#fd7e14"/><circle cx="229.8" cy="354.6" r="1.5" fill="#fd7e14"/><circle cx="234.5" cy="352.1" r="1.5" fill="#fd7e14"/><circle cx="239.1" cy="347.5" r="1.5" fill="#fd7e14"/><circle cx="243.8" cy="342.1" r="1.5" fill="#fd7e14"/><circle cx="248.4" cy="336.7" r="1.5" fill="#fd7e14"/><circle cx="253.1" cy="335.0" r="1.5" fill="#fd7e14"/><circle cx="257.7" cy="332.5" r="1.5" fill="#fd7e14"/><circle cx="262.4" cy="334.2" r="1.5" fill="#fd7e14"/><circle cx="267.1" cy="338.3" r="1.5" fill="#fd7e14"/><circle cx="271.7" cy="332.5" r="1.5" fill="#fd7e14"/><circle cx="276.4" cy="334.2" r="1.5" fill="#fd7e14"/><circle cx="281.0" cy="336.7" r="1.5" fill="#fd7e14"/><circle cx="285.7" cy="341.2" r="1.5" fill="#fd7e14"/><circle cx="290.4" cy="342.9" r="1.5" fill="#fd7e14"/><circle cx="295.0" cy="345.8" r="1.5" fill="#fd7e14"/><circle cx="299.7" cy="345.0" r="1.5" fill="#fd7e14"/><circle cx="304.3" cy="345.8" r="1.5" fill="#fd7e14"/><circle cx="309.0" cy="347.9" r="1.5" fill="#fd7e14"/><circle cx="313.7" cy="352.1" r="1.5" fill="#fd7e14"/><circle cx="318.3" cy="356.2" r="1.5" fill="#fd7e14"/><circle cx="323.0" cy="357.1" r="1.5" fill="#fd7e14"/><circle cx="327.6" cy="362.1" r="1.5" fill="#fd7e14"/><circle cx="332.3" cy="359.6" r="1.5" fill="#fd7e14"/><circle cx="337.0" cy="357.9" r="1.5" fill="#fd7e14"/><circle cx="341.6" cy="359.6" r="1.5" fill="#fd7e14"/><circle cx="346.3" cy="362.5" r="1.5" fill="#fd7e14"/><circle cx="350.9" cy="366.7" r="1.5" fill="#fd7e14"/><circle cx="355.6" cy="367.9" r="1.5" fill="#fd7e14"/><circle cx="360.3" cy="351.2" r="1.5" fill="#fd7e14"/><circle cx="364.9" cy="333.8" r="1.5" fill="#fd7e14"/><circle cx="369.6" cy="327.1" r="1.5" fill="#fd7e14"/><circle cx="374.2" cy="328.3" r="1.5" fill="#fd7e14"/><circle cx="378.9" cy="332.5" r="1.5" fill="#fd7e14"/><circle cx="383.6" cy="330.0" r="1.5" fill="#fd7e14"/><circle cx="388.2" cy="332.9" r="1.5" fill="#fd7e14"/><circle cx="392.9" cy="332.5" r="1.5" fill="#fd7e14"/><circle cx="397.5" cy="334.6" r="1.5" fill="#fd7e14"/><circle cx="402.2" cy="336.7" r="1.5" fill="#fd7e14"/><circle cx="406.9" cy="337.1" r="1.5" fill="#fd7e14"/><circle cx="411.5" cy="339.2" r="1.5" fill="#fd7e14"/><circle cx="416.2" cy="345.8" r="1.5" fill="#fd7e14"/><circle cx="420.8" cy="347.5" r="1.5" fill="#fd7e14"/><circle cx="425.5" cy="346.2" r="1.5" fill="#fd7e14"/><circle cx="430.2" cy="348.3" r="1.5" fill="#fd7e14"/><circle cx="434.8" cy="350.8" r="1.5" fill="#fd7e14"/><circle cx="439.5" cy="353.8" r="1.5" fill="#fd7e14"/><circle cx="444.1" cy="353.3" r="1.5" fill="#fd7e14"/><circle cx="448.8" cy="349.2" r="1.5" fill="#fd7e14"/><circle cx="453.5" cy="347.1" r="1.5" fill="#fd7e14"/><circle cx="458.1" cy="345.0" r="1.5" fill="#fd7e14"/><circle cx="462.8" cy="343.3" r="1.5" fill="#fd7e14"/><circle cx="467.4" cy="342.9" r="1.5" fill="#fd7e14"/><circle cx="472.1" cy="336.7" r="1.5" fill="#fd7e14"/><circle cx="476.8" cy="335.4" r="1.5" fill="#fd7e14"/><circle cx="481.4" cy="334.6" r="1.5" fill="#fd7e14"/><circle cx="486.1" cy="333.3" r="1.5" fill="#fd7e14"/><circle cx="490.7" cy="332.5" r="1.5" fill="#fd7e14"/><circle cx="495.4" cy="335.0" r="1.5" fill="#fd7e14"/><circle cx="500.1" cy="334.6" r="1.5" fill="#fd7e14"/><circle cx="504.7" cy="335.8" r="1.5" fill="#fd7e14"/><circle cx="509.4" cy="337.5" r="1.5" fill="#fd7e14"/><circle cx="514.0" cy="341.2" r="1.5" fill="#fd7e14"/><circle cx="518.7" cy="342.5" r="1.5" fill="#fd7e14"/><circle cx="523.4" cy="345.0" r="1.5" fill="#fd7e14"/><circle cx="528.0" cy="348.8" r="1.5" fill="#fd7e14"/><circle cx="532.7" cy="358.3" r="1.5" fill="#fd7e14"/><circle cx="537.3" cy="364.2" r="1.5" fill="#fd7e14"/><circle cx="542.0" cy="366.7" r="1.5" fill="#fd7e14"/><circle cx="546.6" cy="362.9" r="1.5" fill="#fd7e14"/><circle cx="551.3" cy="362.1" r="1.5" fill="#fd7e14"/><circle cx="556.0" cy="359.2" r="1.5" fill="#fd7e14"/><circle cx="560.6" cy="356.2" r="1.5" fill="#fd7e14"/><circle cx="565.3" cy="350.4" r="1.5" fill="#fd7e14"/><circle cx="569.9" cy="355.8" r="1.5" fill="#fd7e14"/><circle cx="574.6" cy="352.5" r="1.5" fill="#fd7e14"/><circle cx="579.3" cy="357.5" r="1.5" fill="#fd7e14"/><circle cx="583.9" cy="345.0" r="1.5" fill="#fd7e14"/><circle cx="588.6" cy="345.0" r="1.5" fill="#fd7e14"/><circle cx="593.2" cy="309.2" r="1.5" fill="#fd7e14"/><circle cx="597.9" cy="312.1" r="1.5" fill="#fd7e14"/><circle cx="602.6" cy="335.0" r="1.5" fill="#fd7e14"/><circle cx="607.2" cy="341.7" r="1.5" fill="#fd7e14"/><circle cx="611.9" cy="343.3" r="1.5" fill="#fd7e14"/><circle cx="616.5" cy="344.6" r="1.5" fill="#fd7e14"/><circle cx="621.2" cy="345.4" r="1.5" fill="#fd7e14"/><circle cx="625.9" cy="355.0" r="1.5" fill="#fd7e14"/><circle cx="630.5" cy="355.4" r="1.5" fill="#fd7e14"/><circle cx="635.2" cy="366.2" r="1.5" fill="#fd7e14"/><circle cx="639.8" cy="254.6" r="1.5" fill="#fd7e14"/><circle cx="644.5" cy="261.2" r="1.5" fill="#fd7e14"/><circle cx="649.2" cy="258.3" r="1.5" fill="#fd7e14"/><circle cx="653.8" cy="256.7" r="1.5" fill="#fd7e14"/><circle cx="658.5" cy="249.2" r="1.5" fill="#fd7e14"/><circle cx="663.1" cy="247.5" r="1.5" fill="#fd7e14"/><circle cx="667.8" cy="235.0" r="1.5" fill="#fd7e14"/><circle cx="672.5" cy="382.1" r="1.5" fill="#fd7e14"/><circle cx="677.1" cy="235.0" r="1.5" fill="#fd7e14"/><circle cx="681.8" cy="380.4" r="1.5" fill="#fd7e14"/><circle cx="686.4" cy="242.5" r="1.5" fill="#fd7e14"/><circle cx="691.1" cy="242.5" r="1.5" fill="#fd7e14"/><circle cx="695.8" cy="249.6" r="1.5" fill="#fd7e14"/><circle cx="700.4" cy="250.8" r="1.5" fill="#fd7e14"/><circle cx="705.1" cy="252.1" r="1.5" fill="#fd7e14"/><circle cx="709.7" cy="239.2" r="1.5" fill="#fd7e14"/><circle cx="714.4" cy="250.4" r="1.5" fill="#fd7e14"/><circle cx="719.1" cy="367.9" r="1.5" fill="#fd7e14"/><circle cx="723.7" cy="336.2" r="1.5" fill="#fd7e14"/><circle cx="728.4" cy="313.8" r="1.5" fill="#fd7e14"/><circle cx="733.0" cy="352.1" r="1.5" fill="#fd7e14"/><circle cx="737.7" cy="302.9" r="1.5" fill="#fd7e14"/><circle cx="742.4" cy="287.1" r="1.5" fill="#fd7e14"/><circle cx="747.0" cy="344.2" r="1.5" fill="#fd7e14"/><circle cx="751.7" cy="363.8" r="1.5" fill="#fd7e14"/><circle cx="756.3" cy="382.1" r="1.5" fill="#fd7e14"/><circle cx="761.0" cy="240.0" r="1.5" fill="#fd7e14"/><circle cx="765.7" cy="249.6" r="1.5" fill="#fd7e14"/><circle cx="770.3" cy="244.2" r="1.5" fill="#fd7e14"/><circle cx="775.0" cy="240.8" r="1.5" fill="#fd7e14"/><circle cx="779.6" cy="245.8" r="1.5" fill="#fd7e14"/><circle cx="784.3" cy="239.6" r="1.5" fill="#fd7e14"/><circle cx="789.0" cy="240.4" r="1.5" fill="#fd7e14"/><circle cx="793.6" cy="264.2" r="1.5" fill="#fd7e14"/><circle cx="798.3" cy="265.4" r="1.5" fill="#fd7e14"/><circle cx="802.9" cy="262.5" r="1.5" fill="#fd7e14"/><circle cx="807.6" cy="264.6" r="1.5" fill="#fd7e14"/><circle cx="812.3" cy="264.6" r="1.5" fill="#fd7e14"/><circle cx="816.9" cy="255.0" r="1.5" fill="#fd7e14"/><circle cx="821.6" cy="245.4" r="1.5" fill="#fd7e14"/><circle cx="826.2" cy="242.5" r="1.5" fill="#fd7e14"/><circle cx="830.9" cy="382.1" r="1.5" fill="#fd7e14"/><circle cx="835.5" cy="379.6" r="1.5" fill="#fd7e14"/><circle cx="840.2" cy="237.5" r="1.5" fill="#fd7e14"/><circle cx="844.9" cy="242.9" r="1.5" fill="#fd7e14"/><circle cx="849.5" cy="251.2" r="1.5" fill="#fd7e14"/><circle cx="854.2" cy="254.6" r="1.5" fill="#fd7e14"/><circle cx="858.8" cy="256.7" r="1.5" fill="#fd7e14"/><circle cx="863.5" cy="260.4" r="1.5" fill="#fd7e14"/><circle cx="868.2" cy="259.2" r="1.5" fill="#fd7e14"/><circle cx="872.8" cy="257.1" r="1.5" fill="#fd7e14"/><circle cx="877.5" cy="258.8" r="1.5" fill="#fd7e14"/><circle cx="882.1" cy="256.7" r="1.5" fill="#fd7e14"/><circle cx="886.8" cy="261.2" r="1.5" fill="#fd7e14"/><circle cx="891.5" cy="251.2" r="1.5" fill="#fd7e14"/><circle cx="896.1" cy="242.9" r="1.5" fill="#fd7e14"/><circle cx="900.8" cy="243.3" r="1.5" fill="#fd7e14"/><circle cx="905.4" cy="251.7" r="1.5" fill="#fd7e14"/><circle cx="910.1" cy="255.4" r="1.5" fill="#fd7e14"/><circle cx="914.8" cy="248.8" r="1.5" fill="#fd7e14"/><circle cx="919.4" cy="244.6" r="1.5" fill="#fd7e14"/><circle cx="924.1" cy="247.5" r="1.5" fill="#fd7e14"/><circle cx="928.7" cy="243.3" r="1.5" fill="#fd7e14"/><circle cx="933.4" cy="238.3" r="1.5" fill="#fd7e14"/><circle cx="938.1" cy="237.5" r="1.5" fill="#fd7e14"/><circle cx="942.7" cy="238.3" r="1.5" fill="#fd7e14"/><circle cx="947.4" cy="240.0" r="1.5" fill="#fd7e14"/><circle cx="952.0" cy="245.4" r="1.5" fill="#fd7e14"/><circle cx="956.7" cy="250.4" r="1.5" fill="#fd7e14"/><circle cx="961.4" cy="250.8" r="1.5" fill="#fd7e14"/><circle cx="966.0" cy="247.1" r="1.5" fill="#fd7e14"/><circle cx="970.7" cy="248.8" r="1.5" fill="#fd7e14"/><circle cx="975.3" cy="252.9" r="1.5" fill="#fd7e14"/><circle cx="980.0" cy="258.8" r="1.5" fill="#fd7e14"/><circle cx="98" cy="247" r="3" fill="#fd7e14"/>
<text x="105" y="249" font-size="10" fill="#212529">Windrichtung</text>
<text x="90" y="428" font-size="12" font-weight="600" fill="#212529">Lufttemperatur  </text>
<line x1="90" y1="580.0" x2="980" y2="580.0" stroke="#dee2e6" stroke-width="0.5"/>
<text x="84" y="584.0" text-anchor="end" font-size="11" fill="#6c757d">11</text>
<line x1="90" y1="550.0" x2="980" y2="550.0" stroke="#dee2e6" stroke-width="0.5"/>
<text x="84" y="554.0" text-anchor="end" font-size="11" fill="#6c757d">13</text>
<line x1="90" y1="520.0" x2="980" y2="520.0" stroke="#dee2e6" stroke-width="0.5"/>
<text x="84" y="524.0" text-anchor="end" font-size="11" fill="#6c757d">16</text>
<line x1="90" y1="490.0" x2="980" y2="490.0" stroke="#dee2e6" stroke-width="0.5"/>
<text x="84" y="494.0" text-anchor="end" font-size="11" fill="#6c757d">18</text>
<line x1="90" y1="460.0" x2="980" y2="460.0" stroke="#dee2e6" stroke-width="0.5"/>
<text x="84" y="464.0" text-anchor="end" font-size="11" fill="#6c757d">21</text>
<line x1="90" y1="430.0" x2="980" y2="430.0" stroke="#dee2e6" stroke-width="0.5"/>
<text x="84" y="434.0" text-anchor="end" font-size="11" fill="#6c757d">23 °C</text>
<line x1="90.0" y1="430" x2="90.0" y2="580" stroke="#dee2e6" stroke-width="0.5" stroke-dasharray="4,4"/>
<text x="90.0" y="592" text-anchor="start" font-size="8" fill="#6c757d">10.04.2026</text>
<text x="90.0" y="602" text-anchor="start" font-size="8" fill="#6c757d">00:00</text>
<line x1="201.8" y1="430" x2="201.8" y2="580" stroke="#dee2e6" stroke-width="0.5" stroke-dasharray="4,4"/>
<text x="201.8" y="592" text-anchor="middle" font-size="8" fill="#6c757d">11.04.2026</text>
<text x="201.8" y="602" text-anchor="middle" font-size="8" fill="#6c757d">00:00</text>
<line x1="313.7" y1="430" x2="313.7" y2="580" stroke="#dee2e6" stroke-width="0.5" stroke-dasharray="4,4"/>
<text x="313.7" y="592" text-anchor="middle" font-size="8" fill="#6c757d">12.04.2026</text>
<text x="313.7" y="602" text-anchor="middle" font-size="8" fill="#6c757d">00:00</text>
<line x1="425.5" y1="430" x2="425.5" y2="580" stroke="#dee2e6" stroke-width="0.5" stroke-dasharray="4,4"/>
<text x="425.5" y="592" text-anchor="middle" font-size="8" fill="#6c757d">13.04.2026</text>
<text x="425.5" y="602" text-anchor="middle" font-size="8" fill="#6c757d">00:00</text>
<line x1="537.3" y1="430" x2="537.3" y2="580" stroke="#dee2e6" stroke-width="0.5" stroke-dasharray="4,4"/>
<text x="537.3" y="592" text-anchor="middle" font-size="8" fill="#6c757d">14.04.2026</text>
<text x="537.3" y="602" text-anchor="middle" font-size="8" fill="#6c757d">00:00</text>
<line x1="649.2" y1="430" x2="649.2" y2="580" stroke="#dee2e6" stroke-width="0.5" stroke-dasharray="4,4"/>
<text x="649.2" y="592" text-anchor="middle" font-size="8" fill="#6c757d">15.04.2026</text>
<text x="649.2" y="602" text-anchor="middle" font-size="8" fill="#6c757d">00:00</text>
<line x1="761.0" y1="430" x2="761.0" y2="580" stroke="#dee2e6" stroke-width="0.5" stroke-dasharray="4,4"/>
<text x="761.0" y="592" text-anchor="middle" font-size="8" fill="#6c757d">16.04.2026</text>
<text x="761.0" y="602" text-anchor="middle" font-size="8" fill="#6c757d">00:00</text>
<line x1="872.8" y1="430" x2="872.8" y2="580" stroke="#dee2e6" stroke-width="0.5" stroke-dasharray="4,4"/>
<text x="872.8" y="592" text-anchor="end" font-size="8" fill="#6c757d">17.04.2026</text>
<text x="872.8" y="602" text-anchor="end" font-size="8" fill="#6c757d">00:00</text>
<path d="M90.0,533.8 L94.7,537.5 L99.3,541.2 L104.0,550.0 L108.6,552.5 L113.3,556.2 L118.0,557.5 L122.6,560.0 L127.3,545.0 L131.9,526.2 L136.6,511.2 L141.3,503.8 L145.9,497.5 L150.6,498.8 L155.2,500.0 L159.9,490.0 L164.6,495.0 L169.2,497.5 L173.9,501.2 L178.5,506.2 L183.2,517.5 L187.9,518.8 L192.5,522.5 L197.2,528.8 L201.8,532.5 L206.5,533.8 L211.2,538.8 L215.8,541.2 L220.5,540.0 L225.1,542.5 L229.8,541.2 L234.5,538.8 L239.1,531.2 L243.8,521.2 L248.4,516.2 L253.1,512.5 L257.7,506.2 L262.4,500.0 L267.1,497.5 L271.7,498.8 L276.4,502.5 L281.0,503.8 L285.7,510.0 L290.4,516.2 L295.0,523.8 L299.7,520.0 L304.3,518.8 L309.0,521.2 L313.7,525.0 L318.3,527.5 L323.0,531.2 L327.6,531.2 L332.3,530.0 L337.0,530.0 L341.6,531.2 L346.3,535.0 L350.9,535.0 L355.6,522.5 L360.3,511.2 L364.9,501.2 L369.6,502.5 L374.2,503.8 L378.9,500.0 L383.6,500.0 L388.2,502.5 L392.9,503.8 L397.5,507.5 L402.2,513.8 L406.9,525.0 L411.5,523.8 L416.2,525.0 L420.8,527.5 L425.5,531.2 L430.2,536.2 L434.8,538.8 L439.5,545.0 L444.1,542.5 L448.8,543.8 L453.5,543.8 L458.1,542.5 L462.8,535.0 L467.4,521.2 L472.1,513.8 L476.8,507.5 L481.4,502.5 L486.1,498.8 L490.7,496.2 L495.4,500.0 L500.1,498.8 L504.7,502.5 L509.4,508.8 L514.0,516.2 L518.7,522.5 L523.4,525.0 L528.0,528.8 L532.7,536.2 L537.3,543.8 L542.0,548.8 L546.6,550.0 L551.3,550.0 L556.0,553.8 L560.6,557.5 L565.3,551.2 L569.9,553.8 L574.6,537.5 L579.3,526.2 L583.9,515.0 L588.6,500.0 L593.2,491.2 L597.9,501.2 L602.6,486.2 L607.2,491.2 L611.9,488.8 L616.5,488.8 L621.2,492.5 L625.9,503.8 L630.5,511.2 L635.2,520.0 L639.8,525.0 L644.5,541.2 L649.2,540.0 L653.8,547.5 L658.5,542.5 L663.1,550.0 L667.8,558.8 L672.5,550.0 L677.1,552.5 L681.8,556.2 L686.4,542.5 L691.1,525.0 L695.8,505.0 L700.4,488.8 L705.1,482.5 L709.7,481.2 L714.4,472.5 L719.1,465.0 L723.7,465.0 L728.4,476.2 L733.0,482.5 L737.7,490.0 L742.4,501.2 L747.0,502.5 L751.7,510.0 L756.3,515.0 L761.0,520.0 L765.7,526.2 L770.3,526.2 L775.0,522.5 L779.6,523.8 L784.3,527.5 L789.0,530.0 L793.6,531.2 L798.3,526.2 L802.9,515.0 L807.6,506.2 L812.3,490.0 L816.9,471.2 L821.6,460.0 L826.2,458.8 L830.9,461.2 L835.5,467.5 L840.2,475.0 L844.9,476.2 L849.5,483.8 L854.2,496.2 L858.8,500.0 L863.5,506.2 L868.2,511.2 L872.8,516.2 L877.5,517.5 L882.1,520.0 L886.8,511.2 L891.5,511.2 L896.1,513.8 L900.8,520.0 L905.4,523.8 L910.1,518.8 L914.8,501.2 L919.4,501.2 L924.1,490.0 L928.7,480.0 L933.4,465.0 L938.1,452.5 L942.7,447.5 L947.4,445.0 L952.0,452.5 L956.7,457.5 L961.4,470.0 L966.0,488.8 L970.7,498.8 L975.3,506.2 L980.0,512.5 L980.0,580.0 L90.0,580.0 Z" fill="#dc3545" opacity="0.15" stroke="none"/><path d="M90.0,533.8 L94.7,537.5 L99.3,541.2 L104.0,550.0 L108.6,552.5 L113.3,556.2 L118.0,557.5 L122.6,560.0 L127.3,545.0 L131.9,526.2 L136.6,511.2 L141.3,503.8 L145.9,497.5 L150.6,498.8 L155.2,500.0 L159.9,490.0 L164.6,495.0 L169.2,497.5 L173.9,501.2 L178.5,506.2 L183.2,517.5 L187.9,518.8 L192.5,522.5 L197.2,528.8 L201.8,532.5 L206.5,533.8 L211.2,538.8 L215.8,541.2 L220.5,540.0 L225.1,542.5 L229.8,541.2 L234.5,538.8 L239.1,531.2 L243.8,521.2 L248.4,516.2 L253.1,512.5 L257.7,506.2 L262.4,500.0 L267.1,497.5 L271.7,498.8 L276.4,502.5 L281.0,503.8 L285.7,510.0 L290.4,516.2 L295.0,523.8 L299.7,520.0 L304.3,518.8 L309.0,521.2 L313.7,525.0 L318.3,527.5 L323.0,531.2 L327.6,531.2 L332.3,530.0 L337.0,530.0 L341.6,531.2 L346.3,535.0 L350.9,535.0 L355.6,522.5 L360.3,511.2 L364.9,501.2 L369.6,502.5 L374.2,503.8 L378.9,500.0 L383.6,500.0 L388.2,502.5 L392.9,503.8 L397.5,507.5 L402.2,513.8 L406.9,525.0 L411.5,523.8 L416.2,525.0 L420.8,527.5 L425.5,531.2 L430.2,536.2 L434.8,538.8 L439.5,545.0 L444.1,542.5 L448.8,543.8 L453.5,543.8 L458.1,542.5 L462.8,535.0 L467.4,521.2 L472.1,513.8 L476.8,507.5 L481.4,502.5 L486.1,498.8 L490.7,496.2 L495.4,500.0 L500.1,498.8 L504.7,502.5 L509.4,508.8 L514.0,516.2 L518.7,522.5 L523.4,525.0 L528.0,528.8 L532.7,536.2 L537.3,543.8 L542.0,548.8 L546.6,550.0 L551.3,550.0 L556.0,553.8 L560.6,557.5 L565.3,551.2 L569.9,553.8 L574.6,537.5 L579.3,526.2 L583.9,515.0 L588.6,500.0 L593.2,491.2 L597.9,501.2 L602.6,486.2 L607.2,491.2 L611.9,488.8 L616.5,488.8 L621.2,492.5 L625.9,503.8 L630.5,511.2 L635.2,520.0 L639.8,525.0 L644.5,541.2 L649.2,540.0 L653.8,547.5 L658.5,542.5 L663.1,550.0 L667.8,558.8 L672.5,550.0 L677.1,552.5 L681.8,556.2 L686.4,542.5 L691.1,525.0 L695.8,505.0 L700.4,488.8 L705.1,482.5 L709.7,481.2 L714.4,472.5 L719.1,465.0 L723.7,465.0 L728.4,476.2 L733.0,482.5 L737.7,490.0 L742.4,501.2 L747.0,502.5 L751.7,510.0 L756.3,515.0 L761.0,520.0 L765.7,526.2 L770.3,526.2 L775.0,522.5 L779.6,523.8 L784.3,527.5 L789.0,530.0 L793.6,531.2 L798.3,526.2 L802.9,515.0 L807.6,506.2 L812.3,490.0 L816.9,471.2 L821.6,460.0 L826.2,458.8 L830.9,461.2 L835.5,467.5 L840.2,475.0 L844.9,476.2 L849.5,483.8 L854.2,496.2 L858.8,500.0 L863.5,506.2 L868.2,511.2 L872.8,516.2 L877.5,517.5 L882.1,520.0 L886.8,511.2 L891.5,511.2 L896.1,513.8 L900.8,520.0 L905.4,523.8 L910.1,518.8 L914.8,501.2 L919.4,501.2 L924.1,490.0 L928.7,480.0 L933.4,465.0 L938.1,452.5 L942.7,447.5 L947.4,445.0 L952.0,452.5 L956.7,457.5 L961.4,470.0 L966.0,488.8 L970.7,498.8 L975.3,506.2 L980.0,512.5" fill="none" stroke="#dc3545" stroke-width="1.5"/><rect x="95" y="440" width="14" height="4" fill="#dc3545"/>
<text x="113" y="444" font-size="10" fill="#212529">Lufttemperatur</text>
<text x="90" y="623" font-size="12" font-weight="600" fill="#212529">Wellenhöhe  </text>
<line x1="90" y1="775.0" x2="980" y2="775.0" stroke="#dee2e6" stroke-width="0.5"/>
<text x="84" y="779.0" text-anchor="end" font-size="11" fill="#6c757d">0.00</text>
<line x1="90" y1="745.0" x2="980" y2="745.0" stroke="#dee2e6" stroke-width="0.5"/>
<text x="84" y="749.0" text-anchor="end" font-size="11" fill="#6c757d">0.20</text>
<line x1="90" y1="715.0" x2="980" y2="715.0" stroke="#dee2e6" stroke-width="0.5"/>
<text x="84" y="719.0" text-anchor="end" font-size="11" fill="#6c757d">0.40</text>
<line x1="90" y1="685.0" x2="980" y2="685.0" stroke="#dee2e6" stroke-width="0.5"/>
<text x="84" y="689.0" text-anchor="end" font-size="11" fill="#6c757d">0.60</text>
<line x1="90" y1="655.0" x2="980" y2="655.0" stroke="#dee2e6" stroke-width="0.5"/>
<text x="84" y="659.0" text-anchor="end" font-size="11" fill="#6c757d">0.80</text>
<line x1="90" y1="625.0" x2="980" y2="625.0" stroke="#dee2e6" stroke-width="0.5"/>
<text x="84" y="629.0" text-anchor="end" font-size="11" fill="#6c757d">1.00 m</text>
<line x1="90.0" y1="625" x2="90.0" y2="775" stroke="#dee2e6" stroke-width="0.5" stroke-dasharray="4,4"/>
<text x="90.0" y="787" text-anchor="start" font-size="8" fill="#6c757d">10.04.2026</text>
<text x="90.0" y="797" text-anchor="start" font-size="8" fill="#6c757d">00:00</text>
<line x1="201.8" y1="625" x2="201.8" y2="775" stroke="#dee2e6" stroke-width="0.5" stroke-dasharray="4,4"/>
<text x="201.8" y="787" text-anchor="middle" font-size="8" fill="#6c757d">11.04.2026</text>
<text x="201.8" y="797" text-anchor="middle" font-size="8" fill="#6c757d">00:00</text>
<line x1="313.7" y1="625" x2="313.7" y2="775" stroke="#dee2e6" stroke-width="0.5" stroke-dasharray="4,4"/>
<text x="313.7" y="787" text-anchor="middle" font-size="8" fill="#6c757d">12.04.2026</text>
<text x="313.7" y="797" text-anchor="middle" font-size="8" fill="#6c757d">00:00</text>
<line x1="425.5" y1="625" x2="425.5" y2="775" stroke="#dee2e6" stroke-width="0.5" stroke-dasharray="4,4"/>
<text x="425.5" y="787" text-anchor="middle" font-size="8" fill="#6c757d">13.04.2026</text>
<text x="425.5" y="797" text-anchor="middle" font-size="8" fill="#6c757d">00:00</text>
<line x1="537.3" y1="625" x2="537.3" y2="775" stroke="#dee2e6" stroke-width="0.5" stroke-dasharray="4,4"/>
<text x="537.3" y="787" text-anchor="middle" font-size="8" fill="#6c757d">14.04.2026</text>
<text x="537.3" y="797" text-anchor="middle" font-size="8" fill="#6c757d">00:00</text>
<line x1="649.2" y1="625" x2="649.2" y2="775" stroke="#dee2e6" stroke-width="0.5" stroke-dasharray="4,4"/>
<text x="649.2" y="787" text-anchor="middle" font-size="8" fill="#6c757d">15.04.2026</text>
<text x="649.2" y="797" text-anchor="middle" font-size="8" fill="#6c757d">00:00</text>
<line x1="761.0" y1="625" x2="761.0" y2="775" stroke="#dee2e6" stroke-width="0.5" stroke-dasharray="4,4"/>
<text x="761.0" y="787" text-anchor="middle" font-size="8" fill="#6c757d">16.04.2026</text>
<text x="761.0" y="797" text-anchor="middle" font-size="8" fill="#6c757d">00:00</text>
<line x1="872.8" y1="625" x2="872.8" y2="775" stroke="#dee2e6" stroke-width="0.5" stroke-dasharray="4,4"/>
<text x="872.8" y="787" text-anchor="end" font-size="8" fill="#6c757d">17.04.2026</text>
<text x="872.8" y="797" text-anchor="end" font-size="8" fill="#6c757d">00:00</text>
<path d="M90.0,721.0 L94.7,727.0 L99.3,730.0 L104.0,736.0 L108.6,739.0 L113.3,742.0 L118.0,745.0 L122.6,748.0 L127.3,751.0 L131.9,754.0 L136.6,754.0 L141.3,757.0 L145.9,757.0 L150.6,757.0 L155.2,757.0 L159.9,757.0 L164.6,757.0 L169.2,760.0 L173.9,760.0 L178.5,760.0 L183.2,760.0 L187.9,760.0 L192.5,757.0 L197.2,757.0 L201.8,754.0 L206.5,754.0 L211.2,754.0 L215.8,754.0 L220.5,754.0 L225.1,754.0 L229.8,754.0 L234.5,751.0 L239.1,751.0 L243.8,748.0 L248.4,745.0 L253.1,745.0 L257.7,742.0 L262.4,739.0 L267.1,736.0 L271.7,733.0 L276.4,733.0 L281.0,736.0 L285.7,736.0 L290.4,736.0 L295.0,736.0 L299.7,736.0 L304.3,736.0 L309.0,739.0 L313.7,739.0 L318.3,742.0 L323.0,742.0 L327.6,745.0 L332.3,748.0 L337.0,748.0 L341.6,751.0 L346.3,751.0 L350.9,748.0 L355.6,748.0 L360.3,748.0 L364.9,745.0 L369.6,745.0 L374.2,745.0 L378.9,748.0 L383.6,748.0 L388.2,751.0 L392.9,751.0 L397.5,754.0 L402.2,757.0 L406.9,757.0 L411.5,760.0 L416.2,760.0 L420.8,763.0 L425.5,763.0 L430.2,763.0 L434.8,763.0 L439.5,763.0 L444.1,760.0 L448.8,757.0 L453.5,754.0 L458.1,751.0 L462.8,745.0 L467.4,742.0 L472.1,739.0 L476.8,733.0 L481.4,730.0 L486.1,727.0 L490.7,724.0 L495.4,721.0 L500.1,721.0 L504.7,721.0 L509.4,721.0 L514.0,721.0 L518.7,718.0 L523.4,718.0 L528.0,718.0 L532.7,715.0 L537.3,715.0 L542.0,712.0 L546.6,712.0 L551.3,709.0 L556.0,709.0 L560.6,706.0 L565.3,706.0 L569.9,706.0 L574.6,703.0 L579.3,703.0 L583.9,703.0 L588.6,703.0 L593.2,703.0 L597.9,703.0 L602.6,703.0 L607.2,703.0 L611.9,697.0 L616.5,694.0 L621.2,688.0 L625.9,685.0 L630.5,679.0 L635.2,676.0 L639.8,676.0 L644.5,673.0 L649.2,673.0 L653.8,676.0 L658.5,679.0 L663.1,682.0 L667.8,679.0 L672.5,679.0 L677.1,676.0 L681.8,679.0 L686.4,685.0 L691.1,688.0 L695.8,691.0 L700.4,694.0 L705.1,697.0 L709.7,700.0 L714.4,700.0 L719.1,703.0 L723.7,703.0 L728.4,700.0 L733.0,700.0 L737.7,697.0 L742.4,697.0 L747.0,694.0 L751.7,694.0 L756.3,691.0 L761.0,691.0 L765.7,697.0 L770.3,700.0 L775.0,706.0 L779.6,712.0 L784.3,715.0 L789.0,721.0 L793.6,715.0 L798.3,712.0 L802.9,706.0 L807.6,706.0 L812.3,706.0 L816.9,706.0 L821.6,706.0 L826.2,703.0 L830.9,703.0 L835.5,694.0 L840.2,685.0 L844.9,676.0 L849.5,682.0 L854.2,685.0 L858.8,691.0 L863.5,691.0 L868.2,688.0 L872.8,688.0 L877.5,685.0 L882.1,685.0 L886.8,682.0 L891.5,679.0 L896.1,679.0 L900.8,676.0 L905.4,676.0 L910.1,679.0 L914.8,679.0 L919.4,679.0 L924.1,679.0 L928.7,679.0 L933.4,679.0 L938.1,682.0 L942.7,682.0 L947.4,682.0 L952.0,685.0 L956.7,685.0 L961.4,691.0 L966.0,697.0 L970.7,703.0 L975.3,703.0 L980.0,703.0 L980.0,775.0 L90.0,775.0 Z" fill="#0dcaf0" opacity="0.15" stroke="none"/><path d="M90.0,721.0 L94.7,727.0 L99.3,730.0 L104.0,736.0 L108.6,739.0 L113.3,742.0 L118.0,745.0 L122.6,748.0 L127.3,751.0 L131.9,754.0 L136.6,754.0 L141.3,757.0 L145.9,757.0 L150.6,757.0 L155.2,757.0 L159.9,757.0 L164.6,757.0 L169.2,760.0 L173.9,760.0 L178.5,760.0 L183.2,760.0 L187.9,760.0 L192.5,757.0 L197.2,757.0 L201.8,754.0 L206.5,754.0 L211.2,754.0 L215.8,754.0 L220.5,754.0 L225.1,754.0 L229.8,754.0 L234.5,751.0 L239.1,751.0 L243.8,748.0 L248.4,745.0 L253.1,745.0 L257.7,742.0 L262.4,739.0 L267.1,736.0 L271.7,733.0 L276.4,733.0 L281.0,736.0 L285.7,736.0 L290.4,736.0 L295.0,736.0 L299.7,736.0 L304.3,736.0 L309.0,739.0 L313.7,739.0 L318.3,742.0 L323.0,742.0 L327.6,745.0 L332.3,748.0 L337.0,748.0 L341.6,751.0 L346.3,751.0 L350.9,748.0 L355.6,748.0 L360.3,748.0 L364.9,745.0 L369.6,745.0 L374.2,745.0 L378.9,748.0 L383.6,748.0 L388.2,751.0 L392.9,751.0 L397.5,754.0 L402.2,757.0 L406.9,757.0 L411.5,760.0 L416.2,760.0 L420.8,763.0 L425.5,763.0 L430.2,763.0 L434.8,763.0 L439.5,763.0 L444.1,760.0 L448.8,757.0 L453.5,754.0 L458.1,751.0 L462.8,745.0 L467.4,742.0 L472.1,739.0 L476.8,733.0 L481.4,730.0 L486.1,727.0 L490.7,724.0 L495.4,721.0 L500.1,721.0 L504.7,721.0 L509.4,721.0 L514.0,721.0 L518.7,718.0 L523.4,718.0 L528.0,718.0 L532.7,715.0 L537.3,715.0 L542.0,712.0 L546.6,712.0 L551.3,709.0 L556.0,709.0 L560.6,706.0 L565.3,706.0 L569.9,706.0 L574.6,703.0 L579.3,703.0 L583.9,703.0 L588.6,703.0 L593.2,703.0 L597.9,703.0 L602.6,703.0 L607.2,703.0 L611.9,697.0 L616.5,694.0 L621.2,688.0 L625.9,685.0 L630.5,679.0 L635.2,676.0 L639.8,676.0 L644.5,673.0 L649.2,673.0 L653.8,676.0 L658.5,679.0 L663.1,682.0 L667.8,679.0 L672.5,679.0 L677.1,676.0 L681.8,679.0 L686.4,685.0 L691.1,688.0 L695.8,691.0 L700.4,694.0 L705.1,697.0 L709.7,700.0 L714.4,700.0 L719.1,703.0 L723.7,703.0 L728.4,700.0 L733.0,700.0 L737.7,697.0 L742.4,697.0 L747.0,694.0 L751.7,694.0 L756.3,691.0 L761.0,691.0 L765.7,697.0 L770.3,700.0 L775.0,706.0 L779.6,712.0 L784.3,715.0 L789.0,721.0 L793.6,715.0 L798.3,712.0 L802.9,706.0 L807.6,706.0 L812.3,706.0 L816.9,706.0 L821.6,706.0 L826.2,703.0 L830.9,703.0 L835.5,694.0 L840.2,685.0 L844.9,676.0 L849.5,682.0 L854.2,685.0 L858.8,691.0 L863.5,691.0 L868.2,688.0 L872.8,688.0 L877.5,685.0 L882.1,685.0 L886.8,682.0 L891.5,679.0 L896.1,679.0 L900.8,676.0 L905.4,676.0 L910.1,679.0 L914.8,679.0 L919.4,679.0 L924.1,679.0 L928.7,679.0 L933.4,679.0 L938.1,682.0 L942.7,682.0 L947.4,682.0 L952.0,685.0 L956.7,685.0 L961.4,691.0 L966.0,697.0 L970.7,703.0 L975.3,703.0 L980.0,703.0" fill="none" stroke="#0dcaf0" stroke-width="1.5"/><rect x="95" y="635" width="14" height="4" fill="#0dcaf0"/>
<text x="113" y="639" font-size="10" fill="#212529">Welle</text>
<text x="90" y="818" font-size="12" font-weight="600" fill="#212529">Luftdruck  </text>
<line x1="90" y1="970.0" x2="980" y2="970.0" stroke="#dee2e6" stroke-width="0.5"/>
<text x="84" y="974.0" text-anchor="end" font-size="11" fill="#6c757d">1005</text>
<line x1="90" y1="940.0" x2="980" y2="940.0" stroke="#dee2e6" stroke-width="0.5"/>
<text x="84" y="944.0" text-anchor="end" font-size="11" fill="#6c757d">1008</text>
<line x1="90" y1="910.0" x2="980" y2="910.0" stroke="#dee2e6" stroke-width="0.5"/>
<text x="84" y="914.0" text-anchor="end" font-size="11" fill="#6c757d">1012</text>
<line x1="90" y1="880.0" x2="980" y2="880.0" stroke="#dee2e6" stroke-width="0.5"/>
<text x="84" y="884.0" text-anchor="end" font-size="11" fill="#6c757d">1015</text>
<line x1="90" y1="850.0" x2="980" y2="850.0" stroke="#dee2e6" stroke-width="0.5"/>
<text x="84" y="854.0" text-anchor="end" font-size="11" fill="#6c757d">1019</text>
<line x1="90" y1="820.0" x2="980" y2="820.0" stroke="#dee2e6" stroke-width="0.5"/>
<text x="84" y="824.0" text-anchor="end" font-size="11" fill="#6c757d">1022 hPa</text>
<line x1="90.0" y1="820" x2="90.0" y2="970" stroke="#dee2e6" stroke-width="0.5" stroke-dasharray="4,4"/>
<text x="90.0" y="982" text-anchor="start" font-size="8" fill="#6c757d">10.04.2026</text>
<text x="90.0" y="992" text-anchor="start" font-size="8" fill="#6c757d">00:00</text>
<line x1="201.8" y1="820" x2="201.8" y2="970" stroke="#dee2e6" stroke-width="0.5" stroke-dasharray="4,4"/>
<text x="201.8" y="982" text-anchor="middle" font-size="8" fill="#6c757d">11.04.2026</text>
<text x="201.8" y="992" text-anchor="middle" font-size="8" fill="#6c757d">00:00</text>
<line x1="313.7" y1="820" x2="313.7" y2="970" stroke="#dee2e6" stroke-width="0.5" stroke-dasharray="4,4"/>
<text x="313.7" y="982" text-anchor="middle" font-size="8" fill="#6c757d">12.04.2026</text>
<text x="313.7" y="992" text-anchor="middle" font-size="8" fill="#6c757d">00:00</text>
<line x1="425.5" y1="820" x2="425.5" y2="970" stroke="#dee2e6" stroke-width="0.5" stroke-dasharray="4,4"/>
<text x="425.5" y="982" text-anchor="middle" font-size="8" fill="#6c757d">13.04.2026</text>
<text x="425.5" y="992" text-anchor="middle" font-size="8" fill="#6c757d">00:00</text>
<line x1="537.3" y1="820" x2="537.3" y2="970" stroke="#dee2e6" stroke-width="0.5" stroke-dasharray="4,4"/>
<text x="537.3" y="982" text-anchor="middle" font-size="8" fill="#6c757d">14.04.2026</text>
<text x="537.3" y="992" text-anchor="middle" font-size="8" fill="#6c757d">00:00</text>
<line x1="649.2" y1="820" x2="649.2" y2="970" stroke="#dee2e6" stroke-width="0.5" stroke-dasharray="4,4"/>
<text x="649.2" y="982" text-anchor="middle" font-size="8" fill="#6c757d">15.04.2026</text>
<text x="649.2" y="992" text-anchor="middle" font-size="8" fill="#6c757d">00:00</text>
<line x1="761.0" y1="820" x2="761.0" y2="970" stroke="#dee2e6" stroke-width="0.5" stroke-dasharray="4,4"/>
<text x="761.0" y="982" text-anchor="middle" font-size="8" fill="#6c757d">16.04.2026</text>
<text x="761.0" y="992" text-anchor="middle" font-size="8" fill="#6c757d">00:00</text>
<line x1="872.8" y1="820" x2="872.8" y2="970" stroke="#dee2e6" stroke-width="0.5" stroke-dasharray="4,4"/>
<text x="872.8" y="982" text-anchor="end" font-size="8" fill="#6c757d">17.04.2026</text>
<text x="872.8" y="992" text-anchor="end" font-size="8" fill="#6c757d">00:00</text>
<path d="M90.0,887.9 L94.7,885.3 L99.3,884.4 L104.0,884.4 L108.6,887.1 L113.3,887.9 L118.0,888.8 L122.6,887.1 L127.3,881.8 L131.9,880.0 L136.6,876.5 L141.3,872.1 L145.9,871.2 L150.6,869.4 L155.2,871.2 L159.9,874.7 L164.6,879.1 L169.2,882.6 L173.9,882.6 L178.5,881.8 L183.2,880.9 L187.9,876.5 L192.5,867.6 L197.2,865.0 L201.8,862.4 L206.5,862.4 L211.2,863.2 L215.8,863.2 L220.5,865.0 L225.1,864.1 L229.8,864.1 L234.5,862.4 L239.1,859.7 L243.8,859.7 L248.4,856.2 L253.1,854.4 L257.7,855.3 L262.4,857.1 L267.1,858.8 L271.7,860.6 L276.4,864.1 L281.0,867.6 L285.7,867.6 L290.4,868.5 L295.0,866.8 L299.7,864.1 L304.3,858.8 L309.0,856.2 L313.7,856.2 L318.3,857.9 L323.0,857.9 L327.6,862.4 L332.3,861.5 L337.0,862.4 L341.6,860.6 L346.3,857.9 L350.9,852.6 L355.6,850.9 L360.3,850.9 L364.9,845.6 L369.6,841.2 L374.2,839.4 L378.9,843.8 L383.6,847.4 L388.2,850.9 L392.9,852.6 L397.5,853.5 L402.2,851.8 L406.9,849.1 L411.5,846.5 L416.2,842.1 L420.8,838.5 L425.5,839.4 L430.2,839.4 L434.8,840.3 L439.5,844.7 L444.1,846.5 L448.8,847.4 L453.5,848.2 L458.1,846.5 L462.8,843.8 L467.4,844.7 L472.1,840.3 L476.8,836.8 L481.4,833.2 L486.1,833.2 L490.7,836.8 L495.4,839.4 L500.1,842.9 L504.7,847.4 L509.4,846.5 L514.0,850.9 L518.7,850.9 L523.4,846.5 L528.0,842.9 L532.7,841.2 L537.3,842.1 L542.0,844.7 L546.6,845.6 L551.3,847.4 L556.0,850.9 L560.6,850.0 L565.3,850.9 L569.9,850.0 L574.6,845.6 L579.3,842.1 L583.9,848.2 L588.6,848.2 L593.2,848.2 L597.9,839.4 L602.6,839.4 L607.2,842.9 L611.9,843.8 L616.5,844.7 L621.2,842.9 L625.9,842.9 L630.5,837.6 L635.2,844.7 L639.8,839.4 L644.5,833.2 L649.2,833.2 L653.8,835.9 L658.5,839.4 L663.1,842.9 L667.8,845.6 L672.5,846.5 L677.1,849.1 L681.8,851.8 L686.4,849.1 L691.1,846.5 L695.8,846.5 L700.4,849.1 L705.1,850.9 L709.7,855.3 L714.4,857.9 L719.1,861.5 L723.7,864.1 L728.4,866.8 L733.0,873.8 L737.7,875.6 L742.4,873.8 L747.0,867.6 L751.7,865.9 L756.3,865.0 L761.0,867.6 L765.7,872.1 L770.3,874.7 L775.0,882.6 L779.6,887.1 L784.3,889.7 L789.0,897.6 L793.6,898.5 L798.3,894.1 L802.9,899.4 L807.6,898.5 L812.3,892.4 L816.9,889.7 L821.6,894.1 L826.2,899.4 L830.9,904.7 L835.5,906.5 L840.2,906.5 L844.9,905.6 L849.5,909.1 L854.2,911.8 L858.8,910.9 L863.5,906.5 L868.2,908.2 L872.8,903.8 L877.5,905.6 L882.1,906.5 L886.8,914.4 L891.5,912.6 L896.1,914.4 L900.8,918.8 L905.4,919.7 L910.1,915.3 L914.8,918.8 L919.4,924.1 L924.1,925.0 L928.7,931.2 L933.4,939.1 L938.1,943.5 L942.7,949.7 L947.4,953.2 L952.0,955.9 L956.7,955.0 L961.4,952.4 L966.0,949.7 L970.7,945.3 L975.3,940.9 L980.0,939.1" fill="none" stroke="#6f42c1" stroke-width="1.5"/><rect x="95" y="830" width="14" height="4" fill="#6f42c1"/>
<text x="113" y="834" font-size="10" fill="#212529">Luftdruck</text>
<text x="500" y="1014" text-anchor="middle" font-size="9" fill="#6c757d">Quelle: Open-Meteo (37.38°N, 23.25°E) · pegelstand CLI</text>
</svg>
