<svg xmlns="http://www.w3.org/2000/svg" viewBox="0 0 1000 945" width="1000" height="945" style="font-family:Helvetica,Arial,sans-serif;background:#ffffff">
<text x="500" y="24" text-anchor="middle" font-size="16" font-weight="bold" fill="#212529">Zürichsee — 10.04.2026 bis 11.04.2026</text>
<text x="90" y="38" font-size="12" font-weight="600" fill="#212529">Temperatur  </text>
<line x1="90" y1="220.0" x2="980" y2="220.0" stroke="#dee2e6" stroke-width="0.5"/>
<text x="84" y="224.0" text-anchor="end" font-size="11" fill="#6c757d">8.0</text>
<line x1="90" y1="184.0" x2="980" y2="184.0" stroke="#dee2e6" stroke-width="0.5"/>
<text x="84" y="188.0" text-anchor="end" font-size="11" fill="#6c757d">9.6</text>
<line x1="90" y1="148.0" x2="980" y2="148.0" stroke="#dee2e6" stroke-width="0.5"/>
<text x="84" y="152.0" text-anchor="end" font-size="11" fill="#6c757d">11.2</text>
<line x1="90" y1="112.0" x2="980" y2="112.0" stroke="#dee2e6" stroke-width="0.5"/>
<text x="84" y="116.0" text-anchor="end" font-size="11" fill="#6c757d">12.8</text>
<line x1="90" y1="76.0" x2="980" y2="76.0" stroke="#dee2e6" stroke-width="0.5"/>
<text x="84" y="80.0" text-anchor="end" font-size="11" fill="#6c757d">14.4</text>
<line x1="90" y1="40.0" x2="980" y2="40.0" stroke="#dee2e6" stroke-width="0.5"/>
<text x="84" y="44.0" text-anchor="end" font-size="11" fill="#6c757d">16.0 °C</text>
<line x1="90.0" y1="40" x2="90.0" y2="220" stroke="#dee2e6" stroke-width="0.5" stroke-dasharray="4,4"/>
<text x="90.0" y="232" text-anchor="middle" font-size="8" fill="#6c757d">09.04.2026</text>
<text x="90.0" y="242" text-anchor="middle" font-size="8" fill="#6c757d">22:00</text>
<line x1="200.6" y1="40" x2="200.6" y2="220" stroke="#dee2e6" stroke-width="0.5" stroke-dasharray="4,4"/>
<text x="200.6" y="232" text-anchor="middle" font-size="8" fill="#6c757d">10.04.2026</text>
<text x="200.6" y="242" text-anchor="middle" font-size="8" fill="#6c757d">02:30</text>
<line x1="311.2" y1="40" x2="311.2" y2="220" stroke="#dee2e6" stroke-width="0.5" stroke-dasharray="4,4"/>
<text x="311.2" y="235" text-anchor="middle" font-size="9" fill="#6c757d">06:10</text>
<line x1="421.9" y1="40" x2="421.9" y2="220" stroke="#dee2e6" stroke-width="0.5" stroke-dasharray="4,4"/>
<text x="421.9" y="235" text-anchor="middle" font-size="9" fill="#6c757d">09:50</text>
<line x1="532.5" y1="40" x2="532.5" y2="220" stroke="#dee2e6" stroke-width="0.5" stroke-dasharray="4,4"/>
<text x="532.5" y="235" text-anchor="middle" font-size="9" fill="#6c757d">13:30</text>
<line x1="643.1" y1="40" x2="643.1" y2="220" stroke="#dee2e6" stroke-width="0.5" stroke-dasharray="4,4"/>
<text x="643.1" y="235" text-anchor="middle" font-size="9" fill="#6c757d">17:10</text>
<line x1="753.7" y1="40" x2="753.7" y2="220" stroke="#dee2e6" stroke-width="0.5" stroke-dasharray="4,4"/>
<text x="753.7" y="235" text-anchor="middle" font-size="9" fill="#6c757d">20:50</text>
<line x1="864.4" y1="40" x2="864.4" y2="220" stroke="#dee2e6" stroke-width="0.5" stroke-dasharray="4,4"/>
<text x="864.4" y="232" text-anchor="middle" font-size="8" fill="#6c757d">11.04.2026</text>
<text x="864.4" y="242" text-anchor="middle" font-size="8" fill="#6c757d">00:30</text>
<line x1="975.0" y1="40" x2="975.0" y2="220" stroke="#dee2e6" stroke-width="0.5" stroke-dasharray="4,4"/>
<text x="975.0" y="235" text-anchor="middle" font-size="9" fill="#6c757d">05:00</text>
<path d="M90.0,166.0 L95.0,163.8 L100.1,172.8 L105.1,175.0 L110.1,175.0 L115.1,175.0 L120.2,179.5 L125.2,179.5 L130.2,179.5 L135.3,181.8 L140.3,184.0 L145.3,181.8 L150.3,184.0 L155.4,186.2 L160.4,188.5 L165.4,188.5 L170.5,184.0 L175.5,181.8 L180.5,166.0 L185.5,166.0 L190.6,157.0 L195.6,139.0 L200.6,141.2 L205.6,145.8 L210.7,145.8 L215.7,143.5 L220.7,136.8 L225.8,136.8 L230.8,145.8 L235.8,143.5 L240.8,132.2 L245.9,134.5 L250.9,134.5 L255.9,130.0 L261.0,130.0 L266.0,130.0 L271.0,139.0 L276.0,132.2 L281.1,132.2 L286.1,134.5 L291.1,141.2 L296.2,148.0 L301.2,136.8 L306.2,141.2 L311.2,130.0 L316.3,130.0 L321.3,130.0 L326.3,132.2 L331.4,130.0 L336.4,127.8 L341.4,130.0 L346.4,127.8 L351.5,127.8 L356.5,127.8 L361.5,127.8 L366.6,127.8 L371.6,127.8 L376.6,127.8 L381.6,127.8 L386.7,127.8 L391.7,125.5 L396.7,125.5 L401.8,127.8 L406.8,125.5 L411.8,125.5 L416.8,125.5 L421.9,125.5 L426.9,125.5 L431.9,125.5 L436.9,123.2 L442.0,123.2 L447.0,121.0 L452.0,121.0 L457.1,121.0 L462.1,121.0 L467.1,121.0 L472.1,121.0 L477.2,118.8 L482.2,118.8 L487.2,118.8 L492.3,118.8 L497.3,118.8 L502.3,118.8 L507.3,118.8 L512.4,116.5 L517.4,116.5 L522.4,116.5 L527.5,116.5 L532.5,116.5 L537.5,116.5 L542.5,116.5 L547.6,116.5 L552.6,118.8 L557.6,116.5 L562.7,116.5 L567.7,116.5 L572.7,116.5 L577.7,114.3 L582.8,114.3 L587.8,116.5 L592.8,114.3 L597.9,114.3 L602.9,114.3 L607.9,114.3 L612.9,114.3 L618.0,114.3 L623.0,114.3 L628.0,114.3 L633.1,114.3 L638.1,114.3 L643.1,114.3 L648.1,114.3 L653.2,114.3 L658.2,114.3 L663.2,114.3 L668.2,114.3 L673.3,114.3 L678.3,116.5 L683.3,118.8 L688.4,118.8 L693.4,116.5 L698.4,118.8 L703.4,121.0 L708.5,118.8 L713.5,121.0 L718.5,121.0 L723.6,121.0 L728.6,121.0 L733.6,121.0 L738.6,121.0 L743.7,123.2 L748.7,123.2 L753.7,125.5 L758.8,123.2 L763.8,125.5 L768.8,125.5 L773.8,125.5 L778.9,125.5 L783.9,125.5 L788.9,125.5 L794.0,125.5 L799.0,125.5 L804.0,125.5 L809.0,125.5 L814.1,125.5 L819.1,125.5 L824.1,125.5 L829.2,125.5 L834.2,125.5 L839.2,125.5 L844.2,125.5 L849.3,123.2 L854.3,123.2 L859.3,123.2 L864.4,123.2 L869.4,123.2 L874.4,121.0 L879.4,121.0 L884.5,123.2 L889.5,123.2 L894.5,121.0 L899.5,121.0 L904.6,121.0 L909.6,121.0 L914.6,121.0 L919.7,121.0 L924.7,121.0 L929.7,123.2 L934.7,123.2 L939.8,123.2 L944.8,123.2 L949.8,123.2 L954.9,123.2 L959.9,123.2 L964.9,123.2 L969.9,123.2 L975.0,123.2 L980.0,123.2 L980.0,220.0 L90.0,220.0 Z" fill="#0d6efd" opacity="0.15" stroke="none"/><path d="M90.0,166.0 L95.0,163.8 L100.1,172.8 L105.1,175.0 L110.1,175.0 L115.1,175.0 L120.2,179.5 L125.2,179.5 L130.2,179.5 L135.3,181.8 L140.3,184.0 L145.3,181.8 L150.3,184.0 L155.4,186.2 L160.4,188.5 L165.4,188.5 L170.5,184.0 L175.5,181.8 L180.5,166.0 L185.5,166.0 L190.6,157.0 L195.6,139.0 L200.6,141.2 L205.6,145.8 L210.7,145.8 L215.7,143.5 L220.7,136.8 L225.8,136.8 L230.8,145.8 L235.8,143.5 L240.8,132.2 L245.9,134.5 L250.9,134.5 L255.9,130.0 L261.0,130.0 L266.0,130.0 L271.0,139.0 L276.0,132.2 L281.1,132.2 L286.1,134.5 L291.1,141.2 L296.2,148.0 L301.2,136.8 L306.2,141.2 L311.2,130.0 L316.3,130.0 L321.3,130.0 L326.3,132.2 L331.4,130.0 L336.4,127.8 L341.4,130.0 L346.4,127.8 L351.5,127.8 L356.5,127.8 L361.5,127.8 L366.6,127.8 L371.6,127.8 L376.6,127.8 L381.6,127.8 L386.7,127.8 L391.7,125.5 L396.7,125.5 L401.8,127.8 L406.8,125.5 L411.8,125.5 L416.8,125.5 L421.9,125.5 L426.9,125.5 L431.9,125.5 L436.9,123.2 L442.0,123.2 L447.0,121.0 L452.0,121.0 L457.1,121.0 L462.1,121.0 L467.1,121.0 L472.1,121.0 L477.2,118.8 L482.2,118.8 L487.2,118.8 L492.3,118.8 L497.3,118.8 L502.3,118.8 L507.3,118.8 L512.4,116.5 L517.4,116.5 L522.4,116.5 L527.5,116.5 L532.5,116.5 L537.5,116.5 L542.5,116.5 L547.6,116.5 L552.6,118.8 L557.6,116.5 L562.7,116.5 L567.7,116.5 L572.7,116.5 L577.7,114.3 L582.8,114.3 L587.8,116.5 L592.8,114.3 L597.9,114.3 L602.9,114.3 L607.9,114.3 L612.9,114.3 L618.0,114.3 L623.0,114.3 L628.0,114.3 L633.1,114.3 L638.1,114.3 L643.1,114.3 L648.1,114.3 L653.2,114.3 L658.2,114.3 L663.2,114.3 L668.2,114.3 L673.3,114.3 L678.3,116.5 L683.3,118.8 L688.4,118.8 L693.4,116.5 L698.4,118.8 L703.4,121.0 L708.5,118.8 L713.5,121.0 L718.5,121.0 L723.6,121.0 L728.6,121.0 L733.6,121.0 L738.6,121.0 L743.7,123.2 L748.7,123.2 L753.7,125.5 L758.8,123.2 L763.8,125.5 L768.8,125.5 L773.8,125.5 L778.9,125.5 L783.9,125.5 L788.9,125.5 L794.0,125.5 L799.0,125.5 L804.0,125.5 L809.0,125.5 L814.1,125.5 L819.1,125.5 L824.1,125.5 L829.2,125.5 L834.2,125.5 L839.2,125.5 L844.2,125.5 L849.3,123.2 L854.3,123.2 L859.3,123.2 L864.4,123.2 L869.4,123.2 L874.4,121.0 L879.4,121.0 L884.5,123.2 L889.5,123.2 L894.5,121.0 L899.5,121.0 L904.6,121.0 L909.6,121.0 L914.6,121.0 L919.7,121.0 L924.7,121.0 L929.7,123.2 L934.7,123.2 L939.8,123.2 L944.8,123.2 L949.8,123.2 L954.9,123.2 L959.9,123.2 L964.9,123.2 L969.9,123.2 L975.0,123.2 L980.0,123.2" fill="none" stroke="#0d6efd" stroke-width="1.5"/><path d="M90.0,87.2 L95.0,89.5 L100.1,94.0 L105.1,96.2 L110.1,98.5 L115.1,100.7 L120.2,103.0 L125.2,105.3 L130.2,109.7 L135.3,112.0 L140.3,116.5 L145.3,118.8 L150.3,121.0 L155.4,123.2 L160.4,125.5 L165.4,127.8 L170.5,130.0 L175.5,132.2 L180.5,148.0 L185.5,152.5 L190.6,154.8 L195.6,157.0 L200.6,159.2 L205.6,161.5 L210.7,163.8 L215.7,166.0 L220.7,166.0 L225.8,168.2 L230.8,168.2 L235.8,170.5 L240.8,170.5 L245.9,170.5 L250.9,170.5 L255.9,168.2 L261.0,168.2 L266.0,163.8 L271.0,161.5 L276.0,157.0 L281.1,152.5 L286.1,150.2 L291.1,150.2 L296.2,150.2 L301.2,145.8 L306.2,145.8 L311.2,143.5 L316.3,141.2 L321.3,139.0 L326.3,136.8 L331.4,134.5 L336.4,134.5 L341.4,134.5 L346.4,134.5 L351.5,132.2 L356.5,132.2 L361.5,132.2 L366.6,130.0 L371.6,130.0 L376.6,127.8 L381.6,127.8 L386.7,125.5 L391.7,121.0 L396.7,116.5 L401.8,112.0 L406.8,118.8 L411.8,121.0 L416.8,118.8 L421.9,116.5 L426.9,114.3 L431.9,112.0 L436.9,109.7 L442.0,105.3 L447.0,105.3 L452.0,100.7 L457.1,100.7 L462.1,96.2 L467.1,91.8 L472.1,94.0 L477.2,94.0 L482.2,98.5 L487.2,96.2 L492.3,91.8 L497.3,87.2 L502.3,80.5 L507.3,80.5 L512.4,78.2 L517.4,71.5 L522.4,67.0 L527.5,62.5 L532.5,60.2 L537.5,58.0 L542.5,55.7 L547.6,73.8 L552.6,89.5 L557.6,94.0 L562.7,96.2 L567.7,98.5 L572.7,98.5 L577.7,98.5 L582.8,100.7 L587.8,103.0 L592.8,107.5 L597.9,103.0 L602.9,98.5 L607.9,96.2 L612.9,94.0 L618.0,94.0 L623.0,96.2 L628.0,96.2 L633.1,91.8 L638.1,89.5 L643.1,96.2 L648.1,96.2 L653.2,96.2 L658.2,103.0 L663.2,103.0 L668.2,105.3 L673.3,105.3 L678.3,109.7 L683.3,114.3 L688.4,114.3 L693.4,114.3 L698.4,109.7 L703.4,109.7 L708.5,109.7 L713.5,109.7 L718.5,109.7 L723.6,112.0 L728.6,114.3 L733.6,116.5 L738.6,118.8 L743.7,118.8 L748.7,121.0 L753.7,121.0 L758.8,123.2 L763.8,125.5 L768.8,127.8 L773.8,132.2 L778.9,134.5 L783.9,136.8 L788.9,139.0 L794.0,145.8 L799.0,148.0 L804.0,150.2 L809.0,154.8 L814.1,159.2 L819.1,161.5 L824.1,163.8 L829.2,168.2 L834.2,170.5 L839.2,170.5 L844.2,170.5 L849.3,170.5 L854.3,170.5 L859.3,170.5 L864.4,172.8 L869.4,172.8 L874.4,175.0 L879.4,175.0 L884.5,175.0 L889.5,177.2 L894.5,179.5 L899.5,181.8 L904.6,184.0 L909.6,186.2 L914.6,188.5 L919.7,188.5 L924.7,190.8 L929.7,197.5 L934.7,197.5 L939.8,197.5 L944.8,197.5 L949.8,195.2 L954.9,195.2 L959.9,195.2 L964.9,193.0 L969.9,193.0 L975.0,190.8 L980.0,190.8" fill="none" stroke="#dc3545" stroke-width="1.5"/><rect x="95" y="50" width="14" height="4" fill="#0d6efd"/>
<text x="113" y="54" font-size="10" fill="#212529">Wassertemperatur (T)</text>
<rect x="248" y="50" width="14" height="4" fill="#dc3545"/>
<text x="266" y="54" font-size="10" fill="#212529">Lufttemperatur (T)</text>
<text x="90" y="263" font-size="12" font-weight="600" fill="#212529">Pegelstand  </text>
<line x1="90" y1="445.0" x2="980" y2="445.0" stroke="#dee2e6" stroke-width="0.5"/>
<text x="84" y="449.0" text-anchor="end" font-size="11" fill="#6c757d">405.00</text>
<line x1="90" y1="409.0" x2="980" y2="409.0" stroke="#dee2e6" stroke-width="0.5"/>
<text x="84" y="413.0" text-anchor="end" font-size="11" fill="#6c757d">405.20</text>
<line x1="90" y1="373.0" x2="980" y2="373.0" stroke="#dee2e6" stroke-width="0.5"/>
<text x="84" y="377.0" text-anchor="end" font-size="11" fill="#6c757d">405.40</text>
<line x1="90" y1="337.0" x2="980" y2="337.0" stroke="#dee2e6" stroke-width="0.5"/>
<text x="84" y="341.0" text-anchor="end" font-size="11" fill="#6c757d">405.60</text>
<line x1="90" y1="301.0" x2="980" y2="301.0" stroke="#dee2e6" stroke-width="0.5"/>
<text x="84" y="305.0" text-anchor="end" font-size="11" fill="#6c757d">405.80</text>
<line x1="90" y1="265.0" x2="980" y2="265.0" stroke="#dee2e6" stroke-width="0.5"/>
<text x="84" y="269.0" text-anchor="end" font-size="11" fill="#6c757d">406.00 m ü.M.</text>
<line x1="90.0" y1="265" x2="90.0" y2="445" stroke="#dee2e6" stroke-width="0.5" stroke-dasharray="4,4"/>
<text x="90.0" y="457" text-anchor="middle" font-size="8" fill="#6c757d">09.04.2026</text>
<text x="90.0" y="467" text-anchor="middle" font-size="8" fill="#6c757d">22:00</text>
<line x1="200.6" y1="265" x2="200.6" y2="445" stroke="#dee2e6" stroke-width="0.5" stroke-dasharray="4,4"/>
<text x="200.6" y="457" text-anchor="middle" font-size="8" fill="#6c757d">10.04.2026</text>
<text x="200.6" y="467" text-anchor="middle" font-size="8" fill="#6c757d">02:30</text>
<line x1="311.2" y1="265" x2="311.2" y2="445" stroke="#dee2e6" stroke-width="0.5" stroke-dasharray="4,4"/>
<text x="311.2" y="460" text-anchor="middle" font-size="9" fill="#6c757d">06:10</text>
<line x1="421.9" y1="265" x2="421.9" y2="445" stroke="#dee2e6" stroke-width="0.5" stroke-dasharray="4,4"/>
<text x="421.9" y="460" text-anchor="middle" font-size="9" fill="#6c757d">09:50</text>
<line x1="532.5" y1="265" x2="532.5" y2="445" stroke="#dee2e6" stroke-width="0.5" stroke-dasharray="4,4"/>
<text x="532.5" y="460" text-anchor="middle" font-size="9" fill="#6c757d">13:30</text>
<line x1="643.1" y1="265" x2="643.1" y2="445" stroke="#dee2e6" stroke-width="0.5" stroke-dasharray="4,4"/>
<text x="643.1" y="460" text-anchor="middle" font-size="9" fill="#6c757d">17:10</text>
<line x1="753.7" y1="265" x2="753.7" y2="445" stroke="#dee2e6" stroke-width="0.5" stroke-dasharray="4,4"/>
<text x="753.7" y="460" text-anchor="middle" font-size="9" fill="#6c757d">20:50</text>
<line x1="864.4" y1="265" x2="864.4" y2="445" stroke="#dee2e6" stroke-width="0.5" stroke-dasharray="4,4"/>
<text x="864.4" y="457" text-anchor="middle" font-size="8" fill="#6c757d">11.04.2026</text>
<text x="864.4" y="467" text-anchor="middle" font-size="8" fill="#6c757d">00:30</text>
<line x1="975.0" y1="265" x2="975.0" y2="445" stroke="#dee2e6" stroke-width="0.5" stroke-dasharray="4,4"/>
<text x="975.0" y="460" text-anchor="middle" font-size="9" fill="#6c757d">05:00</text>
<path d="M90.0,290.2 L95.0,290.2 L100.1,290.2 L105.1,290.2 L110.1,290.2 L115.1,290.2 L120.2,290.2 L125.2,290.2 L130.2,290.2 L135.3,290.2 L140.3,290.2 L145.3,290.2 L150.3,290.2 L155.4,290.2 L160.4,290.2 L165.4,288.4 L170.5,290.2 L175.5,290.2 L180.5,288.4 L185.5,288.4 L190.6,288.4 L195.6,290.2 L200.6,290.2 L205.6,290.2 L210.7,288.4 L215.7,290.2 L220.7,290.2 L225.8,288.4 L230.8,290.2 L235.8,290.2 L240.8,288.4 L245.9,288.4 L250.9,288.4 L255.9,288.4 L261.0,290.2 L266.0,290.2 L271.0,290.2 L276.0,288.4 L281.1,288.4 L286.1,288.4 L291.1,288.4 L296.2,288.4 L301.2,288.4 L306.2,288.4 L311.2,288.4 L316.3,288.4 L321.3,288.4 L326.3,288.4 L331.4,288.4 L336.4,288.4 L341.4,290.2 L346.4,288.4 L351.5,288.4 L356.5,288.4 L361.5,288.4 L366.6,288.4 L371.6,288.4 L376.6,288.4 L381.6,288.4 L386.7,288.4 L391.7,288.4 L396.7,288.4 L401.8,288.4 L406.8,288.4 L411.8,288.4 L416.8,288.4 L421.9,288.4 L426.9,288.4 L431.9,288.4 L436.9,288.4 L442.0,288.4 L447.0,288.4 L452.0,288.4 L457.1,288.4 L462.1,288.4 L467.1,288.4 L472.1,288.4 L477.2,288.4 L482.2,286.6 L487.2,288.4 L492.3,288.4 L497.3,288.4 L502.3,288.4 L507.3,288.4 L512.4,288.4 L517.4,286.6 L522.4,288.4 L527.5,286.6 L532.5,288.4 L537.5,286.6 L542.5,286.6 L547.6,286.6 L552.6,286.6 L557.6,288.4 L562.7,286.6 L567.7,286.6 L572.7,288.4 L577.7,288.4 L582.8,286.6 L587.8,286.6 L592.8,286.6 L597.9,288.4 L602.9,286.6 L607.9,286.6 L612.9,286.6 L618.0,286.6 L623.0,286.6 L628.0,286.6 L633.1,286.6 L638.1,286.6 L643.1,288.4 L648.1,286.6 L653.2,286.6 L658.2,286.6 L663.2,286.6 L668.2,286.6 L673.3,286.6 L678.3,286.6 L683.3,286.6 L688.4,286.6 L693.4,286.6 L698.4,286.6 L703.4,286.6 L708.5,286.6 L713.5,286.6 L718.5,286.6 L723.6,286.6 L728.6,286.6 L733.6,286.6 L738.6,286.6 L743.7,284.8 L748.7,286.6 L753.7,286.6 L758.8,286.6 L763.8,286.6 L768.8,286.6 L773.8,286.6 L778.9,286.6 L783.9,286.6 L788.9,284.8 L794.0,286.6 L799.0,286.6 L804.0,286.6 L809.0,286.6 L814.1,284.8 L819.1,286.6 L824.1,284.8 L829.2,286.6 L834.2,284.8 L839.2,286.6 L844.2,286.6 L849.3,284.8 L854.3,284.8 L859.3,284.8 L864.4,286.6 L869.4,284.8 L874.4,284.8 L879.4,284.8 L884.5,284.8 L889.5,286.6 L894.5,284.8 L924.7,286.6 L929.7,286.6 L934.7,284.8 L939.8,284.8 L944.8,286.6 L949.8,286.6 L954.9,284.8 L959.9,284.8 L964.9,286.6 L969.9,286.6 L975.0,284.8 L980.0,286.6 L980.0,445.0 L90.0,445.0 Z" fill="#198754" opacity="0.15" stroke="none"/><path d="M90.0,290.2 L95.0,290.2 L100.1,290.2 L105.1,290.2 L110.1,290.2 L115.1,290.2 L120.2,290.2 L125.2,290.2 L130.2,290.2 L135.3,290.2 L140.3,290.2 L145.3,290.2 L150.3,290.2 L155.4,290.2 L160.4,290.2 L165.4,288.4 L170.5,290.2 L175.5,290.2 L180.5,288.4 L185.5,288.4 L190.6,288.4 L195.6,290.2 L200.6,290.2 L205.6,290.2 L210.7,288.4 L215.7,290.2 L220.7,290.2 L225.8,288.4 L230.8,290.2 L235.8,290.2 L240.8,288.4 L245.9,288.4 L250.9,288.4 L255.9,288.4 L261.0,290.2 L266.0,290.2 L271.0,290.2 L276.0,288.4 L281.1,288.4 L286.1,288.4 L291.1,288.4 L296.2,288.4 L301.2,288.4 L306.2,288.4 L311.2,288.4 L316.3,288.4 L321.3,288.4 L326.3,288.4 L331.4,288.4 L336.4,288.4 L341.4,290.2 L346.4,288.4 L351.5,288.4 L356.5,288.4 L361.5,288.4 L366.6,288.4 L371.6,288.4 L376.6,288.4 L381.6,288.4 L386.7,288.4 L391.7,288.4 L396.7,288.4 L401.8,288.4 L406.8,288.4 L411.8,288.4 L416.8,288.4 L421.9,288.4 L426.9,288.4 L431.9,288.4 L436.9,288.4 L442.0,288.4 L447.0,288.4 L452.0,288.4 L457.1,288.4 L462.1,288.4 L467.1,288.4 L472.1,288.4 L477.2,288.4 L482.2,286.6 L487.2,288.4 L492.3,288.4 L497.3,288.4 L502.3,288.4 L507.3,288.4 L512.4,288.4 L517.4,286.6 L522.4,288.4 L527.5,286.6 L532.5,288.4 L537.5,286.6 L542.5,286.6 L547.6,286.6 L552.6,286.6 L557.6,288.4 L562.7,286.6 L567.7,286.6 L572.7,288.4 L577.7,288.4 L582.8,286.6 L587.8,286.6 L592.8,286.6 L597.9,288.4 L602.9,286.6 L607.9,286.6 L612.9,286.6 L618.0,286.6 L623.0,286.6 L628.0,286.6 L633.1,286.6 L638.1,286.6 L643.1,288.4 L648.1,286.6 L653.2,286.6 L658.2,286.6 L663.2,286.6 L668.2,286.6 L673.3,286.6 L678.3,286.6 L683.3,286.6 L688.4,286.6 L693.4,286.6 L698.4,286.6 L703.4,286.6 L708.5,286.6 L713.5,286.6 L718.5,286.6 L723.6,286.6 L728.6,286.6 L733.6,286.6 L738.6,286.6 L743.7,284.8 L748.7,286.6 L753.7,286.6 L758.8,286.6 L763.8,286.6 L768.8,286.6 L773.8,286.6 L778.9,286.6 L783.9,286.6 L788.9,284.8 L794.0,286.6 L799.0,286.6 L804.0,286.6 L809.0,286.6 L814.1,284.8 L819.1,286.6 L824.1,284.8 L829.2,286.6 L834.2,284.8 L839.2,286.6 L844.2,286.6 L849.3,284.8 L854.3,284.8 L859.3,284.8 L864.4,286.6 L869.4,284.8 L874.4,284.8 L879.4,284.8 L884.5,284.8 L889.5,286.6 L894.5,284.8 L924.7,286.6 L929.7,286.6 L934.7,284.8 L939.8,284.8 L944.8,286.6 L949.8,286.6 L954.9,284.8 L959.9,284.8 L964.9,286.6 L969.9,286.6 L975.0,284.8 L980.0,286.6" fill="none" stroke="#198754" stroke-width="1.5"/><rect x="95" y="275" width="14" height="4" fill="#198754"/>
<text x="113" y="279" font-size="10" fill="#212529">Pegel Mythenquai (M)</text>
<text x="90" y="488" font-size="12" font-weight="600" fill="#212529">Wind &amp; Böen  </text>
<line x1="90" y1="670.0" x2="980" y2="670.0" stroke="#dee2e6" stroke-width="0.5"/>
<text x="84" y="674.0" text-anchor="end" font-size="11" fill="#6c757d">-1.0</text>
<line x1="90" y1="634.0" x2="980" y2="634.0" stroke="#dee2e6" stroke-width="0.5"/>
<text x="84" y="638.0" text-anchor="end" font-size="11" fill="#6c757d">0.0</text>
<line x1="90" y1="598.0" x2="980" y2="598.0" stroke="#dee2e6" stroke-width="0.5"/>
<text x="84" y="602.0" text-anchor="end" font-size="11" fill="#6c757d">1.0</text>
<line x1="90" y1="562.0" x2="980" y2="562.0" stroke="#dee2e6" stroke-width="0.5"/>
<text x="84" y="566.0" text-anchor="end" font-size="11" fill="#6c757d">2.0</text>
<line x1="90" y1="526.0" x2="980" y2="526.0" stroke="#dee2e6" stroke-width="0.5"/>
<text x="84" y="530.0" text-anchor="end" font-size="11" fill="#6c757d">3.0</text>
<line x1="90" y1="490.0" x2="980" y2="490.0" stroke="#dee2e6" stroke-width="0.5"/>
<text x="84" y="494.0" text-anchor="end" font-size="11" fill="#6c757d">4.0 m/s</text>
<line x1="90.0" y1="490" x2="90.0" y2="670" stroke="#dee2e6" stroke-width="0.5" stroke-dasharray="4,4"/>
<text x="90.0" y="682" text-anchor="middle" font-size="8" fill="#6c757d">09.04.2026</text>
<text x="90.0" y="692" text-anchor="middle" font-size="8" fill="#6c757d">22:00</text>
<line x1="200.6" y1="490" x2="200.6" y2="670" stroke="#dee2e6" stroke-width="0.5" stroke-dasharray="4,4"/>
<text x="200.6" y="682" text-anchor="middle" font-size="8" fill="#6c757d">10.04.2026</text>
<text x="200.6" y="692" text-anchor="middle" font-size="8" fill="#6c757d">02:30</text>
<line x1="311.2" y1="490" x2="311.2" y2="670" stroke="#dee2e6" stroke-width="0.5" stroke-dasharray="4,4"/>
<text x="311.2" y="685" text-anchor="middle" font-size="9" fill="#6c757d">06:10</text>
<line x1="421.9" y1="490" x2="421.9" y2="670" stroke="#dee2e6" stroke-width="0.5" stroke-dasharray="4,4"/>
<text x="421.9" y="685" text-anchor="middle" font-size="9" fill="#6c757d">09:50</text>
<line x1="532.5" y1="490" x2="532.5" y2="670" stroke="#dee2e6" stroke-width="0.5" stroke-dasharray="4,4"/>
<text x="532.5" y="685" text-anchor="middle" font-size="9" fill="#6c757d">13:30</text>
<line x1="643.1" y1="490" x2="643.1" y2="670" stroke="#dee2e6" stroke-width="0.5" stroke-dasharray="4,4"/>
<text x="643.1" y="685" text-anchor="middle" font-size="9" fill="#6c757d">17:10</text>
<line x1="753.7" y1="490" x2="753.7" y2="670" stroke="#dee2e6" stroke-width="0.5" stroke-dasharray="4,4"/>
<text x="753.7" y="685" text-anchor="middle" font-size="9" fill="#6c757d">20:50</text>
<line x1="864.4" y1="490" x2="864.4" y2="670" stroke="#dee2e6" stroke-width="0.5" stroke-dasharray="4,4"/>
<text x="864.4" y="682" text-anchor="middle" font-size="8" fill="#6c757d">11.04.2026</text>
<text x="864.4" y="692" text-anchor="middle" font-size="8" fill="#6c757d">00:30</text>
<line x1="975.0" y1="490" x2="975.0" y2="670" stroke="#dee2e6" stroke-width="0.5" stroke-dasharray="4,4"/>
<text x="975.0" y="685" text-anchor="middle" font-size="9" fill="#6c757d">05:00</text>
<path d="M90.0,634.0 L95.0,634.0 L100.1,630.4 L105.1,634.0 L110.1,634.0 L115.1,634.0 L120.2,634.0 L125.2,634.0 L130.2,634.0 L135.3,630.4 L140.3,634.0 L145.3,634.0 L150.3,626.8 L155.4,634.0 L160.4,634.0 L165.4,634.0 L170.5,634.0 L175.5,634.0 L180.5,634.0 L185.5,634.0 L190.6,634.0 L195.6,634.0 L200.6,634.0 L205.6,634.0 L210.7,634.0 L215.7,634.0 L220.7,634.0 L225.8,634.0 L230.8,634.0 L235.8,634.0 L240.8,634.0 L245.9,634.0 L250.9,634.0 L255.9,634.0 L261.0,634.0 L266.0,634.0 L271.0,626.8 L276.0,634.0 L281.1,630.4 L286.1,634.0 L291.1,634.0 L296.2,623.2 L301.2,623.2 L306.2,623.2 L311.2,608.8 L316.3,623.2 L321.3,623.2 L326.3,626.8 L331.4,626.8 L336.4,630.4 L341.4,634.0 L346.4,630.4 L351.5,634.0 L356.5,634.0 L361.5,630.4 L366.6,634.0 L371.6,634.0 L376.6,634.0 L381.6,630.4 L386.7,634.0 L391.7,634.0 L396.7,634.0 L401.8,634.0 L406.8,623.2 L411.8,626.8 L416.8,634.0 L421.9,630.4 L426.9,612.4 L431.9,626.8 L436.9,634.0 L442.0,630.4 L447.0,623.2 L452.0,630.4 L457.1,608.8 L462.1,616.0 L467.1,616.0 L472.1,634.0 L477.2,598.0 L482.2,612.4 L487.2,630.4 L492.3,616.0 L497.3,594.4 L502.3,580.0 L507.3,594.4 L512.4,608.8 L517.4,619.6 L522.4,634.0 L527.5,626.8 L532.5,634.0 L537.5,634.0 L542.5,626.8 L547.6,608.8 L552.6,605.2 L557.6,608.8 L562.7,608.8 L567.7,608.8 L572.7,619.6 L577.7,612.4 L582.8,626.8 L587.8,569.2 L592.8,608.8 L597.9,630.4 L602.9,634.0 L607.9,634.0 L612.9,634.0 L618.0,630.4 L623.0,630.4 L628.0,619.6 L633.1,605.2 L638.1,619.6 L643.1,626.8 L648.1,634.0 L653.2,630.4 L658.2,616.0 L663.2,630.4 L668.2,619.6 L673.3,608.8 L678.3,590.8 L683.3,583.6 L688.4,616.0 L693.4,605.2 L698.4,612.4 L703.4,630.4 L708.5,626.8 L713.5,634.0 L718.5,634.0 L723.6,634.0 L728.6,634.0 L733.6,634.0 L738.6,626.8 L743.7,634.0 L748.7,634.0 L753.7,634.0 L758.8,634.0 L763.8,634.0 L768.8,634.0 L773.8,634.0 L778.9,634.0 L783.9,634.0 L788.9,634.0 L794.0,634.0 L799.0,634.0 L804.0,634.0 L809.0,634.0 L814.1,634.0 L819.1,634.0 L824.1,634.0 L829.2,634.0 L834.2,634.0 L839.2,634.0 L844.2,634.0 L849.3,634.0 L854.3,634.0 L859.3,634.0 L864.4,634.0 L869.4,634.0 L874.4,634.0 L879.4,634.0 L884.5,634.0 L889.5,630.4 L894.5,634.0 L899.5,634.0 L904.6,634.0 L909.6,634.0 L914.6,634.0 L919.7,616.0 L924.7,634.0 L929.7,634.0 L934.7,634.0 L939.8,634.0 L944.8,634.0 L949.8,634.0 L954.9,634.0 L959.9,634.0 L964.9,634.0 L969.9,634.0 L975.0,634.0 L980.0,630.4" fill="none" stroke="#198754" stroke-width="1.5"/><path d="M90.0,626.8 L95.0,634.0 L100.1,605.2 L105.1,612.4 L110.1,634.0 L115.1,634.0 L120.2,634.0 L125.2,634.0 L130.2,623.2 L135.3,608.8 L140.3,634.0 L145.3,626.8 L150.3,598.0 L155.4,634.0 L160.4,634.0 L165.4,634.0 L170.5,634.0 L175.5,634.0 L180.5,634.0 L185.5,634.0 L190.6,634.0 L195.6,630.4 L200.6,634.0 L205.6,634.0 L210.7,634.0 L215.7,634.0 L220.7,634.0 L225.8,634.0 L230.8,623.2 L235.8,634.0 L240.8,634.0 L245.9,634.0 L250.9,634.0 L255.9,634.0 L261.0,634.0 L266.0,634.0 L271.0,590.8 L276.0,634.0 L281.1,601.6 L286.1,612.4 L291.1,612.4 L296.2,583.6 L301.2,580.0 L306.2,569.2 L311.2,576.4 L316.3,569.2 L321.3,587.2 L326.3,598.0 L331.4,590.8 L336.4,587.2 L341.4,634.0 L346.4,590.8 L351.5,612.4 L356.5,590.8 L361.5,598.0 L366.6,619.6 L371.6,634.0 L376.6,634.0 L381.6,605.2 L386.7,612.4 L391.7,634.0 L396.7,630.4 L401.8,630.4 L406.8,594.4 L411.8,601.6 L416.8,619.6 L421.9,594.4 L426.9,587.2 L431.9,601.6 L436.9,612.4 L442.0,605.2 L447.0,601.6 L452.0,583.6 L457.1,565.6 L462.1,583.6 L467.1,576.4 L472.1,612.4 L477.2,544.0 L482.2,580.0 L487.2,605.2 L492.3,572.8 L497.3,544.0 L502.3,551.2 L507.3,569.2 L512.4,583.6 L517.4,601.6 L522.4,608.8 L527.5,594.4 L532.5,612.4 L537.5,634.0 L542.5,576.4 L547.6,594.4 L552.6,590.8 L557.6,594.4 L562.7,598.0 L567.7,594.4 L572.7,601.6 L577.7,547.6 L582.8,605.2 L587.8,536.8 L592.8,554.8 L597.9,601.6 L602.9,616.0 L607.9,630.4 L612.9,634.0 L618.0,601.6 L623.0,605.2 L628.0,576.4 L633.1,558.4 L638.1,590.8 L643.1,616.0 L648.1,630.4 L653.2,598.0 L658.2,565.6 L663.2,590.8 L668.2,583.6 L673.3,558.4 L678.3,526.0 L683.3,536.8 L688.4,554.8 L693.4,551.2 L698.4,562.0 L703.4,594.4 L708.5,601.6 L713.5,612.4 L718.5,634.0 L723.6,634.0 L728.6,630.4 L733.6,616.0 L738.6,594.4 L743.7,630.4 L748.7,623.2 L753.7,634.0 L758.8,634.0 L763.8,634.0 L768.8,630.4 L773.8,634.0 L778.9,634.0 L783.9,634.0 L788.9,634.0 L794.0,634.0 L799.0,634.0 L804.0,634.0 L809.0,634.0 L814.1,634.0 L819.1,634.0 L824.1,634.0 L829.2,634.0 L834.2,634.0 L839.2,634.0 L844.2,634.0 L849.3,634.0 L854.3,634.0 L859.3,634.0 L864.4,634.0 L869.4,634.0 L874.4,634.0 L879.4,634.0 L884.5,634.0 L889.5,608.8 L894.5,605.2 L899.5,634.0 L904.6,634.0 L909.6,634.0 L914.6,623.2 L919.7,590.8 L924.7,626.8 L929.7,634.0 L934.7,634.0 L939.8,634.0 L944.8,634.0 L949.8,634.0 L954.9,634.0 L959.9,634.0 L964.9,634.0 L969.9,634.0 L975.0,623.2 L980.0,601.6 L980.0,670.0 L90.0,670.0 Z" fill="#fd7e14" opacity="0.15" stroke="none"/><path d="M90.0,626.8 L95.0,634.0 L100.1,605.2 L105.1,612.4 L110.1,634.0 L115.1,634.0 L120.2,634.0 L125.2,634.0 L130.2,623.2 L135.3,608.8 L140.3,634.0 L145.3,626.8 L150.3,598.0 L155.4,634.0 L160.4,634.0 L165.4,634.0 L170.5,634.0 L175.5,634.0 L180.5,634.0 L185.5,634.0 L190.6,634.0 L195.6,630.4 L200.6,634.0 L205.6,634.0 L210.7,634.0 L215.7,634.0 L220.7,634.0 L225.8,634.0 L230.8,623.2 L235.8,634.0 L240.8,634.0 L245.9,634.0 L250.9,634.0 L255.9,634.0 L261.0,634.0 L266.0,634.0 L271.0,590.8 L276.0,634.0 L281.1,601.6 L286.1,612.4 L291.1,612.4 L296.2,583.6 L301.2,580.0 L306.2,569.2 L311.2,576.4 L316.3,569.2 L321.3,587.2 L326.3,598.0 L331.4,590.8 L336.4,587.2 L341.4,634.0 L346.4,590.8 L351.5,612.4 L356.5,590.8 L361.5,598.0 L366.6,619.6 L371.6,634.0 L376.6,634.0 L381.6,605.2 L386.7,612.4 L391.7,634.0 L396.7,630.4 L401.8,630.4 L406.8,594.4 L411.8,601.6 L416.8,619.6 L421.9,594.4 L426.9,587.2 L431.9,601.6 L436.9,612.4 L442.0,605.2 L447.0,601.6 L452.0,583.6 L457.1,565.6 L462.1,583.6 L467.1,576.4 L472.1,612.4 L477.2,544.0 L482.2,580.0 L487.2,605.2 L492.3,572.8 L497.3,544.0 L502.3,551.2 L507.3,569.2 L512.4,583.6 L517.4,601.6 L522.4,608.8 L527.5,594.4 L532.5,612.4 L537.5,634.0 L542.5,576.4 L547.6,594.4 L552.6,590.8 L557.6,594.4 L562.7,598.0 L567.7,594.4 L572.7,601.6 L577.7,547.6 L582.8,605.2 L587.8,536.8 L592.8,554.8 L597.9,601.6 L602.9,616.0 L607.9,630.4 L612.9,634.0 L618.0,601.6 L623.0,605.2 L628.0,576.4 L633.1,558.4 L638.1,590.8 L643.1,616.0 L648.1,630.4 L653.2,598.0 L658.2,565.6 L663.2,590.8 L668.2,583.6 L673.3,558.4 L678.3,526.0 L683.3,536.8 L688.4,554.8 L693.4,551.2 L698.4,562.0 L703.4,594.4 L708.5,601.6 L713.5,612.4 L718.5,634.0 L723.6,634.0 L728.6,630.4 L733.6,616.0 L738.6,594.4 L743.7,630.4 L748.7,623.2 L753.7,634.0 L758.8,634.0 L763.8,634.0 L768.8,630.4 L773.8,634.0 L778.9,634.0 L783.9,634.0 L788.9,634.0 L794.0,634.0 L799.0,634.0 L804.0,634.0 L809.0,634.0 L814.1,634.0 L819.1,634.0 L824.1,634.0 L829.2,634.0 L834.2,634.0 L839.2,634.0 L844.2,634.0 L849.3,634.0 L854.3,634.0 L859.3,634.0 L864.4,634.0 L869.4,634.0 L874.4,634.0 L879.4,634.0 L884.5,634.0 L889.5,608.8 L894.5,605.2 L899.5,634.0 L904.6,634.0 L909.6,634.0 L914.6,623.2 L919.7,590.8 L924.7,626.8 L929.7,634.0 L934.7,634.0 L939.8,634.0 L944.8,634.0 L949.8,634.0 L954.9,634.0 L959.9,634.0 L964.9,634.0 L969.9,634.0 L975.0,623.2 L980.0,601.6" fill="none" stroke="#fd7e14" stroke-width="1.5"/><rect x="95" y="500" width="14" height="4" fill="#198754"/>
<text x="113" y="504" font-size="10" fill="#212529">Wind (T)</text>
<rect x="176" y="500" width="14" height="4" fill="#fd7e14"/>
<text x="194" y="504" font-size="10" fill="#212529">Böen (T)</text>
<text x="90" y="713" font-size="12" font-weight="600" fill="#212529">Luftdruck  </text>
<line x1="90" y1="895.0" x2="980" y2="895.0" stroke="#dee2e6" stroke-width="0.5"/>
<text x="84" y="899.0" text-anchor="end" font-size="11" fill="#6c757d">965.0</text>
<line x1="90" y1="859.0" x2="980" y2="859.0" stroke="#dee2e6" stroke-width="0.5"/>
<text x="84" y="863.0" text-anchor="end" font-size="11" fill="#6c757d">966.0</text>
<line x1="90" y1="823.0" x2="980" y2="823.0" stroke="#dee2e6" stroke-width="0.5"/>
<text x="84" y="827.0" text-anchor="end" font-size="11" fill="#6c757d">967.0</text>
<line x1="90" y1="787.0" x2="980" y2="787.0" stroke="#dee2e6" stroke-width="0.5"/>
<text x="84" y="791.0" text-anchor="end" font-size="11" fill="#6c757d">968.0</text>
<line x1="90" y1="751.0" x2="980" y2="751.0" stroke="#dee2e6" stroke-width="0.5"/>
<text x="84" y="755.0" text-anchor="end" font-size="11" fill="#6c757d">969.0</text>
<line x1="90" y1="715.0" x2="980" y2="715.0" stroke="#dee2e6" stroke-width="0.5"/>
<text x="84" y="719.0" text-anchor="end" font-size="11" fill="#6c757d">970.0 hPa</text>
<line x1="90.0" y1="715" x2="90.0" y2="895" stroke="#dee2e6" stroke-width="0.5" stroke-dasharray="4,4"/>
<text x="90.0" y="907" text-anchor="middle" font-size="8" fill="#6c757d">09.04.2026</text>
<text x="90.0" y="917" text-anchor="middle" font-size="8" fill="#6c757d">22:00</text>
<line x1="200.6" y1="715" x2="200.6" y2="895" stroke="#dee2e6" stroke-width="0.5" stroke-dasharray="4,4"/>
<text x="200.6" y="907" text-anchor="middle" font-size="8" fill="#6c757d">10.04.2026</text>
<text x="200.6" y="917" text-anchor="middle" font-size="8" fill="#6c757d">02:30</text>
<line x1="311.2" y1="715" x2="311.2" y2="895" stroke="#dee2e6" stroke-width="0.5" stroke-dasharray="4,4"/>
<text x="311.2" y="910" text-anchor="middle" font-size="9" fill="#6c757d">06:10</text>
<line x1="421.9" y1="715" x2="421.9" y2="895" stroke="#dee2e6" stroke-width="0.5" stroke-dasharray="4,4"/>
<text x="421.9" y="910" text-anchor="middle" font-size="9" fill="#6c757d">09:50</text>
<line x1="532.5" y1="715" x2="532.5" y2="895" stroke="#dee2e6" stroke-width="0.5" stroke-dasharray="4,4"/>
<text x="532.5" y="910" text-anchor="middle" font-size="9" fill="#6c757d">13:30</text>
<line x1="643.1" y1="715" x2="643.1" y2="895" stroke="#dee2e6" stroke-width="0.5" stroke-dasharray="4,4"/>
<text x="643.1" y="910" text-anchor="middle" font-size="9" fill="#6c757d">17:10</text>
<line x1="753.7" y1="715" x2="753.7" y2="895" stroke="#dee2e6" stroke-width="0.5" stroke-dasharray="4,4"/>
<text x="753.7" y="910" text-anchor="middle" font-size="9" fill="#6c757d">20:50</text>
<line x1="864.4" y1="715" x2="864.4" y2="895" stroke="#dee2e6" stroke-width="0.5" stroke-dasharray="4,4"/>
<text x="864.4" y="907" text-anchor="middle" font-size="8" fill="#6c757d">11.04.2026</text>
<text x="864.4" y="917" text-anchor="middle" font-size="8" fill="#6c757d">00:30</text>
<line x1="975.0" y1="715" x2="975.0" y2="895" stroke="#dee2e6" stroke-width="0.5" stroke-dasharray="4,4"/>
<text x="975.0" y="910" text-anchor="middle" font-size="9" fill="#6c757d">05:00</text>
<path d="M90.0,761.8 L95.0,761.8 L100.1,761.8 L105.1,761.8 L110.1,761.8 L115.1,761.8 L120.2,761.8 L125.2,761.8 L130.2,758.2 L135.3,758.2 L140.3,758.2 L145.3,758.2 L150.3,761.8 L155.4,758.2 L160.4,765.4 L165.4,769.0 L170.5,769.0 L175.5,769.0 L180.5,779.8 L185.5,776.2 L190.6,776.2 L195.6,776.2 L200.6,776.2 L205.6,776.2 L210.7,776.2 L215.7,779.8 L220.7,776.2 L225.8,779.8 L230.8,779.8 L235.8,776.2 L240.8,779.8 L245.9,779.8 L250.9,783.4 L255.9,776.2 L261.0,776.2 L266.0,772.6 L271.0,769.0 L276.0,769.0 L281.1,772.6 L286.1,769.0 L291.1,769.0 L296.2,779.8 L301.2,776.2 L306.2,769.0 L311.2,776.2 L316.3,772.6 L321.3,772.6 L326.3,776.2 L331.4,769.0 L336.4,765.4 L341.4,765.4 L346.4,769.0 L351.5,772.6 L356.5,772.6 L361.5,769.0 L366.6,769.0 L371.6,765.4 L376.6,765.4 L381.6,761.8 L386.7,754.6 L391.7,754.6 L396.7,751.0 L401.8,747.4 L406.8,747.4 L411.8,751.0 L416.8,754.6 L421.9,754.6 L426.9,751.0 L431.9,747.4 L436.9,743.8 L442.0,743.8 L447.0,743.8 L452.0,743.8 L457.1,740.2 L462.1,740.2 L467.1,751.0 L472.1,751.0 L477.2,751.0 L482.2,747.4 L487.2,751.0 L492.3,747.4 L497.3,747.4 L502.3,747.4 L507.3,743.8 L512.4,743.8 L517.4,747.4 L522.4,747.4 L527.5,751.0 L532.5,754.6 L537.5,754.6 L542.5,758.2 L547.6,761.8 L552.6,761.8 L557.6,761.8 L562.7,761.8 L567.7,761.8 L572.7,758.2 L577.7,758.2 L582.8,761.8 L587.8,761.8 L592.8,761.8 L597.9,765.4 L602.9,765.4 L607.9,769.0 L612.9,769.0 L618.0,772.6 L623.0,776.2 L628.0,776.2 L633.1,772.6 L638.1,772.6 L643.1,772.6 L648.1,772.6 L653.2,772.6 L658.2,772.6 L663.2,776.2 L668.2,783.4 L673.3,787.0 L678.3,787.0 L683.3,783.4 L688.4,779.8 L693.4,779.8 L698.4,783.4 L703.4,787.0 L708.5,783.4 L713.5,779.8 L718.5,779.8 L723.6,783.4 L728.6,787.0 L733.6,790.6 L738.6,797.8 L743.7,797.8 L748.7,797.8 L753.7,797.8 L758.8,797.8 L763.8,797.8 L768.8,797.8 L773.8,801.4 L778.9,805.0 L783.9,808.6 L788.9,808.6 L794.0,808.6 L799.0,808.6 L804.0,805.0 L809.0,805.0 L814.1,805.0 L819.1,805.0 L824.1,808.6 L829.2,808.6 L834.2,812.2 L839.2,812.2 L844.2,815.8 L849.3,815.8 L854.3,819.4 L859.3,819.4 L864.4,823.0 L869.4,826.6 L874.4,826.6 L879.4,830.2 L884.5,833.8 L889.5,833.8 L894.5,837.4 L899.5,841.0 L904.6,844.6 L909.6,844.6 L914.6,844.6 L919.7,848.2 L924.7,848.2 L929.7,859.0 L934.7,855.4 L939.8,855.4 L944.8,859.0 L949.8,859.0 L954.9,859.0 L959.9,862.6 L964.9,862.6 L969.9,862.6 L975.0,859.0 L980.0,859.0" fill="none" stroke="#6f42c1" stroke-width="1.5"/><rect x="95" y="725" width="14" height="4" fill="#6f42c1"/>
<text x="113" y="729" font-size="10" fill="#212529">Luftdruck (T)</text>
<text x="500" y="939" text-anchor="middle" font-size="9" fill="#6c757d">Quellen: Tiefenbrunnen (T) + Mythenquai (M) — Wasserschutzpolizei Zürich (tecdottir.metaodi.ch) · pegelstand CLI</text>
</svg>
