<svg xmlns="http://www.w3.org/2000/svg" viewBox="0 0 1000 600" width="1000" height="600" style="font-family:-apple-system,BlinkMacSystemFont,Segoe UI,Roboto,sans-serif;background:#ffffff">
<text x="500" y="24" text-anchor="middle" font-size="16" font-weight="bold" fill="#212529">Zürichsee — 05.04.2026 bis 10.04.2026</text>
<text x="70" y="38" font-size="12" font-weight="600" fill="#212529">Temperatur</text>
<line x1="70" y1="290.0" x2="980" y2="290.0" stroke="#dee2e6" stroke-width="0.5"/>
<text x="64" y="294.0" text-anchor="end" font-size="11" fill="#6c757d">4.0</text>
<line x1="70" y1="240.0" x2="980" y2="240.0" stroke="#dee2e6" stroke-width="0.5"/>
<text x="64" y="244.0" text-anchor="end" font-size="11" fill="#6c757d">8.4</text>
<line x1="70" y1="190.0" x2="980" y2="190.0" stroke="#dee2e6" stroke-width="0.5"/>
<text x="64" y="194.0" text-anchor="end" font-size="11" fill="#6c757d">12.8</text>
<line x1="70" y1="140.0" x2="980" y2="140.0" stroke="#dee2e6" stroke-width="0.5"/>
<text x="64" y="144.0" text-anchor="end" font-size="11" fill="#6c757d">17.2</text>
<line x1="70" y1="90.0" x2="980" y2="90.0" stroke="#dee2e6" stroke-width="0.5"/>
<text x="64" y="94.0" text-anchor="end" font-size="11" fill="#6c757d">21.6</text>
<line x1="70" y1="40.0" x2="980" y2="40.0" stroke="#dee2e6" stroke-width="0.5"/>
<text x="64" y="44.0" text-anchor="end" font-size="11" fill="#6c757d">26.0 °C</text>
<line x1="70.0" y1="40" x2="70.0" y2="290" stroke="#dee2e6" stroke-width="0.5" stroke-dasharray="4,4"/>
<text x="70.0" y="305" text-anchor="middle" font-size="9" fill="#6c757d">04.04.2026 22:00</text>
<line x1="126.0" y1="40" x2="126.0" y2="290" stroke="#dee2e6" stroke-width="0.5" stroke-dasharray="4,4"/>
<text x="126.0" y="305" text-anchor="middle" font-size="9" fill="#6c757d">05.04.2026 06:20</text>
<line x1="182.0" y1="40" x2="182.0" y2="290" stroke="#dee2e6" stroke-width="0.5" stroke-dasharray="4,4"/>
<text x="182.0" y="305" text-anchor="middle" font-size="9" fill="#6c757d">13:40</text>
<line x1="238.0" y1="40" x2="238.0" y2="290" stroke="#dee2e6" stroke-width="0.5" stroke-dasharray="4,4"/>
<text x="238.0" y="305" text-anchor="middle" font-size="9" fill="#6c757d">21:00</text>
<line x1="294.0" y1="40" x2="294.0" y2="290" stroke="#dee2e6" stroke-width="0.5" stroke-dasharray="4,4"/>
<text x="294.0" y="305" text-anchor="middle" font-size="9" fill="#6c757d">06.04.2026 06:10</text>
<line x1="350.0" y1="40" x2="350.0" y2="290" stroke="#dee2e6" stroke-width="0.5" stroke-dasharray="4,4"/>
<text x="350.0" y="305" text-anchor="middle" font-size="9" fill="#6c757d">13:30</text>
<line x1="406.0" y1="40" x2="406.0" y2="290" stroke="#dee2e6" stroke-width="0.5" stroke-dasharray="4,4"/>
<text x="406.0" y="305" text-anchor="middle" font-size="9" fill="#6c757d">20:50</text>
<line x1="462.0" y1="40" x2="462.0" y2="290" stroke="#dee2e6" stroke-width="0.5" stroke-dasharray="4,4"/>
<text x="462.0" y="305" text-anchor="middle" font-size="9" fill="#6c757d">07.04.2026 05:10</text>
<line x1="518.0" y1="40" x2="518.0" y2="290" stroke="#dee2e6" stroke-width="0.5" stroke-dasharray="4,4"/>
<text x="518.0" y="305" text-anchor="middle" font-size="9" fill="#6c757d">12:30</text>
<line x1="574.0" y1="40" x2="574.0" y2="290" stroke="#dee2e6" stroke-width="0.5" stroke-dasharray="4,4"/>
<text x="574.0" y="305" text-anchor="middle" font-size="9" fill="#6c757d">19:50</text>
<line x1="630.0" y1="40" x2="630.0" y2="290" stroke="#dee2e6" stroke-width="0.5" stroke-dasharray="4,4"/>
<text x="630.0" y="305" text-anchor="middle" font-size="9" fill="#6c757d">08.04.2026 05:50</text>
<line x1="686.0" y1="40" x2="686.0" y2="290" stroke="#dee2e6" stroke-width="0.5" stroke-dasharray="4,4"/>
<text x="686.0" y="305" text-anchor="middle" font-size="9" fill="#6c757d">13:10</text>
<line x1="742.0" y1="40" x2="742.0" y2="290" stroke="#dee2e6" stroke-width="0.5" stroke-dasharray="4,4"/>
<text x="742.0" y="305" text-anchor="middle" font-size="9" fill="#6c757d">20:30</text>
<line x1="798.0" y1="40" x2="798.0" y2="290" stroke="#dee2e6" stroke-width="0.5" stroke-dasharray="4,4"/>
<text x="798.0" y="305" text-anchor="middle" font-size="9" fill="#6c757d">09.04.2026 05:40</text>
<line x1="854.0" y1="40" x2="854.0" y2="290" stroke="#dee2e6" stroke-width="0.5" stroke-dasharray="4,4"/>
<text x="854.0" y="305" text-anchor="middle" font-size="9" fill="#6c757d">13:00</text>
<line x1="910.0" y1="40" x2="910.0" y2="290" stroke="#dee2e6" stroke-width="0.5" stroke-dasharray="4,4"/>
<text x="910.0" y="305" text-anchor="middle" font-size="9" fill="#6c757d">20:20</text>
<line x1="966.0" y1="40" x2="966.0" y2="290" stroke="#dee2e6" stroke-width="0.5" stroke-dasharray="4,4"/>
<text x="966.0" y="305" text-anchor="middle" font-size="9" fill="#6c757d">10.04.2026 04:30</text>
<line x1="980.0" y1="40" x2="980.0" y2="290" stroke="#dee2e6" stroke-width="0.5" stroke-dasharray="4,4"/>
<text x="980.0" y="305" text-anchor="middle" font-size="9" fill="#6c757d">06:20</text>
<path d="M70.0,236.6 L71.3,236.6 L72.5,236.6 L73.8,236.6 L75.1,236.6 L76.4,236.6 L77.6,236.6 L78.9,236.6 L80.2,236.6 L81.5,236.6 L82.7,236.6 L84.0,236.6 L85.3,236.6 L86.5,236.6 L87.8,236.6 L89.1,236.6 L90.4,236.6 L91.6,236.6 L92.9,236.6 L94.2,236.6 L95.5,237.7 L96.7,237.7 L98.0,237.7 L99.3,237.7 L100.5,237.7 L101.8,238.9 L103.1,238.9 L104.4,238.9 L105.6,238.9 L106.9,238.9 L108.2,238.9 L109.5,238.9 L110.7,238.9 L112.0,238.9 L113.3,238.9 L114.5,238.9 L115.8,238.9 L117.1,238.9 L118.4,238.9 L119.6,238.9 L120.9,238.9 L122.2,238.9 L123.5,238.9 L124.7,238.9 L126.0,238.9 L127.3,238.9 L128.5,238.9 L129.8,238.9 L131.1,238.9 L132.4,238.9 L133.6,238.9 L134.9,238.9 L136.2,238.9 L137.5,238.9 L138.7,238.9 L140.0,238.9 L141.3,238.9 L142.5,238.9 L143.8,238.9 L145.1,238.9 L146.4,237.7 L147.6,237.7 L148.9,237.7 L150.2,237.7 L151.5,237.7 L152.7,236.6 L154.0,236.6 L155.3,236.6 L156.5,237.7 L157.8,236.6 L159.1,237.7 L160.4,237.7 L161.6,237.7 L162.9,237.7 L164.2,237.7 L165.5,235.5 L166.7,235.5 L168.0,235.5 L169.3,235.5 L170.5,235.5 L171.8,235.5 L173.1,234.3 L174.4,232.0 L175.6,232.0 L176.9,232.0 L178.2,233.2 L179.5,233.2 L180.7,230.9 L182.0,230.9 L183.3,229.8 L184.5,228.6 L185.8,228.6 L187.1,228.6 L188.4,228.6 L189.6,228.6 L190.9,228.6 L192.2,228.6 L193.5,228.6 L194.7,227.5 L196.0,228.6 L197.3,228.6 L198.5,227.5 L199.8,228.6 L201.1,228.6 L202.4,228.6 L203.6,228.6 L204.9,228.6 L206.2,228.6 L207.5,228.6 L208.7,228.6 L210.0,228.6 L211.3,229.8 L212.5,229.8 L213.8,229.8 L215.1,229.8 L216.4,229.8 L217.6,230.9 L218.9,229.8 L220.2,229.8 L221.5,229.8 L222.7,230.9 L224.0,230.9 L225.3,232.0 L226.5,233.2 L227.8,233.2 L229.1,233.2 L230.4,233.2 L231.6,233.2 L232.9,234.3 L234.2,234.3 L235.5,234.3 L236.7,234.3 L238.0,235.5 L239.3,235.5 L240.5,235.5 L241.8,236.6 L243.1,235.5 L244.4,235.5 L245.6,236.6 L246.9,236.6 L248.2,236.6 L249.5,236.6 L250.7,236.6 L252.0,237.7 L253.3,237.7 L254.5,236.6 L255.8,236.6 L257.1,236.6 L258.4,236.6 L259.6,235.5 L260.9,236.6 L262.2,236.6 L263.5,236.6 L264.7,236.6 L266.0,236.6 L267.3,236.6 L268.5,237.7 L269.8,236.6 L271.1,237.7 L272.4,237.7 L273.6,237.7 L274.9,236.6 L276.2,236.6 L277.5,235.5 L278.7,236.6 L280.0,236.6 L281.3,235.5 L282.5,235.5 L283.8,235.5 L285.1,235.5 L286.4,235.5 L287.6,235.5 L288.9,236.6 L290.2,236.6 L291.5,236.6 L292.7,236.6 L294.0,236.6 L295.3,236.6 L296.5,235.5 L297.8,235.5 L299.1,235.5 L300.4,235.5 L301.6,235.5 L302.9,235.5 L304.2,234.3 L305.5,234.3 L306.7,233.2 L308.0,233.2 L309.3,233.2 L310.5,232.0 L311.8,232.0 L313.1,232.0 L314.4,232.0 L315.6,232.0 L316.9,232.0 L318.2,230.9 L319.5,230.9 L320.7,229.8 L322.0,230.9 L323.3,230.9 L324.5,230.9 L325.8,230.9 L327.1,230.9 L328.4,230.9 L329.6,230.9 L330.9,232.0 L332.2,230.9 L333.5,229.8 L334.7,228.6 L336.0,225.2 L337.3,220.7 L338.5,217.3 L339.8,216.1 L341.1,216.1 L342.4,216.1 L343.6,217.3 L344.9,217.3 L346.2,217.3 L347.5,213.9 L348.7,213.9 L350.0,215.0 L351.3,213.9 L352.5,215.0 L353.8,215.0 L355.1,215.0 L356.4,213.9 L357.6,215.0 L358.9,215.0 L360.2,215.0 L361.5,215.0 L362.7,215.0 L364.0,213.9 L365.3,215.0 L366.5,215.0 L367.8,215.0 L369.1,216.1 L370.4,216.1 L371.6,216.1 L372.9,215.0 L374.2,209.3 L375.5,209.3 L376.7,209.3 L378.0,210.5 L379.3,212.7 L380.5,213.9 L381.8,211.6 L383.1,212.7 L384.4,211.6 L385.6,211.6 L386.9,212.7 L388.2,215.0 L389.5,215.0 L390.7,215.0 L392.0,215.0 L393.3,215.0 L394.5,212.7 L395.8,215.0 L397.1,212.7 L398.4,212.7 L399.6,212.7 L400.9,212.7 L402.2,213.9 L403.5,213.9 L404.7,212.7 L406.0,212.7 L407.3,212.7 L408.5,212.7 L409.8,211.6 L411.1,211.6 L412.4,211.6 L413.6,211.6 L414.9,211.6 L416.2,210.5 L417.5,210.5 L418.7,209.3 L420.0,208.2 L421.3,208.2 L422.5,208.2 L423.8,208.2 L425.1,208.2 L426.4,208.2 L427.6,208.2 L428.9,208.2 L430.2,208.2 L431.5,208.2 L432.7,208.2 L434.0,208.2 L435.3,208.2 L436.5,208.2 L437.8,209.3 L439.1,209.3 L440.4,209.3 L441.6,208.2 L442.9,208.2 L444.2,208.2 L445.5,208.2 L446.7,208.2 L448.0,208.2 L449.3,208.2 L450.5,208.2 L451.8,208.2 L453.1,208.2 L454.4,208.2 L455.6,209.3 L456.9,210.5 L458.2,215.0 L459.5,217.3 L460.7,217.3 L462.0,218.4 L463.3,219.5 L464.5,219.5 L465.8,219.5 L467.1,219.5 L468.4,217.3 L469.6,217.3 L470.9,218.4 L472.2,219.5 L473.5,218.4 L474.7,218.4 L476.0,220.7 L477.3,220.7 L478.5,220.7 L479.8,221.8 L481.1,221.8 L482.4,221.8 L483.6,220.7 L484.9,223.0 L486.2,221.8 L487.5,221.8 L488.7,218.4 L490.0,216.1 L491.3,218.4 L492.5,218.4 L493.8,216.1 L495.1,217.3 L496.4,212.7 L497.6,215.0 L498.9,219.5 L500.2,218.4 L501.5,216.1 L502.7,216.1 L504.0,212.7 L505.3,209.3 L506.5,203.6 L507.8,200.2 L509.1,199.1 L510.4,198.0 L511.6,199.1 L512.9,199.1 L514.2,200.2 L515.5,200.2 L516.7,200.2 L518.0,200.2 L519.3,199.1 L520.5,199.1 L521.8,199.1 L523.1,199.1 L524.4,201.4 L525.6,202.5 L526.9,203.6 L528.2,201.4 L529.5,200.2 L530.7,200.2 L532.0,200.2 L533.3,199.1 L534.5,198.0 L535.8,198.0 L537.1,194.5 L538.4,194.5 L539.6,194.5 L540.9,194.5 L542.2,193.4 L543.5,193.4 L544.7,192.3 L546.0,192.3 L547.3,192.3 L548.5,191.1 L549.8,190.0 L551.1,190.0 L552.4,191.1 L553.6,192.3 L554.9,192.3 L556.2,192.3 L557.5,192.3 L558.7,193.4 L560.0,194.5 L561.3,194.5 L562.5,194.5 L563.8,195.7 L565.1,194.5 L566.4,195.7 L567.6,196.8 L568.9,194.5 L570.2,192.3 L571.5,198.0 L572.7,199.1 L574.0,198.0 L575.3,198.0 L576.5,196.8 L577.8,195.7 L579.1,196.8 L580.4,194.5 L581.6,192.3 L582.9,192.3 L584.2,193.4 L585.5,194.5 L586.7,193.4 L588.0,191.1 L589.3,191.1 L590.5,191.1 L591.8,191.1 L593.1,190.0 L594.4,190.0 L595.6,190.0 L596.9,188.9 L598.2,190.0 L599.5,190.0 L600.7,190.0 L602.0,188.9 L603.3,188.9 L604.5,190.0 L605.8,190.0 L607.1,190.0 L608.4,190.0 L609.6,190.0 L610.9,190.0 L612.2,190.0 L613.5,190.0 L614.7,190.0 L616.0,190.0 L617.3,190.0 L618.5,191.1 L619.8,191.1 L621.1,191.1 L622.4,191.1 L623.6,193.4 L624.9,193.4 L626.2,193.4 L627.5,193.4 L628.7,193.4 L630.0,193.4 L631.3,193.4 L632.5,193.4 L633.8,193.4 L635.1,193.4 L636.4,193.4 L637.6,193.4 L638.9,193.4 L640.2,193.4 L641.5,193.4 L642.7,192.3 L644.0,192.3 L645.3,192.3 L646.5,192.3 L647.8,192.3 L649.1,192.3 L650.4,191.1 L651.6,191.1 L652.9,191.1 L654.2,191.1 L655.5,191.1 L656.7,190.0 L658.0,191.1 L659.3,191.1 L660.5,190.0 L661.8,190.0 L663.1,190.0 L664.4,190.0 L665.6,191.1 L666.9,192.3 L668.2,194.5 L669.5,191.1 L670.7,192.3 L672.0,192.3 L673.3,195.7 L674.5,196.8 L675.8,194.5 L677.1,195.7 L678.4,193.4 L679.6,193.4 L680.9,195.7 L682.2,194.5 L683.5,196.8 L684.7,198.0 L686.0,201.4 L687.3,201.4 L688.5,200.2 L689.8,200.2 L691.1,200.2 L692.4,201.4 L693.6,202.5 L694.9,203.6 L696.2,204.8 L697.5,207.0 L698.7,205.9 L700.0,205.9 L701.3,208.2 L702.5,211.6 L703.8,209.3 L705.1,209.3 L706.4,211.6 L707.6,215.0 L708.9,217.3 L710.2,215.0 L711.5,213.9 L712.7,212.7 L714.0,215.0 L715.3,216.1 L716.5,218.4 L717.8,221.8 L719.1,221.8 L720.4,223.0 L721.6,223.0 L722.9,224.1 L724.2,224.1 L725.5,227.5 L726.7,227.5 L728.0,225.2 L729.3,226.4 L730.5,223.0 L731.8,224.1 L733.1,221.8 L734.4,223.0 L735.6,225.2 L736.9,224.1 L738.2,223.0 L739.5,223.0 L740.7,224.1 L742.0,225.2 L743.3,225.2 L744.5,225.2 L745.8,224.1 L747.1,224.1 L748.4,223.0 L749.6,221.8 L750.9,218.4 L752.2,216.1 L753.5,216.1 L754.7,216.1 L756.0,216.1 L757.3,215.0 L758.5,215.0 L759.8,212.7 L761.1,209.3 L762.4,208.2 L763.6,208.2 L764.9,208.2 L766.2,208.2 L767.5,208.2 L768.7,209.3 L770.0,210.5 L771.3,211.6 L772.5,209.3 L773.8,209.3 L775.1,211.6 L776.4,211.6 L777.6,212.7 L778.9,211.6 L780.2,212.7 L781.5,216.1 L782.7,223.0 L784.0,224.1 L785.3,221.8 L786.5,220.7 L787.8,224.1 L789.1,227.5 L790.4,227.5 L791.6,229.8 L792.9,230.9 L794.2,232.0 L795.5,232.0 L796.7,232.0 L798.0,232.0 L799.3,230.9 L800.5,232.0 L801.8,230.9 L803.1,230.9 L804.4,230.9 L805.6,230.9 L806.9,232.0 L808.2,230.9 L809.5,230.9 L810.7,230.9 L812.0,230.9 L813.3,230.9 L814.5,230.9 L815.8,229.8 L817.1,228.6 L818.4,221.8 L819.6,216.1 L820.9,215.0 L822.2,212.7 L823.5,211.6 L824.7,216.1 L826.0,212.7 L827.3,210.5 L828.5,210.5 L829.8,212.7 L831.1,210.5 L832.4,213.9 L833.6,215.0 L834.9,210.5 L836.2,210.5 L837.5,209.3 L838.7,212.7 L840.0,215.0 L841.3,215.0 L842.5,216.1 L843.8,211.6 L845.1,212.7 L846.4,216.1 L847.6,218.4 L848.9,217.3 L850.2,215.0 L851.5,215.0 L852.7,213.9 L854.0,208.2 L855.3,208.2 L856.5,215.0 L857.8,216.1 L859.1,209.3 L860.4,207.0 L861.6,210.5 L862.9,223.0 L864.2,225.2 L865.5,210.5 L866.7,201.4 L868.0,194.5 L869.3,198.0 L870.5,191.1 L871.8,198.0 L873.1,192.3 L874.4,188.9 L875.6,202.5 L876.9,215.0 L878.2,202.5 L879.5,188.9 L880.7,193.4 L882.0,184.3 L883.3,177.5 L884.5,178.6 L885.8,180.9 L887.1,180.9 L888.4,176.4 L889.6,175.2 L890.9,177.5 L892.2,182.0 L893.5,176.4 L894.7,177.5 L896.0,175.2 L897.3,177.5 L898.5,178.6 L899.8,185.5 L901.1,192.3 L902.4,187.7 L903.6,185.5 L904.9,187.7 L906.2,190.0 L907.5,192.3 L908.7,196.8 L910.0,198.0 L911.3,211.6 L912.5,216.1 L913.8,217.3 L915.1,213.9 L916.4,204.8 L917.6,199.1 L918.9,202.5 L920.2,213.9 L921.5,220.7 L922.7,217.3 L924.0,216.1 L925.3,220.7 L926.5,221.8 L927.8,221.8 L929.1,221.8 L930.4,224.1 L931.6,224.1 L932.9,224.1 L934.2,225.2 L935.5,226.4 L936.7,225.2 L938.0,226.4 L939.3,227.5 L940.5,228.6 L941.8,228.6 L943.1,226.4 L944.4,225.2 L945.6,217.3 L946.9,217.3 L948.2,212.7 L949.5,203.6 L950.7,204.8 L952.0,207.0 L953.3,207.0 L954.5,205.9 L955.8,202.5 L957.1,202.5 L958.4,207.0 L959.6,205.9 L960.9,200.2 L962.2,201.4 L963.5,201.4 L964.7,199.1 L966.0,199.1 L967.3,199.1 L968.5,203.6 L969.8,200.2 L971.1,200.2 L972.4,201.4 L973.6,204.8 L974.9,208.2 L976.2,202.5 L977.5,204.8 L978.7,199.1 L980.0,199.1 L980.0,290.0 L70.0,290.0 Z" fill="#0d6efd" opacity="0.15" stroke="none"/><path d="M70.0,236.6 L71.3,236.6 L72.5,236.6 L73.8,236.6 L75.1,236.6 L76.4,236.6 L77.6,236.6 L78.9,236.6 L80.2,236.6 L81.5,236.6 L82.7,236.6 L84.0,236.6 L85.3,236.6 L86.5,236.6 L87.8,236.6 L89.1,236.6 L90.4,236.6 L91.6,236.6 L92.9,236.6 L94.2,236.6 L95.5,237.7 L96.7,237.7 L98.0,237.7 L99.3,237.7 L100.5,237.7 L101.8,238.9 L103.1,238.9 L104.4,238.9 L105.6,238.9 L106.9,238.9 L108.2,238.9 L109.5,238.9 L110.7,238.9 L112.0,238.9 L113.3,238.9 L114.5,238.9 L115.8,238.9 L117.1,238.9 L118.4,238.9 L119.6,238.9 L120.9,238.9 L122.2,238.9 L123.5,238.9 L124.7,238.9 L126.0,238.9 L127.3,238.9 L128.5,238.9 L129.8,238.9 L131.1,238.9 L132.4,238.9 L133.6,238.9 L134.9,238.9 L136.2,238.9 L137.5,238.9 L138.7,238.9 L140.0,238.9 L141.3,238.9 L142.5,238.9 L143.8,238.9 L145.1,238.9 L146.4,237.7 L147.6,237.7 L148.9,237.7 L150.2,237.7 L151.5,237.7 L152.7,236.6 L154.0,236.6 L155.3,236.6 L156.5,237.7 L157.8,236.6 L159.1,237.7 L160.4,237.7 L161.6,237.7 L162.9,237.7 L164.2,237.7 L165.5,235.5 L166.7,235.5 L168.0,235.5 L169.3,235.5 L170.5,235.5 L171.8,235.5 L173.1,234.3 L174.4,232.0 L175.6,232.0 L176.9,232.0 L178.2,233.2 L179.5,233.2 L180.7,230.9 L182.0,230.9 L183.3,229.8 L184.5,228.6 L185.8,228.6 L187.1,228.6 L188.4,228.6 L189.6,228.6 L190.9,228.6 L192.2,228.6 L193.5,228.6 L194.7,227.5 L196.0,228.6 L197.3,228.6 L198.5,227.5 L199.8,228.6 L201.1,228.6 L202.4,228.6 L203.6,228.6 L204.9,228.6 L206.2,228.6 L207.5,228.6 L208.7,228.6 L210.0,228.6 L211.3,229.8 L212.5,229.8 L213.8,229.8 L215.1,229.8 L216.4,229.8 L217.6,230.9 L218.9,229.8 L220.2,229.8 L221.5,229.8 L222.7,230.9 L224.0,230.9 L225.3,232.0 L226.5,233.2 L227.8,233.2 L229.1,233.2 L230.4,233.2 L231.6,233.2 L232.9,234.3 L234.2,234.3 L235.5,234.3 L236.7,234.3 L238.0,235.5 L239.3,235.5 L240.5,235.5 L241.8,236.6 L243.1,235.5 L244.4,235.5 L245.6,236.6 L246.9,236.6 L248.2,236.6 L249.5,236.6 L250.7,236.6 L252.0,237.7 L253.3,237.7 L254.5,236.6 L255.8,236.6 L257.1,236.6 L258.4,236.6 L259.6,235.5 L260.9,236.6 L262.2,236.6 L263.5,236.6 L264.7,236.6 L266.0,236.6 L267.3,236.6 L268.5,237.7 L269.8,236.6 L271.1,237.7 L272.4,237.7 L273.6,237.7 L274.9,236.6 L276.2,236.6 L277.5,235.5 L278.7,236.6 L280.0,236.6 L281.3,235.5 L282.5,235.5 L283.8,235.5 L285.1,235.5 L286.4,235.5 L287.6,235.5 L288.9,236.6 L290.2,236.6 L291.5,236.6 L292.7,236.6 L294.0,236.6 L295.3,236.6 L296.5,235.5 L297.8,235.5 L299.1,235.5 L300.4,235.5 L301.6,235.5 L302.9,235.5 L304.2,234.3 L305.5,234.3 L306.7,233.2 L308.0,233.2 L309.3,233.2 L310.5,232.0 L311.8,232.0 L313.1,232.0 L314.4,232.0 L315.6,232.0 L316.9,232.0 L318.2,230.9 L319.5,230.9 L320.7,229.8 L322.0,230.9 L323.3,230.9 L324.5,230.9 L325.8,230.9 L327.1,230.9 L328.4,230.9 L329.6,230.9 L330.9,232.0 L332.2,230.9 L333.5,229.8 L334.7,228.6 L336.0,225.2 L337.3,220.7 L338.5,217.3 L339.8,216.1 L341.1,216.1 L342.4,216.1 L343.6,217.3 L344.9,217.3 L346.2,217.3 L347.5,213.9 L348.7,213.9 L350.0,215.0 L351.3,213.9 L352.5,215.0 L353.8,215.0 L355.1,215.0 L356.4,213.9 L357.6,215.0 L358.9,215.0 L360.2,215.0 L361.5,215.0 L362.7,215.0 L364.0,213.9 L365.3,215.0 L366.5,215.0 L367.8,215.0 L369.1,216.1 L370.4,216.1 L371.6,216.1 L372.9,215.0 L374.2,209.3 L375.5,209.3 L376.7,209.3 L378.0,210.5 L379.3,212.7 L380.5,213.9 L381.8,211.6 L383.1,212.7 L384.4,211.6 L385.6,211.6 L386.9,212.7 L388.2,215.0 L389.5,215.0 L390.7,215.0 L392.0,215.0 L393.3,215.0 L394.5,212.7 L395.8,215.0 L397.1,212.7 L398.4,212.7 L399.6,212.7 L400.9,212.7 L402.2,213.9 L403.5,213.9 L404.7,212.7 L406.0,212.7 L407.3,212.7 L408.5,212.7 L409.8,211.6 L411.1,211.6 L412.4,211.6 L413.6,211.6 L414.9,211.6 L416.2,210.5 L417.5,210.5 L418.7,209.3 L420.0,208.2 L421.3,208.2 L422.5,208.2 L423.8,208.2 L425.1,208.2 L426.4,208.2 L427.6,208.2 L428.9,208.2 L430.2,208.2 L431.5,208.2 L432.7,208.2 L434.0,208.2 L435.3,208.2 L436.5,208.2 L437.8,209.3 L439.1,209.3 L440.4,209.3 L441.6,208.2 L442.9,208.2 L444.2,208.2 L445.5,208.2 L446.7,208.2 L448.0,208.2 L449.3,208.2 L450.5,208.2 L451.8,208.2 L453.1,208.2 L454.4,208.2 L455.6,209.3 L456.9,210.5 L458.2,215.0 L459.5,217.3 L460.7,217.3 L462.0,218.4 L463.3,219.5 L464.5,219.5 L465.8,219.5 L467.1,219.5 L468.4,217.3 L469.6,217.3 L470.9,218.4 L472.2,219.5 L473.5,218.4 L474.7,218.4 L476.0,220.7 L477.3,220.7 L478.5,220.7 L479.8,221.8 L481.1,221.8 L482.4,221.8 L483.6,220.7 L484.9,223.0 L486.2,221.8 L487.5,221.8 L488.7,218.4 L490.0,216.1 L491.3,218.4 L492.5,218.4 L493.8,216.1 L495.1,217.3 L496.4,212.7 L497.6,215.0 L498.9,219.5 L500.2,218.4 L501.5,216.1 L502.7,216.1 L504.0,212.7 L505.3,209.3 L506.5,203.6 L507.8,200.2 L509.1,199.1 L510.4,198.0 L511.6,199.1 L512.9,199.1 L514.2,200.2 L515.5,200.2 L516.7,200.2 L518.0,200.2 L519.3,199.1 L520.5,199.1 L521.8,199.1 L523.1,199.1 L524.4,201.4 L525.6,202.5 L526.9,203.6 L528.2,201.4 L529.5,200.2 L530.7,200.2 L532.0,200.2 L533.3,199.1 L534.5,198.0 L535.8,198.0 L537.1,194.5 L538.4,194.5 L539.6,194.5 L540.9,194.5 L542.2,193.4 L543.5,193.4 L544.7,192.3 L546.0,192.3 L547.3,192.3 L548.5,191.1 L549.8,190.0 L551.1,190.0 L552.4,191.1 L553.6,192.3 L554.9,192.3 L556.2,192.3 L557.5,192.3 L558.7,193.4 L560.0,194.5 L561.3,194.5 L562.5,194.5 L563.8,195.7 L565.1,194.5 L566.4,195.7 L567.6,196.8 L568.9,194.5 L570.2,192.3 L571.5,198.0 L572.7,199.1 L574.0,198.0 L575.3,198.0 L576.5,196.8 L577.8,195.7 L579.1,196.8 L580.4,194.5 L581.6,192.3 L582.9,192.3 L584.2,193.4 L585.5,194.5 L586.7,193.4 L588.0,191.1 L589.3,191.1 L590.5,191.1 L591.8,191.1 L593.1,190.0 L594.4,190.0 L595.6,190.0 L596.9,188.9 L598.2,190.0 L599.5,190.0 L600.7,190.0 L602.0,188.9 L603.3,188.9 L604.5,190.0 L605.8,190.0 L607.1,190.0 L608.4,190.0 L609.6,190.0 L610.9,190.0 L612.2,190.0 L613.5,190.0 L614.7,190.0 L616.0,190.0 L617.3,190.0 L618.5,191.1 L619.8,191.1 L621.1,191.1 L622.4,191.1 L623.6,193.4 L624.9,193.4 L626.2,193.4 L627.5,193.4 L628.7,193.4 L630.0,193.4 L631.3,193.4 L632.5,193.4 L633.8,193.4 L635.1,193.4 L636.4,193.4 L637.6,193.4 L638.9,193.4 L640.2,193.4 L641.5,193.4 L642.7,192.3 L644.0,192.3 L645.3,192.3 L646.5,192.3 L647.8,192.3 L649.1,192.3 L650.4,191.1 L651.6,191.1 L652.9,191.1 L654.2,191.1 L655.5,191.1 L656.7,190.0 L658.0,191.1 L659.3,191.1 L660.5,190.0 L661.8,190.0 L663.1,190.0 L664.4,190.0 L665.6,191.1 L666.9,192.3 L668.2,194.5 L669.5,191.1 L670.7,192.3 L672.0,192.3 L673.3,195.7 L674.5,196.8 L675.8,194.5 L677.1,195.7 L678.4,193.4 L679.6,193.4 L680.9,195.7 L682.2,194.5 L683.5,196.8 L684.7,198.0 L686.0,201.4 L687.3,201.4 L688.5,200.2 L689.8,200.2 L691.1,200.2 L692.4,201.4 L693.6,202.5 L694.9,203.6 L696.2,204.8 L697.5,207.0 L698.7,205.9 L700.0,205.9 L701.3,208.2 L702.5,211.6 L703.8,209.3 L705.1,209.3 L706.4,211.6 L707.6,215.0 L708.9,217.3 L710.2,215.0 L711.5,213.9 L712.7,212.7 L714.0,215.0 L715.3,216.1 L716.5,218.4 L717.8,221.8 L719.1,221.8 L720.4,223.0 L721.6,223.0 L722.9,224.1 L724.2,224.1 L725.5,227.5 L726.7,227.5 L728.0,225.2 L729.3,226.4 L730.5,223.0 L731.8,224.1 L733.1,221.8 L734.4,223.0 L735.6,225.2 L736.9,224.1 L738.2,223.0 L739.5,223.0 L740.7,224.1 L742.0,225.2 L743.3,225.2 L744.5,225.2 L745.8,224.1 L747.1,224.1 L748.4,223.0 L749.6,221.8 L750.9,218.4 L752.2,216.1 L753.5,216.1 L754.7,216.1 L756.0,216.1 L757.3,215.0 L758.5,215.0 L759.8,212.7 L761.1,209.3 L762.4,208.2 L763.6,208.2 L764.9,208.2 L766.2,208.2 L767.5,208.2 L768.7,209.3 L770.0,210.5 L771.3,211.6 L772.5,209.3 L773.8,209.3 L775.1,211.6 L776.4,211.6 L777.6,212.7 L778.9,211.6 L780.2,212.7 L781.5,216.1 L782.7,223.0 L784.0,224.1 L785.3,221.8 L786.5,220.7 L787.8,224.1 L789.1,227.5 L790.4,227.5 L791.6,229.8 L792.9,230.9 L794.2,232.0 L795.5,232.0 L796.7,232.0 L798.0,232.0 L799.3,230.9 L800.5,232.0 L801.8,230.9 L803.1,230.9 L804.4,230.9 L805.6,230.9 L806.9,232.0 L808.2,230.9 L809.5,230.9 L810.7,230.9 L812.0,230.9 L813.3,230.9 L814.5,230.9 L815.8,229.8 L817.1,228.6 L818.4,221.8 L819.6,216.1 L820.9,215.0 L822.2,212.7 L823.5,211.6 L824.7,216.1 L826.0,212.7 L827.3,210.5 L828.5,210.5 L829.8,212.7 L831.1,210.5 L832.4,213.9 L833.6,215.0 L834.9,210.5 L836.2,210.5 L837.5,209.3 L838.7,212.7 L840.0,215.0 L841.3,215.0 L842.5,216.1 L843.8,211.6 L845.1,212.7 L846.4,216.1 L847.6,218.4 L848.9,217.3 L850.2,215.0 L851.5,215.0 L852.7,213.9 L854.0,208.2 L855.3,208.2 L856.5,215.0 L857.8,216.1 L859.1,209.3 L860.4,207.0 L861.6,210.5 L862.9,223.0 L864.2,225.2 L865.5,210.5 L866.7,201.4 L868.0,194.5 L869.3,198.0 L870.5,191.1 L871.8,198.0 L873.1,192.3 L874.4,188.9 L875.6,202.5 L876.9,215.0 L878.2,202.5 L879.5,188.9 L880.7,193.4 L882.0,184.3 L883.3,177.5 L884.5,178.6 L885.8,180.9 L887.1,180.9 L888.4,176.4 L889.6,175.2 L890.9,177.5 L892.2,182.0 L893.5,176.4 L894.7,177.5 L896.0,175.2 L897.3,177.5 L898.5,178.6 L899.8,185.5 L901.1,192.3 L902.4,187.7 L903.6,185.5 L904.9,187.7 L906.2,190.0 L907.5,192.3 L908.7,196.8 L910.0,198.0 L911.3,211.6 L912.5,216.1 L913.8,217.3 L915.1,213.9 L916.4,204.8 L917.6,199.1 L918.9,202.5 L920.2,213.9 L921.5,220.7 L922.7,217.3 L924.0,216.1 L925.3,220.7 L926.5,221.8 L927.8,221.8 L929.1,221.8 L930.4,224.1 L931.6,224.1 L932.9,224.1 L934.2,225.2 L935.5,226.4 L936.7,225.2 L938.0,226.4 L939.3,227.5 L940.5,228.6 L941.8,228.6 L943.1,226.4 L944.4,225.2 L945.6,217.3 L946.9,217.3 L948.2,212.7 L949.5,203.6 L950.7,204.8 L952.0,207.0 L953.3,207.0 L954.5,205.9 L955.8,202.5 L957.1,202.5 L958.4,207.0 L959.6,205.9 L960.9,200.2 L962.2,201.4 L963.5,201.4 L964.7,199.1 L966.0,199.1 L967.3,199.1 L968.5,203.6 L969.8,200.2 L971.1,200.2 L972.4,201.4 L973.6,204.8 L974.9,208.2 L976.2,202.5 L977.5,204.8 L978.7,199.1 L980.0,199.1" fill="none" stroke="#0d6efd" stroke-width="1.5"/><path d="M70.0,230.9 L71.3,230.9 L72.5,232.0 L73.8,233.2 L75.1,234.3 L76.4,235.5 L77.6,236.6 L78.9,237.7 L80.2,237.7 L81.5,236.6 L82.7,234.3 L84.0,232.0 L85.3,233.2 L86.5,233.2 L87.8,234.3 L89.1,235.5 L90.4,236.6 L91.6,245.7 L92.9,246.8 L94.2,249.1 L95.5,250.2 L96.7,251.4 L98.0,251.4 L99.3,252.5 L100.5,254.8 L101.8,255.9 L103.1,257.0 L104.4,258.2 L105.6,259.3 L106.9,259.3 L108.2,259.3 L109.5,260.5 L110.7,260.5 L112.0,261.6 L113.3,261.6 L114.5,261.6 L115.8,262.7 L117.1,261.6 L118.4,258.2 L119.6,254.8 L120.9,251.4 L122.2,249.1 L123.5,246.8 L124.7,243.4 L126.0,241.1 L127.3,237.7 L128.5,234.3 L129.8,226.4 L131.1,218.4 L132.4,219.5 L133.6,229.8 L134.9,228.6 L136.2,228.6 L137.5,227.5 L138.7,221.8 L140.0,217.3 L141.3,215.0 L142.5,212.7 L143.8,207.0 L145.1,202.5 L146.4,204.8 L147.6,203.6 L148.9,202.5 L150.2,195.7 L151.5,188.9 L152.7,190.0 L154.0,186.6 L155.3,186.6 L156.5,184.3 L157.8,184.3 L159.1,183.2 L160.4,179.8 L161.6,179.8 L162.9,176.4 L164.2,168.4 L165.5,160.5 L166.7,149.1 L168.0,143.4 L169.3,138.9 L170.5,134.3 L171.8,123.0 L173.1,113.9 L174.4,109.3 L175.6,110.5 L176.9,104.8 L178.2,100.2 L179.5,95.7 L180.7,94.5 L182.0,100.2 L183.3,98.0 L184.5,99.1 L185.8,100.2 L187.1,96.8 L188.4,94.5 L189.6,96.8 L190.9,96.8 L192.2,94.5 L193.5,96.8 L194.7,98.0 L196.0,98.0 L197.3,99.1 L198.5,91.1 L199.8,96.8 L201.1,98.0 L202.4,99.1 L203.6,100.2 L204.9,99.1 L206.2,101.4 L207.5,108.2 L208.7,112.7 L210.0,115.0 L211.3,116.1 L212.5,126.4 L213.8,137.7 L215.1,140.0 L216.4,146.8 L217.6,153.6 L218.9,152.5 L220.2,146.8 L221.5,144.5 L222.7,144.5 L224.0,145.7 L225.3,148.0 L226.5,151.4 L227.8,159.3 L229.1,163.9 L230.4,163.9 L231.6,161.6 L232.9,169.5 L234.2,171.8 L235.5,168.4 L236.7,169.5 L238.0,169.5 L239.3,169.5 L240.5,168.4 L241.8,159.3 L243.1,165.0 L244.4,177.5 L245.6,175.2 L246.9,175.2 L248.2,175.2 L249.5,177.5 L250.7,182.0 L252.0,208.2 L253.3,210.5 L254.5,216.1 L255.8,218.4 L257.1,217.3 L258.4,217.3 L259.6,217.3 L260.9,217.3 L262.2,215.0 L263.5,212.7 L264.7,212.7 L266.0,210.5 L267.3,213.9 L268.5,217.3 L269.8,217.3 L271.1,217.3 L272.4,218.4 L273.6,219.5 L274.9,220.7 L276.2,221.8 L277.5,223.0 L278.7,225.2 L280.0,227.5 L281.3,228.6 L282.5,229.8 L283.8,229.8 L285.1,228.6 L286.4,228.6 L287.6,228.6 L288.9,228.6 L290.2,228.6 L291.5,228.6 L292.7,228.6 L294.0,227.5 L295.3,226.4 L296.5,225.2 L297.8,223.0 L299.1,216.1 L300.4,211.6 L301.6,205.9 L302.9,213.9 L304.2,213.9 L305.5,213.9 L306.7,212.7 L308.0,209.3 L309.3,208.2 L310.5,204.8 L311.8,202.5 L313.1,200.2 L314.4,196.8 L315.6,193.4 L316.9,191.1 L318.2,184.3 L319.5,183.2 L320.7,183.2 L322.0,184.3 L323.3,184.3 L324.5,184.3 L325.8,183.2 L327.1,182.0 L328.4,182.0 L329.6,183.2 L330.9,184.3 L332.2,183.2 L333.5,180.9 L334.7,176.4 L336.0,174.1 L337.3,171.8 L338.5,169.5 L339.8,169.5 L341.1,168.4 L342.4,165.0 L343.6,163.9 L344.9,166.1 L346.2,165.0 L347.5,158.2 L348.7,158.2 L350.0,151.4 L351.3,153.6 L352.5,154.8 L353.8,153.6 L355.1,155.9 L356.4,155.9 L357.6,150.2 L358.9,141.1 L360.2,138.9 L361.5,135.5 L362.7,137.7 L364.0,134.3 L365.3,132.0 L366.5,127.5 L367.8,137.7 L369.1,136.6 L370.4,133.2 L371.6,129.8 L372.9,126.4 L374.2,126.4 L375.5,129.8 L376.7,133.2 L378.0,135.5 L379.3,134.3 L380.5,133.2 L381.8,137.7 L383.1,142.3 L384.4,142.3 L385.6,146.8 L386.9,150.2 L388.2,154.8 L389.5,158.2 L390.7,163.9 L392.0,167.3 L393.3,167.3 L394.5,169.5 L395.8,174.1 L397.1,174.1 L398.4,175.2 L399.6,177.5 L400.9,179.8 L402.2,182.0 L403.5,183.2 L404.7,184.3 L406.0,190.0 L407.3,193.4 L408.5,195.7 L409.8,198.0 L411.1,200.2 L412.4,201.4 L413.6,201.4 L414.9,201.4 L416.2,202.5 L417.5,202.5 L418.7,202.5 L420.0,203.6 L421.3,204.8 L422.5,207.0 L423.8,208.2 L425.1,210.5 L426.4,211.6 L427.6,213.9 L428.9,215.0 L430.2,217.3 L431.5,218.4 L432.7,220.7 L434.0,220.7 L435.3,221.8 L436.5,223.0 L437.8,223.0 L439.1,224.1 L440.4,225.2 L441.6,226.4 L442.9,227.5 L444.2,228.6 L445.5,229.8 L446.7,230.9 L448.0,237.7 L449.3,237.7 L450.5,238.9 L451.8,238.9 L453.1,238.9 L454.4,238.9 L455.6,240.0 L456.9,240.0 L458.2,240.0 L459.5,241.1 L460.7,241.1 L462.0,242.3 L463.3,242.3 L464.5,242.3 L465.8,242.3 L467.1,242.3 L468.4,241.1 L469.6,238.9 L470.9,235.5 L472.2,233.2 L473.5,228.6 L474.7,216.1 L476.0,198.0 L477.3,196.8 L478.5,203.6 L479.8,201.4 L481.1,202.5 L482.4,203.6 L483.6,201.4 L484.9,196.8 L486.2,194.5 L487.5,188.9 L488.7,185.5 L490.0,180.9 L491.3,179.8 L492.5,178.6 L493.8,178.6 L495.1,179.8 L496.4,183.2 L497.6,183.2 L498.9,183.2 L500.2,183.2 L501.5,183.2 L502.7,182.0 L504.0,179.8 L505.3,177.5 L506.5,175.2 L507.8,173.0 L509.1,171.8 L510.4,168.4 L511.6,167.3 L512.9,163.9 L514.2,162.7 L515.5,161.6 L516.7,159.3 L518.0,157.0 L519.3,150.2 L520.5,152.5 L521.8,144.5 L523.1,144.5 L524.4,144.5 L525.6,142.3 L526.9,137.7 L528.2,130.9 L529.5,124.1 L530.7,118.4 L532.0,127.5 L533.3,132.0 L534.5,117.3 L535.8,105.9 L537.1,111.6 L538.4,104.8 L539.6,99.1 L540.9,94.5 L542.2,87.7 L543.5,78.6 L544.7,75.2 L546.0,84.3 L547.3,95.7 L548.5,96.8 L549.8,93.4 L551.1,83.2 L552.4,76.4 L553.6,69.5 L554.9,69.5 L556.2,74.1 L557.5,76.4 L558.7,96.8 L560.0,108.2 L561.3,113.9 L562.5,116.1 L563.8,117.3 L565.1,119.5 L566.4,125.2 L567.6,129.8 L568.9,134.3 L570.2,137.7 L571.5,142.3 L572.7,145.7 L574.0,151.4 L575.3,157.0 L576.5,159.3 L577.8,161.6 L579.1,163.9 L580.4,165.0 L581.6,168.4 L582.9,174.1 L584.2,176.4 L585.5,179.8 L586.7,182.0 L588.0,183.2 L589.3,183.2 L590.5,184.3 L591.8,186.6 L593.1,187.7 L594.4,190.0 L595.6,191.1 L596.9,193.4 L598.2,194.5 L599.5,195.7 L600.7,196.8 L602.0,204.8 L603.3,204.8 L604.5,205.9 L605.8,207.0 L607.1,207.0 L608.4,208.2 L609.6,209.3 L610.9,210.5 L612.2,211.6 L613.5,212.7 L614.7,213.9 L616.0,215.0 L617.3,216.1 L618.5,216.1 L619.8,217.3 L621.1,218.4 L622.4,219.5 L623.6,230.9 L624.9,230.9 L626.2,230.9 L627.5,230.9 L628.7,230.9 L630.0,229.8 L631.3,228.6 L632.5,226.4 L633.8,221.8 L635.1,217.3 L636.4,209.3 L637.6,195.7 L638.9,182.0 L640.2,184.3 L641.5,191.1 L642.7,187.7 L644.0,184.3 L645.3,179.8 L646.5,175.2 L647.8,179.8 L649.1,178.6 L650.4,170.7 L651.6,163.9 L652.9,165.0 L654.2,163.9 L655.5,160.5 L656.7,158.2 L658.0,160.5 L659.3,154.8 L660.5,150.2 L661.8,146.8 L663.1,143.4 L664.4,141.1 L665.6,137.7 L666.9,136.6 L668.2,135.5 L669.5,130.9 L670.7,125.2 L672.0,121.8 L673.3,120.7 L674.5,118.4 L675.8,113.9 L677.1,109.3 L678.4,111.6 L679.6,113.9 L680.9,110.5 L682.2,100.2 L683.5,93.4 L684.7,91.1 L686.0,87.7 L687.3,84.3 L688.5,80.9 L689.8,78.6 L691.1,77.5 L692.4,77.5 L693.6,75.2 L694.9,74.1 L696.2,73.0 L697.5,73.0 L698.7,73.0 L700.0,73.0 L701.3,71.8 L702.5,73.0 L703.8,71.8 L705.1,70.7 L706.4,69.5 L707.6,70.7 L708.9,71.8 L710.2,71.8 L711.5,73.0 L712.7,71.8 L714.0,71.8 L715.3,71.8 L716.5,74.1 L717.8,74.1 L719.1,77.5 L720.4,82.0 L721.6,90.0 L722.9,98.0 L724.2,104.8 L725.5,110.5 L726.7,115.0 L728.0,120.7 L729.3,126.4 L730.5,132.0 L731.8,135.5 L733.1,141.1 L734.4,144.5 L735.6,148.0 L736.9,150.2 L738.2,153.6 L739.5,154.8 L740.7,157.0 L742.0,159.3 L743.3,161.6 L744.5,167.3 L745.8,169.5 L747.1,171.8 L748.4,175.2 L749.6,177.5 L750.9,179.8 L752.2,180.9 L753.5,182.0 L754.7,184.3 L756.0,185.5 L757.3,186.6 L758.5,187.7 L759.8,190.0 L761.1,192.3 L762.4,194.5 L763.6,204.8 L764.9,205.9 L766.2,207.0 L767.5,208.2 L768.7,209.3 L770.0,211.6 L771.3,212.7 L772.5,213.9 L773.8,215.0 L775.1,216.1 L776.4,217.3 L777.6,219.5 L778.9,220.7 L780.2,223.0 L781.5,224.1 L782.7,226.4 L784.0,228.6 L785.3,229.8 L786.5,232.0 L787.8,232.0 L789.1,233.2 L790.4,234.3 L791.6,238.9 L792.9,238.9 L794.2,240.0 L795.5,240.0 L796.7,240.0 L798.0,238.9 L799.3,237.7 L800.5,235.5 L801.8,233.2 L803.1,232.0 L804.4,228.6 L805.6,221.8 L806.9,208.2 L808.2,194.5 L809.5,193.4 L810.7,194.5 L812.0,192.3 L813.3,186.6 L814.5,183.2 L815.8,184.3 L817.1,183.2 L818.4,184.3 L819.6,184.3 L820.9,183.2 L822.2,180.9 L823.5,177.5 L824.7,176.4 L826.0,175.2 L827.3,176.4 L828.5,178.6 L829.8,177.5 L831.1,177.5 L832.4,176.4 L833.6,175.2 L834.9,173.0 L836.2,174.1 L837.5,171.8 L838.7,167.3 L840.0,163.9 L841.3,158.2 L842.5,154.8 L843.8,150.2 L845.1,149.1 L846.4,149.1 L847.6,148.0 L848.9,146.8 L850.2,142.3 L851.5,138.9 L852.7,127.5 L854.0,117.3 L855.3,112.7 L856.5,108.2 L857.8,102.5 L859.1,96.8 L860.4,90.0 L861.6,87.7 L862.9,84.3 L864.2,80.9 L865.5,79.8 L866.7,80.9 L868.0,78.6 L869.3,79.8 L870.5,79.8 L871.8,77.5 L873.1,77.5 L874.4,79.8 L875.6,77.5 L876.9,79.8 L878.2,84.3 L879.5,91.1 L880.7,95.7 L882.0,100.2 L883.3,100.2 L884.5,93.4 L885.8,91.1 L887.1,91.1 L888.4,93.4 L889.6,98.0 L890.9,105.9 L892.2,109.3 L893.5,111.6 L894.7,113.9 L896.0,113.9 L897.3,115.0 L898.5,116.1 L899.8,117.3 L901.1,119.5 L902.4,124.1 L903.6,127.5 L904.9,135.5 L906.2,138.9 L907.5,142.3 L908.7,145.7 L910.0,152.5 L911.3,157.0 L912.5,163.9 L913.8,166.1 L915.1,166.1 L916.4,166.1 L917.6,168.4 L918.9,169.5 L920.2,174.1 L921.5,177.5 L922.7,177.5 L924.0,178.6 L925.3,180.9 L926.5,182.0 L927.8,183.2 L929.1,184.3 L930.4,185.5 L931.6,186.6 L932.9,188.9 L934.2,190.0 L935.5,192.3 L936.7,193.4 L938.0,194.5 L939.3,195.7 L940.5,196.8 L941.8,198.0 L943.1,199.1 L944.4,200.2 L945.6,208.2 L946.9,210.5 L948.2,211.6 L949.5,212.7 L950.7,213.9 L952.0,215.0 L953.3,216.1 L954.5,217.3 L955.8,217.3 L957.1,218.4 L958.4,218.4 L959.6,219.5 L960.9,219.5 L962.2,219.5 L963.5,219.5 L964.7,218.4 L966.0,218.4 L967.3,216.1 L968.5,215.0 L969.8,212.7 L971.1,210.5 L972.4,209.3 L973.6,209.3 L974.9,209.3 L976.2,207.0 L977.5,207.0 L978.7,205.9 L980.0,204.8" fill="none" stroke="#dc3545" stroke-width="1.5"/><rect x="75" y="50" width="14" height="4" fill="#0d6efd"/>
<text x="93" y="54" font-size="10" fill="#212529">Wassertemperatur (T)</text>
<rect x="240" y="50" width="14" height="4" fill="#dc3545"/>
<text x="258" y="54" font-size="10" fill="#212529">Lufttemperatur (T)</text>
<text x="70" y="348" font-size="12" font-weight="600" fill="#212529">Pegelstand</text>
<line x1="70" y1="550.0" x2="980" y2="550.0" stroke="#dee2e6" stroke-width="0.5"/>
<text x="64" y="554.0" text-anchor="end" font-size="11" fill="#6c757d">405.00</text>
<line x1="70" y1="510.0" x2="980" y2="510.0" stroke="#dee2e6" stroke-width="0.5"/>
<text x="64" y="514.0" text-anchor="end" font-size="11" fill="#6c757d">405.20</text>
<line x1="70" y1="470.0" x2="980" y2="470.0" stroke="#dee2e6" stroke-width="0.5"/>
<text x="64" y="474.0" text-anchor="end" font-size="11" fill="#6c757d">405.40</text>
<line x1="70" y1="430.0" x2="980" y2="430.0" stroke="#dee2e6" stroke-width="0.5"/>
<text x="64" y="434.0" text-anchor="end" font-size="11" fill="#6c757d">405.60</text>
<line x1="70" y1="390.0" x2="980" y2="390.0" stroke="#dee2e6" stroke-width="0.5"/>
<text x="64" y="394.0" text-anchor="end" font-size="11" fill="#6c757d">405.80</text>
<line x1="70" y1="350.0" x2="980" y2="350.0" stroke="#dee2e6" stroke-width="0.5"/>
<text x="64" y="354.0" text-anchor="end" font-size="11" fill="#6c757d">406.00 m ü.M.</text>
<line x1="70.0" y1="350" x2="70.0" y2="550" stroke="#dee2e6" stroke-width="0.5" stroke-dasharray="4,4"/>
<text x="70.0" y="565" text-anchor="middle" font-size="9" fill="#6c757d">04.04.2026 22:00</text>
<line x1="126.0" y1="350" x2="126.0" y2="550" stroke="#dee2e6" stroke-width="0.5" stroke-dasharray="4,4"/>
<text x="126.0" y="565" text-anchor="middle" font-size="9" fill="#6c757d">05.04.2026 06:20</text>
<line x1="182.0" y1="350" x2="182.0" y2="550" stroke="#dee2e6" stroke-width="0.5" stroke-dasharray="4,4"/>
<text x="182.0" y="565" text-anchor="middle" font-size="9" fill="#6c757d">13:40</text>
<line x1="238.0" y1="350" x2="238.0" y2="550" stroke="#dee2e6" stroke-width="0.5" stroke-dasharray="4,4"/>
<text x="238.0" y="565" text-anchor="middle" font-size="9" fill="#6c757d">21:00</text>
<line x1="294.0" y1="350" x2="294.0" y2="550" stroke="#dee2e6" stroke-width="0.5" stroke-dasharray="4,4"/>
<text x="294.0" y="565" text-anchor="middle" font-size="9" fill="#6c757d">06.04.2026 06:10</text>
<line x1="350.0" y1="350" x2="350.0" y2="550" stroke="#dee2e6" stroke-width="0.5" stroke-dasharray="4,4"/>
<text x="350.0" y="565" text-anchor="middle" font-size="9" fill="#6c757d">13:30</text>
<line x1="406.0" y1="350" x2="406.0" y2="550" stroke="#dee2e6" stroke-width="0.5" stroke-dasharray="4,4"/>
<text x="406.0" y="565" text-anchor="middle" font-size="9" fill="#6c757d">20:50</text>
<line x1="462.0" y1="350" x2="462.0" y2="550" stroke="#dee2e6" stroke-width="0.5" stroke-dasharray="4,4"/>
<text x="462.0" y="565" text-anchor="middle" font-size="9" fill="#6c757d">07.04.2026 05:10</text>
<line x1="518.0" y1="350" x2="518.0" y2="550" stroke="#dee2e6" stroke-width="0.5" stroke-dasharray="4,4"/>
<text x="518.0" y="565" text-anchor="middle" font-size="9" fill="#6c757d">12:30</text>
<line x1="574.0" y1="350" x2="574.0" y2="550" stroke="#dee2e6" stroke-width="0.5" stroke-dasharray="4,4"/>
<text x="574.0" y="565" text-anchor="middle" font-size="9" fill="#6c757d">19:50</text>
<line x1="630.0" y1="350" x2="630.0" y2="550" stroke="#dee2e6" stroke-width="0.5" stroke-dasharray="4,4"/>
<text x="630.0" y="565" text-anchor="middle" font-size="9" fill="#6c757d">08.04.2026 05:50</text>
<line x1="686.0" y1="350" x2="686.0" y2="550" stroke="#dee2e6" stroke-width="0.5" stroke-dasharray="4,4"/>
<text x="686.0" y="565" text-anchor="middle" font-size="9" fill="#6c757d">13:10</text>
<line x1="742.0" y1="350" x2="742.0" y2="550" stroke="#dee2e6" stroke-width="0.5" stroke-dasharray="4,4"/>
<text x="742.0" y="565" text-anchor="middle" font-size="9" fill="#6c757d">20:30</text>
<line x1="798.0" y1="350" x2="798.0" y2="550" stroke="#dee2e6" stroke-width="0.5" stroke-dasharray="4,4"/>
<text x="798.0" y="565" text-anchor="middle" font-size="9" fill="#6c757d">09.04.2026 05:40</text>
<line x1="854.0" y1="350" x2="854.0" y2="550" stroke="#dee2e6" stroke-width="0.5" stroke-dasharray="4,4"/>
<text x="854.0" y="565" text-anchor="middle" font-size="9" fill="#6c757d">13:00</text>
<line x1="910.0" y1="350" x2="910.0" y2="550" stroke="#dee2e6" stroke-width="0.5" stroke-dasharray="4,4"/>
<text x="910.0" y="565" text-anchor="middle" font-size="9" fill="#6c757d">20:20</text>
<line x1="966.0" y1="350" x2="966.0" y2="550" stroke="#dee2e6" stroke-width="0.5" stroke-dasharray="4,4"/>
<text x="966.0" y="565" text-anchor="middle" font-size="9" fill="#6c757d">10.04.2026 04:30</text>
<line x1="980.0" y1="350" x2="980.0" y2="550" stroke="#dee2e6" stroke-width="0.5" stroke-dasharray="4,4"/>
<text x="980.0" y="565" text-anchor="middle" font-size="9" fill="#6c757d">06:20</text>
<path d="M70.0,374.0 L71.3,376.0 L72.5,374.0 L73.8,374.0 L75.1,376.0 L76.4,376.0 L77.6,376.0 L78.9,374.0 L80.2,376.0 L81.5,374.0 L82.7,376.0 L84.0,374.0 L85.3,374.0 L86.5,376.0 L87.8,376.0 L89.1,374.0 L90.4,374.0 L91.6,374.0 L92.9,374.0 L94.2,374.0 L95.5,376.0 L96.7,376.0 L98.0,374.0 L99.3,374.0 L100.5,376.0 L101.8,376.0 L103.1,374.0 L104.4,374.0 L105.6,374.0 L106.9,376.0 L108.2,374.0 L109.5,376.0 L110.7,376.0 L112.0,376.0 L113.3,376.0 L114.5,374.0 L115.8,374.0 L117.1,374.0 L118.4,376.0 L119.6,374.0 L120.9,374.0 L122.2,376.0 L123.5,374.0 L124.7,374.0 L126.0,374.0 L127.3,374.0 L128.5,374.0 L129.8,374.0 L131.1,374.0 L132.4,374.0 L133.6,374.0 L134.9,374.0 L136.2,374.0 L137.5,374.0 L138.7,374.0 L140.0,374.0 L141.3,374.0 L142.5,374.0 L143.8,376.0 L145.1,376.0 L146.4,376.0 L147.6,376.0 L148.9,376.0 L150.2,376.0 L151.5,376.0 L152.7,376.0 L154.0,376.0 L155.3,376.0 L156.5,376.0 L157.8,376.0 L159.1,376.0 L160.4,376.0 L161.6,376.0 L162.9,376.0 L164.2,376.0 L165.5,376.0 L166.7,376.0 L168.0,376.0 L169.3,376.0 L170.5,376.0 L171.8,376.0 L173.1,376.0 L174.4,376.0 L175.6,376.0 L176.9,374.0 L178.2,376.0 L179.5,374.0 L180.7,374.0 L182.0,374.0 L183.3,374.0 L184.5,376.0 L185.8,374.0 L187.1,376.0 L188.4,376.0 L189.6,376.0 L190.9,376.0 L192.2,376.0 L193.5,376.0 L194.7,376.0 L196.0,374.0 L197.3,376.0 L198.5,376.0 L199.8,376.0 L201.1,376.0 L202.4,376.0 L203.6,376.0 L204.9,376.0 L206.2,376.0 L207.5,374.0 L208.7,376.0 L210.0,376.0 L211.3,376.0 L212.5,376.0 L213.8,376.0 L215.1,376.0 L216.4,374.0 L217.6,374.0 L218.9,374.0 L220.2,376.0 L221.5,376.0 L222.7,372.0 L224.0,372.0 L225.3,374.0 L226.5,376.0 L227.8,374.0 L229.1,372.0 L230.4,374.0 L231.6,376.0 L232.9,374.0 L234.2,374.0 L235.5,374.0 L236.7,376.0 L238.0,374.0 L239.3,374.0 L240.5,374.0 L241.8,374.0 L243.1,374.0 L244.4,374.0 L245.6,374.0 L246.9,374.0 L248.2,374.0 L249.5,374.0 L250.7,376.0 L252.0,374.0 L253.3,374.0 L254.5,376.0 L255.8,372.0 L257.1,372.0 L258.4,374.0 L259.6,374.0 L260.9,374.0 L262.2,372.0 L263.5,376.0 L266.0,374.0 L267.3,374.0 L268.5,374.0 L269.8,376.0 L271.1,372.0 L272.4,374.0 L273.6,374.0 L274.9,376.0 L276.2,374.0 L277.5,372.0 L278.7,374.0 L280.0,374.0 L281.3,376.0 L282.5,374.0 L283.8,374.0 L285.1,374.0 L286.4,374.0 L287.6,374.0 L288.9,372.0 L290.2,374.0 L291.5,374.0 L292.7,374.0 L294.0,374.0 L295.3,374.0 L296.5,376.0 L297.8,374.0 L299.1,374.0 L300.4,374.0 L301.6,374.0 L302.9,376.0 L304.2,374.0 L305.5,374.0 L306.7,374.0 L308.0,374.0 L309.3,374.0 L310.5,374.0 L311.8,374.0 L313.1,374.0 L314.4,376.0 L315.6,374.0 L316.9,374.0 L318.2,374.0 L319.5,374.0 L320.7,374.0 L322.0,374.0 L323.3,374.0 L324.5,374.0 L325.8,374.0 L327.1,374.0 L328.4,374.0 L329.6,374.0 L330.9,374.0 L332.2,374.0 L333.5,374.0 L334.7,374.0 L336.0,374.0 L337.3,374.0 L338.5,374.0 L339.8,374.0 L341.1,374.0 L342.4,374.0 L343.6,374.0 L344.9,374.0 L346.2,374.0 L347.5,374.0 L348.7,374.0 L350.0,374.0 L351.3,374.0 L352.5,374.0 L353.8,374.0 L355.1,374.0 L356.4,374.0 L357.6,374.0 L358.9,374.0 L360.2,374.0 L361.5,374.0 L362.7,374.0 L364.0,374.0 L365.3,374.0 L366.5,374.0 L367.8,374.0 L369.1,374.0 L370.4,374.0 L371.6,374.0 L372.9,374.0 L374.2,374.0 L375.5,374.0 L376.7,374.0 L378.0,374.0 L379.3,374.0 L380.5,374.0 L381.8,374.0 L383.1,374.0 L384.4,374.0 L385.6,374.0 L386.9,374.0 L388.2,374.0 L389.5,374.0 L390.7,374.0 L392.0,374.0 L393.3,374.0 L394.5,374.0 L395.8,374.0 L397.1,374.0 L398.4,374.0 L399.6,374.0 L400.9,374.0 L402.2,374.0 L403.5,374.0 L404.7,374.0 L406.0,374.0 L407.3,374.0 L408.5,374.0 L409.8,374.0 L411.1,374.0 L412.4,374.0 L413.6,374.0 L414.9,374.0 L416.2,374.0 L417.5,374.0 L418.7,374.0 L420.0,374.0 L421.3,374.0 L422.5,374.0 L423.8,374.0 L425.1,374.0 L426.4,374.0 L427.6,374.0 L428.9,374.0 L430.2,374.0 L431.5,374.0 L432.7,374.0 L434.0,374.0 L435.3,374.0 L436.5,374.0 L437.8,374.0 L439.1,374.0 L440.4,374.0 L441.6,374.0 L442.9,374.0 L444.2,374.0 L445.5,374.0 L448.0,374.0 L449.3,374.0 L450.5,374.0 L451.8,374.0 L453.1,374.0 L454.4,374.0 L455.6,374.0 L456.9,374.0 L458.2,372.0 L459.5,372.0 L460.7,372.0 L462.0,372.0 L463.3,372.0 L464.5,372.0 L465.8,372.0 L467.1,372.0 L468.4,372.0 L469.6,372.0 L470.9,372.0 L472.2,372.0 L473.5,372.0 L474.7,372.0 L476.0,372.0 L477.3,372.0 L478.5,372.0 L479.8,372.0 L481.1,372.0 L482.4,372.0 L483.6,372.0 L484.9,372.0 L486.2,372.0 L487.5,372.0 L488.7,372.0 L490.0,372.0 L491.3,372.0 L492.5,372.0 L493.8,372.0 L495.1,372.0 L496.4,372.0 L497.6,372.0 L498.9,372.0 L500.2,372.0 L501.5,372.0 L502.7,372.0 L504.0,372.0 L505.3,372.0 L506.5,372.0 L507.8,372.0 L509.1,372.0 L510.4,372.0 L511.6,372.0 L512.9,372.0 L514.2,372.0 L515.5,372.0 L516.7,372.0 L518.0,372.0 L519.3,372.0 L520.5,372.0 L521.8,372.0 L523.1,372.0 L524.4,372.0 L525.6,372.0 L526.9,372.0 L528.2,372.0 L529.5,372.0 L530.7,372.0 L532.0,372.0 L533.3,372.0 L534.5,372.0 L535.8,372.0 L537.1,372.0 L538.4,372.0 L539.6,372.0 L540.9,372.0 L542.2,372.0 L543.5,372.0 L544.7,372.0 L546.0,372.0 L547.3,372.0 L548.5,372.0 L549.8,372.0 L551.1,372.0 L552.4,372.0 L553.6,372.0 L554.9,372.0 L556.2,372.0 L557.5,372.0 L558.7,372.0 L560.0,372.0 L561.3,372.0 L562.5,372.0 L563.8,372.0 L565.1,372.0 L566.4,372.0 L567.6,372.0 L568.9,370.0 L570.2,372.0 L571.5,372.0 L572.7,370.0 L574.0,370.0 L575.3,370.0 L576.5,370.0 L577.8,370.0 L579.1,370.0 L580.4,370.0 L581.6,370.0 L582.9,372.0 L584.2,370.0 L585.5,372.0 L586.7,370.0 L588.0,370.0 L589.3,370.0 L590.5,370.0 L591.8,372.0 L593.1,370.0 L594.4,370.0 L595.6,370.0 L596.9,370.0 L598.2,370.0 L599.5,370.0 L602.0,370.0 L603.3,370.0 L604.5,370.0 L605.8,370.0 L607.1,370.0 L608.4,370.0 L609.6,370.0 L610.9,368.0 L612.2,370.0 L613.5,370.0 L614.7,370.0 L616.0,370.0 L617.3,368.0 L618.5,370.0 L619.8,370.0 L621.1,370.0 L623.6,370.0 L624.9,368.0 L626.2,370.0 L627.5,370.0 L628.7,370.0 L630.0,370.0 L631.3,370.0 L632.5,370.0 L633.8,370.0 L635.1,370.0 L636.4,370.0 L637.6,370.0 L638.9,370.0 L640.2,370.0 L641.5,370.0 L642.7,368.0 L644.0,370.0 L645.3,370.0 L646.5,370.0 L647.8,370.0 L649.1,370.0 L650.4,370.0 L651.6,370.0 L652.9,370.0 L654.2,370.0 L655.5,370.0 L656.7,370.0 L658.0,370.0 L659.3,370.0 L660.5,370.0 L661.8,370.0 L663.1,370.0 L664.4,370.0 L665.6,370.0 L666.9,370.0 L668.2,370.0 L669.5,370.0 L670.7,370.0 L672.0,370.0 L673.3,370.0 L674.5,370.0 L675.8,370.0 L677.1,370.0 L678.4,370.0 L679.6,370.0 L680.9,370.0 L682.2,370.0 L683.5,370.0 L684.7,370.0 L686.0,370.0 L687.3,370.0 L688.5,372.0 L689.8,370.0 L691.1,370.0 L692.4,370.0 L693.6,372.0 L694.9,370.0 L696.2,370.0 L697.5,370.0 L698.7,372.0 L700.0,372.0 L701.3,370.0 L702.5,370.0 L703.8,372.0 L705.1,372.0 L706.4,372.0 L707.6,370.0 L708.9,372.0 L710.2,372.0 L711.5,372.0 L712.7,372.0 L714.0,372.0 L715.3,372.0 L716.5,372.0 L717.8,372.0 L719.1,370.0 L720.4,372.0 L721.6,372.0 L722.9,372.0 L724.2,372.0 L725.5,370.0 L726.7,372.0 L728.0,372.0 L729.3,372.0 L730.5,372.0 L731.8,372.0 L733.1,372.0 L734.4,372.0 L735.6,372.0 L736.9,372.0 L738.2,372.0 L739.5,372.0 L740.7,370.0 L742.0,372.0 L743.3,372.0 L744.5,372.0 L745.8,372.0 L747.1,372.0 L748.4,372.0 L749.6,372.0 L750.9,372.0 L752.2,372.0 L753.5,372.0 L754.7,372.0 L756.0,372.0 L757.3,372.0 L758.5,372.0 L759.8,372.0 L761.1,372.0 L762.4,372.0 L763.6,372.0 L764.9,372.0 L766.2,372.0 L767.5,372.0 L768.7,372.0 L770.0,372.0 L771.3,372.0 L772.5,372.0 L773.8,372.0 L775.1,372.0 L776.4,372.0 L777.6,372.0 L778.9,372.0 L780.2,372.0 L781.5,372.0 L782.7,372.0 L784.0,372.0 L785.3,372.0 L786.5,372.0 L787.8,374.0 L789.1,372.0 L791.6,374.0 L792.9,374.0 L794.2,374.0 L795.5,374.0 L796.7,374.0 L798.0,374.0 L799.3,374.0 L800.5,374.0 L801.8,374.0 L803.1,374.0 L804.4,374.0 L805.6,374.0 L806.9,374.0 L808.2,374.0 L809.5,374.0 L810.7,374.0 L812.0,374.0 L813.3,374.0 L814.5,374.0 L815.8,374.0 L817.1,374.0 L818.4,374.0 L819.6,374.0 L820.9,374.0 L822.2,374.0 L823.5,374.0 L824.7,376.0 L826.0,374.0 L827.3,374.0 L828.5,376.0 L829.8,376.0 L831.1,376.0 L832.4,376.0 L833.6,376.0 L834.9,376.0 L836.2,376.0 L837.5,376.0 L838.7,376.0 L840.0,376.0 L841.3,376.0 L842.5,376.0 L843.8,376.0 L845.1,376.0 L846.4,376.0 L847.6,376.0 L848.9,376.0 L850.2,376.0 L851.5,376.0 L852.7,376.0 L854.0,378.0 L855.3,376.0 L856.5,376.0 L857.8,378.0 L859.1,378.0 L860.4,378.0 L861.6,376.0 L862.9,378.0 L864.2,378.0 L865.5,378.0 L866.7,378.0 L868.0,378.0 L869.3,378.0 L870.5,378.0 L871.8,378.0 L873.1,378.0 L874.4,378.0 L875.6,378.0 L876.9,378.0 L878.2,378.0 L879.5,378.0 L880.7,378.0 L882.0,378.0 L883.3,378.0 L884.5,378.0 L885.8,378.0 L887.1,378.0 L888.4,378.0 L889.6,378.0 L890.9,378.0 L892.2,378.0 L893.5,378.0 L894.7,378.0 L896.0,378.0 L897.3,378.0 L898.5,378.0 L899.8,378.0 L901.1,378.0 L902.4,378.0 L903.6,378.0 L904.9,378.0 L906.2,378.0 L907.5,378.0 L908.7,378.0 L910.0,378.0 L911.3,378.0 L912.5,378.0 L913.8,378.0 L915.1,378.0 L916.4,378.0 L917.6,378.0 L918.9,378.0 L920.2,378.0 L921.5,378.0 L922.7,378.0 L924.0,378.0 L925.3,378.0 L926.5,378.0 L927.8,378.0 L929.1,378.0 L930.4,378.0 L931.6,378.0 L932.9,378.0 L934.2,378.0 L935.5,378.0 L936.7,378.0 L938.0,378.0 L939.3,378.0 L940.5,378.0 L941.8,376.0 L943.1,378.0 L944.4,378.0 L945.6,376.0 L946.9,376.0 L948.2,376.0 L949.5,378.0 L950.7,378.0 L952.0,378.0 L953.3,376.0 L954.5,378.0 L955.8,378.0 L957.1,376.0 L958.4,378.0 L959.6,378.0 L960.9,376.0 L962.2,376.0 L963.5,376.0 L964.7,376.0 L966.0,378.0 L967.3,378.0 L968.5,378.0 L969.8,376.0 L971.1,376.0 L972.4,376.0 L973.6,376.0 L974.9,376.0 L976.2,376.0 L977.5,376.0 L978.7,376.0 L978.7,550.0 L70.0,550.0 Z" fill="#198754" opacity="0.15" stroke="none"/><path d="M70.0,374.0 L71.3,376.0 L72.5,374.0 L73.8,374.0 L75.1,376.0 L76.4,376.0 L77.6,376.0 L78.9,374.0 L80.2,376.0 L81.5,374.0 L82.7,376.0 L84.0,374.0 L85.3,374.0 L86.5,376.0 L87.8,376.0 L89.1,374.0 L90.4,374.0 L91.6,374.0 L92.9,374.0 L94.2,374.0 L95.5,376.0 L96.7,376.0 L98.0,374.0 L99.3,374.0 L100.5,376.0 L101.8,376.0 L103.1,374.0 L104.4,374.0 L105.6,374.0 L106.9,376.0 L108.2,374.0 L109.5,376.0 L110.7,376.0 L112.0,376.0 L113.3,376.0 L114.5,374.0 L115.8,374.0 L117.1,374.0 L118.4,376.0 L119.6,374.0 L120.9,374.0 L122.2,376.0 L123.5,374.0 L124.7,374.0 L126.0,374.0 L127.3,374.0 L128.5,374.0 L129.8,374.0 L131.1,374.0 L132.4,374.0 L133.6,374.0 L134.9,374.0 L136.2,374.0 L137.5,374.0 L138.7,374.0 L140.0,374.0 L141.3,374.0 L142.5,374.0 L143.8,376.0 L145.1,376.0 L146.4,376.0 L147.6,376.0 L148.9,376.0 L150.2,376.0 L151.5,376.0 L152.7,376.0 L154.0,376.0 L155.3,376.0 L156.5,376.0 L157.8,376.0 L159.1,376.0 L160.4,376.0 L161.6,376.0 L162.9,376.0 L164.2,376.0 L165.5,376.0 L166.7,376.0 L168.0,376.0 L169.3,376.0 L170.5,376.0 L171.8,376.0 L173.1,376.0 L174.4,376.0 L175.6,376.0 L176.9,374.0 L178.2,376.0 L179.5,374.0 L180.7,374.0 L182.0,374.0 L183.3,374.0 L184.5,376.0 L185.8,374.0 L187.1,376.0 L188.4,376.0 L189.6,376.0 L190.9,376.0 L192.2,376.0 L193.5,376.0 L194.7,376.0 L196.0,374.0 L197.3,376.0 L198.5,376.0 L199.8,376.0 L201.1,376.0 L202.4,376.0 L203.6,376.0 L204.9,376.0 L206.2,376.0 L207.5,374.0 L208.7,376.0 L210.0,376.0 L211.3,376.0 L212.5,376.0 L213.8,376.0 L215.1,376.0 L216.4,374.0 L217.6,374.0 L218.9,374.0 L220.2,376.0 L221.5,376.0 L222.7,372.0 L224.0,372.0 L225.3,374.0 L226.5,376.0 L227.8,374.0 L229.1,372.0 L230.4,374.0 L231.6,376.0 L232.9,374.0 L234.2,374.0 L235.5,374.0 L236.7,376.0 L238.0,374.0 L239.3,374.0 L240.5,374.0 L241.8,374.0 L243.1,374.0 L244.4,374.0 L245.6,374.0 L246.9,374.0 L248.2,374.0 L249.5,374.0 L250.7,376.0 L252.0,374.0 L253.3,374.0 L254.5,376.0 L255.8,372.0 L257.1,372.0 L258.4,374.0 L259.6,374.0 L260.9,374.0 L262.2,372.0 L263.5,376.0 L266.0,374.0 L267.3,374.0 L268.5,374.0 L269.8,376.0 L271.1,372.0 L272.4,374.0 L273.6,374.0 L274.9,376.0 L276.2,374.0 L277.5,372.0 L278.7,374.0 L280.0,374.0 L281.3,376.0 L282.5,374.0 L283.8,374.0 L285.1,374.0 L286.4,374.0 L287.6,374.0 L288.9,372.0 L290.2,374.0 L291.5,374.0 L292.7,374.0 L294.0,374.0 L295.3,374.0 L296.5,376.0 L297.8,374.0 L299.1,374.0 L300.4,374.0 L301.6,374.0 L302.9,376.0 L304.2,374.0 L305.5,374.0 L306.7,374.0 L308.0,374.0 L309.3,374.0 L310.5,374.0 L311.8,374.0 L313.1,374.0 L314.4,376.0 L315.6,374.0 L316.9,374.0 L318.2,374.0 L319.5,374.0 L320.7,374.0 L322.0,374.0 L323.3,374.0 L324.5,374.0 L325.8,374.0 L327.1,374.0 L328.4,374.0 L329.6,374.0 L330.9,374.0 L332.2,374.0 L333.5,374.0 L334.7,374.0 L336.0,374.0 L337.3,374.0 L338.5,374.0 L339.8,374.0 L341.1,374.0 L342.4,374.0 L343.6,374.0 L344.9,374.0 L346.2,374.0 L347.5,374.0 L348.7,374.0 L350.0,374.0 L351.3,374.0 L352.5,374.0 L353.8,374.0 L355.1,374.0 L356.4,374.0 L357.6,374.0 L358.9,374.0 L360.2,374.0 L361.5,374.0 L362.7,374.0 L364.0,374.0 L365.3,374.0 L366.5,374.0 L367.8,374.0 L369.1,374.0 L370.4,374.0 L371.6,374.0 L372.9,374.0 L374.2,374.0 L375.5,374.0 L376.7,374.0 L378.0,374.0 L379.3,374.0 L380.5,374.0 L381.8,374.0 L383.1,374.0 L384.4,374.0 L385.6,374.0 L386.9,374.0 L388.2,374.0 L389.5,374.0 L390.7,374.0 L392.0,374.0 L393.3,374.0 L394.5,374.0 L395.8,374.0 L397.1,374.0 L398.4,374.0 L399.6,374.0 L400.9,374.0 L402.2,374.0 L403.5,374.0 L404.7,374.0 L406.0,374.0 L407.3,374.0 L408.5,374.0 L409.8,374.0 L411.1,374.0 L412.4,374.0 L413.6,374.0 L414.9,374.0 L416.2,374.0 L417.5,374.0 L418.7,374.0 L420.0,374.0 L421.3,374.0 L422.5,374.0 L423.8,374.0 L425.1,374.0 L426.4,374.0 L427.6,374.0 L428.9,374.0 L430.2,374.0 L431.5,374.0 L432.7,374.0 L434.0,374.0 L435.3,374.0 L436.5,374.0 L437.8,374.0 L439.1,374.0 L440.4,374.0 L441.6,374.0 L442.9,374.0 L444.2,374.0 L445.5,374.0 L448.0,374.0 L449.3,374.0 L450.5,374.0 L451.8,374.0 L453.1,374.0 L454.4,374.0 L455.6,374.0 L456.9,374.0 L458.2,372.0 L459.5,372.0 L460.7,372.0 L462.0,372.0 L463.3,372.0 L464.5,372.0 L465.8,372.0 L467.1,372.0 L468.4,372.0 L469.6,372.0 L470.9,372.0 L472.2,372.0 L473.5,372.0 L474.7,372.0 L476.0,372.0 L477.3,372.0 L478.5,372.0 L479.8,372.0 L481.1,372.0 L482.4,372.0 L483.6,372.0 L484.9,372.0 L486.2,372.0 L487.5,372.0 L488.7,372.0 L490.0,372.0 L491.3,372.0 L492.5,372.0 L493.8,372.0 L495.1,372.0 L496.4,372.0 L497.6,372.0 L498.9,372.0 L500.2,372.0 L501.5,372.0 L502.7,372.0 L504.0,372.0 L505.3,372.0 L506.5,372.0 L507.8,372.0 L509.1,372.0 L510.4,372.0 L511.6,372.0 L512.9,372.0 L514.2,372.0 L515.5,372.0 L516.7,372.0 L518.0,372.0 L519.3,372.0 L520.5,372.0 L521.8,372.0 L523.1,372.0 L524.4,372.0 L525.6,372.0 L526.9,372.0 L528.2,372.0 L529.5,372.0 L530.7,372.0 L532.0,372.0 L533.3,372.0 L534.5,372.0 L535.8,372.0 L537.1,372.0 L538.4,372.0 L539.6,372.0 L540.9,372.0 L542.2,372.0 L543.5,372.0 L544.7,372.0 L546.0,372.0 L547.3,372.0 L548.5,372.0 L549.8,372.0 L551.1,372.0 L552.4,372.0 L553.6,372.0 L554.9,372.0 L556.2,372.0 L557.5,372.0 L558.7,372.0 L560.0,372.0 L561.3,372.0 L562.5,372.0 L563.8,372.0 L565.1,372.0 L566.4,372.0 L567.6,372.0 L568.9,370.0 L570.2,372.0 L571.5,372.0 L572.7,370.0 L574.0,370.0 L575.3,370.0 L576.5,370.0 L577.8,370.0 L579.1,370.0 L580.4,370.0 L581.6,370.0 L582.9,372.0 L584.2,370.0 L585.5,372.0 L586.7,370.0 L588.0,370.0 L589.3,370.0 L590.5,370.0 L591.8,372.0 L593.1,370.0 L594.4,370.0 L595.6,370.0 L596.9,370.0 L598.2,370.0 L599.5,370.0 L602.0,370.0 L603.3,370.0 L604.5,370.0 L605.8,370.0 L607.1,370.0 L608.4,370.0 L609.6,370.0 L610.9,368.0 L612.2,370.0 L613.5,370.0 L614.7,370.0 L616.0,370.0 L617.3,368.0 L618.5,370.0 L619.8,370.0 L621.1,370.0 L623.6,370.0 L624.9,368.0 L626.2,370.0 L627.5,370.0 L628.7,370.0 L630.0,370.0 L631.3,370.0 L632.5,370.0 L633.8,370.0 L635.1,370.0 L636.4,370.0 L637.6,370.0 L638.9,370.0 L640.2,370.0 L641.5,370.0 L642.7,368.0 L644.0,370.0 L645.3,370.0 L646.5,370.0 L647.8,370.0 L649.1,370.0 L650.4,370.0 L651.6,370.0 L652.9,370.0 L654.2,370.0 L655.5,370.0 L656.7,370.0 L658.0,370.0 L659.3,370.0 L660.5,370.0 L661.8,370.0 L663.1,370.0 L664.4,370.0 L665.6,370.0 L666.9,370.0 L668.2,370.0 L669.5,370.0 L670.7,370.0 L672.0,370.0 L673.3,370.0 L674.5,370.0 L675.8,370.0 L677.1,370.0 L678.4,370.0 L679.6,370.0 L680.9,370.0 L682.2,370.0 L683.5,370.0 L684.7,370.0 L686.0,370.0 L687.3,370.0 L688.5,372.0 L689.8,370.0 L691.1,370.0 L692.4,370.0 L693.6,372.0 L694.9,370.0 L696.2,370.0 L697.5,370.0 L698.7,372.0 L700.0,372.0 L701.3,370.0 L702.5,370.0 L703.8,372.0 L705.1,372.0 L706.4,372.0 L707.6,370.0 L708.9,372.0 L710.2,372.0 L711.5,372.0 L712.7,372.0 L714.0,372.0 L715.3,372.0 L716.5,372.0 L717.8,372.0 L719.1,370.0 L720.4,372.0 L721.6,372.0 L722.9,372.0 L724.2,372.0 L725.5,370.0 L726.7,372.0 L728.0,372.0 L729.3,372.0 L730.5,372.0 L731.8,372.0 L733.1,372.0 L734.4,372.0 L735.6,372.0 L736.9,372.0 L738.2,372.0 L739.5,372.0 L740.7,370.0 L742.0,372.0 L743.3,372.0 L744.5,372.0 L745.8,372.0 L747.1,372.0 L748.4,372.0 L749.6,372.0 L750.9,372.0 L752.2,372.0 L753.5,372.0 L754.7,372.0 L756.0,372.0 L757.3,372.0 L758.5,372.0 L759.8,372.0 L761.1,372.0 L762.4,372.0 L763.6,372.0 L764.9,372.0 L766.2,372.0 L767.5,372.0 L768.7,372.0 L770.0,372.0 L771.3,372.0 L772.5,372.0 L773.8,372.0 L775.1,372.0 L776.4,372.0 L777.6,372.0 L778.9,372.0 L780.2,372.0 L781.5,372.0 L782.7,372.0 L784.0,372.0 L785.3,372.0 L786.5,372.0 L787.8,374.0 L789.1,372.0 L791.6,374.0 L792.9,374.0 L794.2,374.0 L795.5,374.0 L796.7,374.0 L798.0,374.0 L799.3,374.0 L800.5,374.0 L801.8,374.0 L803.1,374.0 L804.4,374.0 L805.6,374.0 L806.9,374.0 L808.2,374.0 L809.5,374.0 L810.7,374.0 L812.0,374.0 L813.3,374.0 L814.5,374.0 L815.8,374.0 L817.1,374.0 L818.4,374.0 L819.6,374.0 L820.9,374.0 L822.2,374.0 L823.5,374.0 L824.7,376.0 L826.0,374.0 L827.3,374.0 L828.5,376.0 L829.8,376.0 L831.1,376.0 L832.4,376.0 L833.6,376.0 L834.9,376.0 L836.2,376.0 L837.5,376.0 L838.7,376.0 L840.0,376.0 L841.3,376.0 L842.5,376.0 L843.8,376.0 L845.1,376.0 L846.4,376.0 L847.6,376.0 L848.9,376.0 L850.2,376.0 L851.5,376.0 L852.7,376.0 L854.0,378.0 L855.3,376.0 L856.5,376.0 L857.8,378.0 L859.1,378.0 L860.4,378.0 L861.6,376.0 L862.9,378.0 L864.2,378.0 L865.5,378.0 L866.7,378.0 L868.0,378.0 L869.3,378.0 L870.5,378.0 L871.8,378.0 L873.1,378.0 L874.4,378.0 L875.6,378.0 L876.9,378.0 L878.2,378.0 L879.5,378.0 L880.7,378.0 L882.0,378.0 L883.3,378.0 L884.5,378.0 L885.8,378.0 L887.1,378.0 L888.4,378.0 L889.6,378.0 L890.9,378.0 L892.2,378.0 L893.5,378.0 L894.7,378.0 L896.0,378.0 L897.3,378.0 L898.5,378.0 L899.8,378.0 L901.1,378.0 L902.4,378.0 L903.6,378.0 L904.9,378.0 L906.2,378.0 L907.5,378.0 L908.7,378.0 L910.0,378.0 L911.3,378.0 L912.5,378.0 L913.8,378.0 L915.1,378.0 L916.4,378.0 L917.6,378.0 L918.9,378.0 L920.2,378.0 L921.5,378.0 L922.7,378.0 L924.0,378.0 L925.3,378.0 L926.5,378.0 L927.8,378.0 L929.1,378.0 L930.4,378.0 L931.6,378.0 L932.9,378.0 L934.2,378.0 L935.5,378.0 L936.7,378.0 L938.0,378.0 L939.3,378.0 L940.5,378.0 L941.8,376.0 L943.1,378.0 L944.4,378.0 L945.6,376.0 L946.9,376.0 L948.2,376.0 L949.5,378.0 L950.7,378.0 L952.0,378.0 L953.3,376.0 L954.5,378.0 L955.8,378.0 L957.1,376.0 L958.4,378.0 L959.6,378.0 L960.9,376.0 L962.2,376.0 L963.5,376.0 L964.7,376.0 L966.0,378.0 L967.3,378.0 L968.5,378.0 L969.8,376.0 L971.1,376.0 L972.4,376.0 L973.6,376.0 L974.9,376.0 L976.2,376.0 L977.5,376.0 L978.7,376.0" fill="none" stroke="#198754" stroke-width="1.5"/><rect x="75" y="360" width="14" height="4" fill="#198754"/>
<text x="93" y="364" font-size="10" fill="#212529">Pegel Mythenquai (M)</text>
<text x="500" y="594" text-anchor="middle" font-size="9" fill="#6c757d">Quellen: Tiefenbrunnen (T) + Mythenquai (M) — Wasserschutzpolizei Zürich (tecdottir.metaodi.ch) · pegelstand CLI</text>
</svg>
