<svg xmlns="http://www.w3.org/2000/svg" viewBox="0 0 1000 945" width="1000" height="945" style="font-family:Helvetica,Arial,sans-serif;background:#ffffff">
<text x="500" y="24" text-anchor="middle" font-size="16" font-weight="bold" fill="#212529">Zürichsee — 10.04.2026 bis 11.04.2026</text>
<text x="90" y="38" font-size="12" font-weight="600" fill="#212529">Temperatur  </text>
<line x1="90" y1="220.0" x2="980" y2="220.0" stroke="#dee2e6" stroke-width="0.5"/>
<text x="84" y="224.0" text-anchor="end" font-size="11" fill="#6c757d">8.0</text>
<line x1="90" y1="184.0" x2="980" y2="184.0" stroke="#dee2e6" stroke-width="0.5"/>
<text x="84" y="188.0" text-anchor="end" font-size="11" fill="#6c757d">9.6</text>
<line x1="90" y1="148.0" x2="980" y2="148.0" stroke="#dee2e6" stroke-width="0.5"/>
<text x="84" y="152.0" text-anchor="end" font-size="11" fill="#6c757d">11.2</text>
<line x1="90" y1="112.0" x2="980" y2="112.0" stroke="#dee2e6" stroke-width="0.5"/>
<text x="84" y="116.0" text-anchor="end" font-size="11" fill="#6c757d">12.8</text>
<line x1="90" y1="76.0" x2="980" y2="76.0" stroke="#dee2e6" stroke-width="0.5"/>
<text x="84" y="80.0" text-anchor="end" font-size="11" fill="#6c757d">14.4</text>
<line x1="90" y1="40.0" x2="980" y2="40.0" stroke="#dee2e6" stroke-width="0.5"/>
<text x="84" y="44.0" text-anchor="end" font-size="11" fill="#6c757d">16.0 °C</text>
<line x1="90.0" y1="40" x2="90.0" y2="220" stroke="#dee2e6" stroke-width="0.5" stroke-dasharray="4,4"/>
<text x="90.0" y="232" text-anchor="middle" font-size="8" fill="#6c757d">09.04.2026</text>
<text x="90.0" y="242" text-anchor="middle" font-size="8" fill="#6c757d">22:00</text>
<line x1="201.9" y1="40" x2="201.9" y2="220" stroke="#dee2e6" stroke-width="0.5" stroke-dasharray="4,4"/>
<text x="201.9" y="232" text-anchor="middle" font-size="8" fill="#6c757d">10.04.2026</text>
<text x="201.9" y="242" text-anchor="middle" font-size="8" fill="#6c757d">02:40</text>
<line x1="313.7" y1="40" x2="313.7" y2="220" stroke="#dee2e6" stroke-width="0.5" stroke-dasharray="4,4"/>
<text x="313.7" y="235" text-anchor="middle" font-size="9" fill="#6c757d">06:30</text>
<line x1="425.6" y1="40" x2="425.6" y2="220" stroke="#dee2e6" stroke-width="0.5" stroke-dasharray="4,4"/>
<text x="425.6" y="235" text-anchor="middle" font-size="9" fill="#6c757d">10:20</text>
<line x1="537.4" y1="40" x2="537.4" y2="220" stroke="#dee2e6" stroke-width="0.5" stroke-dasharray="4,4"/>
<text x="537.4" y="235" text-anchor="middle" font-size="9" fill="#6c757d">14:10</text>
<line x1="649.3" y1="40" x2="649.3" y2="220" stroke="#dee2e6" stroke-width="0.5" stroke-dasharray="4,4"/>
<text x="649.3" y="235" text-anchor="middle" font-size="9" fill="#6c757d">18:00</text>
<line x1="761.1" y1="40" x2="761.1" y2="220" stroke="#dee2e6" stroke-width="0.5" stroke-dasharray="4,4"/>
<text x="761.1" y="235" text-anchor="middle" font-size="9" fill="#6c757d">21:50</text>
<line x1="873.0" y1="40" x2="873.0" y2="220" stroke="#dee2e6" stroke-width="0.5" stroke-dasharray="4,4"/>
<text x="873.0" y="232" text-anchor="middle" font-size="8" fill="#6c757d">11.04.2026</text>
<text x="873.0" y="242" text-anchor="middle" font-size="8" fill="#6c757d">01:40</text>
<path d="M90.0,166.0 L94.9,163.8 L99.7,172.8 L104.6,175.0 L109.5,175.0 L114.3,175.0 L119.2,179.5 L124.0,179.5 L128.9,179.5 L133.8,181.8 L138.6,184.0 L143.5,181.8 L148.4,184.0 L153.2,186.2 L158.1,188.5 L163.0,188.5 L167.8,184.0 L172.7,181.8 L177.5,166.0 L182.4,166.0 L187.3,157.0 L192.1,139.0 L197.0,141.2 L201.9,145.8 L206.7,145.8 L211.6,143.5 L216.4,136.8 L221.3,136.8 L226.2,145.8 L231.0,143.5 L235.9,132.2 L240.8,134.5 L245.6,134.5 L250.5,130.0 L255.4,130.0 L260.2,130.0 L265.1,139.0 L269.9,132.2 L274.8,132.2 L279.7,134.5 L284.5,141.2 L289.4,148.0 L294.3,136.8 L299.1,141.2 L304.0,130.0 L308.9,130.0 L313.7,130.0 L318.6,132.2 L323.4,130.0 L328.3,127.8 L333.2,130.0 L338.0,127.8 L342.9,127.8 L347.8,127.8 L352.6,127.8 L357.5,127.8 L362.3,127.8 L367.2,127.8 L372.1,127.8 L376.9,127.8 L381.8,125.5 L386.7,125.5 L391.5,127.8 L396.4,125.5 L401.3,125.5 L406.1,125.5 L411.0,125.5 L415.8,125.5 L420.7,125.5 L425.6,123.2 L430.4,123.2 L435.3,121.0 L440.2,121.0 L445.0,121.0 L449.9,121.0 L454.8,121.0 L459.6,121.0 L464.5,118.8 L469.3,118.8 L474.2,118.8 L479.1,118.8 L483.9,118.8 L488.8,118.8 L493.7,118.8 L498.5,116.5 L503.4,116.5 L508.3,116.5 L513.1,116.5 L518.0,116.5 L522.8,116.5 L527.7,116.5 L532.6,116.5 L537.4,118.8 L542.3,116.5 L547.2,116.5 L552.0,116.5 L556.9,116.5 L561.7,114.3 L566.6,114.3 L571.5,116.5 L576.3,114.3 L581.2,114.3 L586.1,114.3 L590.9,114.3 L595.8,114.3 L600.7,114.3 L605.5,114.3 L610.4,114.3 L615.2,114.3 L620.1,114.3 L625.0,114.3 L629.8,114.3 L634.7,114.3 L639.6,114.3 L644.4,114.3 L649.3,114.3 L654.2,114.3 L659.0,116.5 L663.9,118.8 L668.7,118.8 L673.6,116.5 L678.5,118.8 L683.3,121.0 L688.2,118.8 L693.1,121.0 L697.9,121.0 L702.8,121.0 L707.7,121.0 L712.5,121.0 L717.4,121.0 L722.2,123.2 L727.1,123.2 L732.0,125.5 L736.8,123.2 L741.7,125.5 L746.6,125.5 L751.4,125.5 L756.3,125.5 L761.1,125.5 L766.0,125.5 L770.9,125.5 L775.7,125.5 L780.6,125.5 L785.5,125.5 L790.3,125.5 L795.2,125.5 L800.1,125.5 L804.9,125.5 L809.8,125.5 L814.6,125.5 L819.5,125.5 L824.4,123.2 L829.2,123.2 L834.1,123.2 L839.0,123.2 L843.8,123.2 L848.7,121.0 L853.6,121.0 L858.4,123.2 L863.3,123.2 L868.1,121.0 L873.0,121.0 L877.9,121.0 L882.7,121.0 L887.6,121.0 L892.5,121.0 L897.3,121.0 L902.2,123.2 L907.0,123.2 L911.9,123.2 L916.8,123.2 L921.6,123.2 L926.5,123.2 L931.4,123.2 L936.2,123.2 L941.1,123.2 L946.0,123.2 L950.8,123.2 L955.7,123.2 L960.5,123.2 L965.4,123.2 L970.3,123.2 L975.1,123.2 L980.0,123.2 L980.0,220.0 L90.0,220.0 Z" fill="#0d6efd" opacity="0.15" stroke="none"/><path d="M90.0,166.0 L94.9,163.8 L99.7,172.8 L104.6,175.0 L109.5,175.0 L114.3,175.0 L119.2,179.5 L124.0,179.5 L128.9,179.5 L133.8,181.8 L138.6,184.0 L143.5,181.8 L148.4,184.0 L153.2,186.2 L158.1,188.5 L163.0,188.5 L167.8,184.0 L172.7,181.8 L177.5,166.0 L182.4,166.0 L187.3,157.0 L192.1,139.0 L197.0,141.2 L201.9,145.8 L206.7,145.8 L211.6,143.5 L216.4,136.8 L221.3,136.8 L226.2,145.8 L231.0,143.5 L235.9,132.2 L240.8,134.5 L245.6,134.5 L250.5,130.0 L255.4,130.0 L260.2,130.0 L265.1,139.0 L269.9,132.2 L274.8,132.2 L279.7,134.5 L284.5,141.2 L289.4,148.0 L294.3,136.8 L299.1,141.2 L304.0,130.0 L308.9,130.0 L313.7,130.0 L318.6,132.2 L323.4,130.0 L328.3,127.8 L333.2,130.0 L338.0,127.8 L342.9,127.8 L347.8,127.8 L352.6,127.8 L357.5,127.8 L362.3,127.8 L367.2,127.8 L372.1,127.8 L376.9,127.8 L381.8,125.5 L386.7,125.5 L391.5,127.8 L396.4,125.5 L401.3,125.5 L406.1,125.5 L411.0,125.5 L415.8,125.5 L420.7,125.5 L425.6,123.2 L430.4,123.2 L435.3,121.0 L440.2,121.0 L445.0,121.0 L449.9,121.0 L454.8,121.0 L459.6,121.0 L464.5,118.8 L469.3,118.8 L474.2,118.8 L479.1,118.8 L483.9,118.8 L488.8,118.8 L493.7,118.8 L498.5,116.5 L503.4,116.5 L508.3,116.5 L513.1,116.5 L518.0,116.5 L522.8,116.5 L527.7,116.5 L532.6,116.5 L537.4,118.8 L542.3,116.5 L547.2,116.5 L552.0,116.5 L556.9,116.5 L561.7,114.3 L566.6,114.3 L571.5,116.5 L576.3,114.3 L581.2,114.3 L586.1,114.3 L590.9,114.3 L595.8,114.3 L600.7,114.3 L605.5,114.3 L610.4,114.3 L615.2,114.3 L620.1,114.3 L625.0,114.3 L629.8,114.3 L634.7,114.3 L639.6,114.3 L644.4,114.3 L649.3,114.3 L654.2,114.3 L659.0,116.5 L663.9,118.8 L668.7,118.8 L673.6,116.5 L678.5,118.8 L683.3,121.0 L688.2,118.8 L693.1,121.0 L697.9,121.0 L702.8,121.0 L707.7,121.0 L712.5,121.0 L717.4,121.0 L722.2,123.2 L727.1,123.2 L732.0,125.5 L736.8,123.2 L741.7,125.5 L746.6,125.5 L751.4,125.5 L756.3,125.5 L761.1,125.5 L766.0,125.5 L770.9,125.5 L775.7,125.5 L780.6,125.5 L785.5,125.5 L790.3,125.5 L795.2,125.5 L800.1,125.5 L804.9,125.5 L809.8,125.5 L814.6,125.5 L819.5,125.5 L824.4,123.2 L829.2,123.2 L834.1,123.2 L839.0,123.2 L843.8,123.2 L848.7,121.0 L853.6,121.0 L858.4,123.2 L863.3,123.2 L868.1,121.0 L873.0,121.0 L877.9,121.0 L882.7,121.0 L887.6,121.0 L892.5,121.0 L897.3,121.0 L902.2,123.2 L907.0,123.2 L911.9,123.2 L916.8,123.2 L921.6,123.2 L926.5,123.2 L931.4,123.2 L936.2,123.2 L941.1,123.2 L946.0,123.2 L950.8,123.2 L955.7,123.2 L960.5,123.2 L965.4,123.2 L970.3,123.2 L975.1,123.2 L980.0,123.2" fill="none" stroke="#0d6efd" stroke-width="1.5"/><path d="M90.0,87.2 L94.9,89.5 L99.7,94.0 L104.6,96.2 L109.5,98.5 L114.3,100.7 L119.2,103.0 L124.0,105.3 L128.9,109.7 L133.8,112.0 L138.6,116.5 L143.5,118.8 L148.4,121.0 L153.2,123.2 L158.1,125.5 L163.0,127.8 L167.8,130.0 L172.7,132.2 L177.5,148.0 L182.4,152.5 L187.3,154.8 L192.1,157.0 L197.0,159.2 L201.9,161.5 L206.7,163.8 L211.6,166.0 L216.4,166.0 L221.3,168.2 L226.2,168.2 L231.0,170.5 L235.9,170.5 L240.8,170.5 L245.6,170.5 L250.5,168.2 L255.4,168.2 L260.2,163.8 L265.1,161.5 L269.9,157.0 L274.8,152.5 L279.7,150.2 L284.5,150.2 L289.4,150.2 L294.3,145.8 L299.1,145.8 L304.0,143.5 L308.9,141.2 L313.7,139.0 L318.6,136.8 L323.4,134.5 L328.3,134.5 L333.2,134.5 L338.0,134.5 L342.9,132.2 L347.8,132.2 L352.6,132.2 L357.5,130.0 L362.3,130.0 L367.2,127.8 L372.1,127.8 L376.9,125.5 L381.8,121.0 L386.7,116.5 L391.5,112.0 L396.4,118.8 L401.3,121.0 L406.1,118.8 L411.0,116.5 L415.8,114.3 L420.7,112.0 L425.6,109.7 L430.4,105.3 L435.3,105.3 L440.2,100.7 L445.0,100.7 L449.9,96.2 L454.8,91.8 L459.6,94.0 L464.5,94.0 L469.3,98.5 L474.2,96.2 L479.1,91.8 L483.9,87.2 L488.8,80.5 L493.7,80.5 L498.5,78.2 L503.4,71.5 L508.3,67.0 L513.1,62.5 L518.0,60.2 L522.8,58.0 L527.7,55.7 L532.6,73.8 L537.4,89.5 L542.3,94.0 L547.2,96.2 L552.0,98.5 L556.9,98.5 L561.7,98.5 L566.6,100.7 L571.5,103.0 L576.3,107.5 L581.2,103.0 L586.1,98.5 L590.9,96.2 L595.8,94.0 L600.7,94.0 L605.5,96.2 L610.4,96.2 L615.2,91.8 L620.1,89.5 L625.0,96.2 L629.8,96.2 L634.7,96.2 L639.6,103.0 L644.4,103.0 L649.3,105.3 L654.2,105.3 L659.0,109.7 L663.9,114.3 L668.7,114.3 L673.6,114.3 L678.5,109.7 L683.3,109.7 L688.2,109.7 L693.1,109.7 L697.9,109.7 L702.8,112.0 L707.7,114.3 L712.5,116.5 L717.4,118.8 L722.2,118.8 L727.1,121.0 L732.0,121.0 L736.8,123.2 L741.7,125.5 L746.6,127.8 L751.4,132.2 L756.3,134.5 L761.1,136.8 L766.0,139.0 L770.9,145.8 L775.7,148.0 L780.6,150.2 L785.5,154.8 L790.3,159.2 L795.2,161.5 L800.1,163.8 L804.9,168.2 L809.8,170.5 L814.6,170.5 L819.5,170.5 L824.4,170.5 L829.2,170.5 L834.1,170.5 L839.0,172.8 L843.8,172.8 L848.7,175.0 L853.6,175.0 L858.4,175.0 L863.3,177.2 L868.1,179.5 L873.0,181.8 L877.9,184.0 L882.7,186.2 L887.6,188.5 L892.5,188.5 L897.3,190.8 L902.2,197.5 L907.0,197.5 L911.9,197.5 L916.8,197.5 L921.6,195.2 L926.5,195.2 L931.4,195.2 L936.2,193.0 L941.1,193.0 L946.0,190.8 L950.8,190.8 L955.7,190.8 L960.5,188.5 L965.4,188.5 L970.3,186.2 L975.1,188.5 L980.0,186.2" fill="none" stroke="#dc3545" stroke-width="1.5"/><rect x="95" y="50" width="14" height="4" fill="#0d6efd"/>
<text x="113" y="54" font-size="10" fill="#212529">Wassertemperatur (T)</text>
<rect x="248" y="50" width="14" height="4" fill="#dc3545"/>
<text x="266" y="54" font-size="10" fill="#212529">Lufttemperatur (T)</text>
<text x="90" y="263" font-size="12" font-weight="600" fill="#212529">Pegelstand  </text>
<line x1="90" y1="445.0" x2="980" y2="445.0" stroke="#dee2e6" stroke-width="0.5"/>
<text x="84" y="449.0" text-anchor="end" font-size="11" fill="#6c757d">405.00</text>
<line x1="90" y1="409.0" x2="980" y2="409.0" stroke="#dee2e6" stroke-width="0.5"/>
<text x="84" y="413.0" text-anchor="end" font-size="11" fill="#6c757d">405.20</text>
<line x1="90" y1="373.0" x2="980" y2="373.0" stroke="#dee2e6" stroke-width="0.5"/>
<text x="84" y="377.0" text-anchor="end" font-size="11" fill="#6c757d">405.40</text>
<line x1="90" y1="337.0" x2="980" y2="337.0" stroke="#dee2e6" stroke-width="0.5"/>
<text x="84" y="341.0" text-anchor="end" font-size="11" fill="#6c757d">405.60</text>
<line x1="90" y1="301.0" x2="980" y2="301.0" stroke="#dee2e6" stroke-width="0.5"/>
<text x="84" y="305.0" text-anchor="end" font-size="11" fill="#6c757d">405.80</text>
<line x1="90" y1="265.0" x2="980" y2="265.0" stroke="#dee2e6" stroke-width="0.5"/>
<text x="84" y="269.0" text-anchor="end" font-size="11" fill="#6c757d">406.00 m ü.M.</text>
<line x1="90.0" y1="265" x2="90.0" y2="445" stroke="#dee2e6" stroke-width="0.5" stroke-dasharray="4,4"/>
<text x="90.0" y="457" text-anchor="middle" font-size="8" fill="#6c757d">09.04.2026</text>
<text x="90.0" y="467" text-anchor="middle" font-size="8" fill="#6c757d">22:00</text>
<line x1="201.9" y1="265" x2="201.9" y2="445" stroke="#dee2e6" stroke-width="0.5" stroke-dasharray="4,4"/>
<text x="201.9" y="457" text-anchor="middle" font-size="8" fill="#6c757d">10.04.2026</text>
<text x="201.9" y="467" text-anchor="middle" font-size="8" fill="#6c757d">02:40</text>
<line x1="313.7" y1="265" x2="313.7" y2="445" stroke="#dee2e6" stroke-width="0.5" stroke-dasharray="4,4"/>
<text x="313.7" y="460" text-anchor="middle" font-size="9" fill="#6c757d">06:30</text>
<line x1="425.6" y1="265" x2="425.6" y2="445" stroke="#dee2e6" stroke-width="0.5" stroke-dasharray="4,4"/>
<text x="425.6" y="460" text-anchor="middle" font-size="9" fill="#6c757d">10:20</text>
<line x1="537.4" y1="265" x2="537.4" y2="445" stroke="#dee2e6" stroke-width="0.5" stroke-dasharray="4,4"/>
<text x="537.4" y="460" text-anchor="middle" font-size="9" fill="#6c757d">14:10</text>
<line x1="649.3" y1="265" x2="649.3" y2="445" stroke="#dee2e6" stroke-width="0.5" stroke-dasharray="4,4"/>
<text x="649.3" y="460" text-anchor="middle" font-size="9" fill="#6c757d">18:00</text>
<line x1="761.1" y1="265" x2="761.1" y2="445" stroke="#dee2e6" stroke-width="0.5" stroke-dasharray="4,4"/>
<text x="761.1" y="460" text-anchor="middle" font-size="9" fill="#6c757d">21:50</text>
<line x1="873.0" y1="265" x2="873.0" y2="445" stroke="#dee2e6" stroke-width="0.5" stroke-dasharray="4,4"/>
<text x="873.0" y="457" text-anchor="middle" font-size="8" fill="#6c757d">11.04.2026</text>
<text x="873.0" y="467" text-anchor="middle" font-size="8" fill="#6c757d">01:40</text>
<path d="M90.0,290.2 L94.9,290.2 L99.7,290.2 L104.6,290.2 L109.5,290.2 L114.3,290.2 L119.2,290.2 L124.0,290.2 L128.9,290.2 L133.8,290.2 L138.6,290.2 L143.5,290.2 L148.4,290.2 L153.2,290.2 L158.1,290.2 L163.0,288.4 L167.8,290.2 L172.7,290.2 L177.5,288.4 L182.4,288.4 L187.3,288.4 L192.1,290.2 L197.0,290.2 L201.9,290.2 L206.7,288.4 L211.6,290.2 L216.4,290.2 L221.3,288.4 L226.2,290.2 L231.0,290.2 L235.9,288.4 L240.8,288.4 L245.6,288.4 L250.5,288.4 L255.4,290.2 L260.2,290.2 L265.1,290.2 L269.9,288.4 L274.8,288.4 L279.7,288.4 L284.5,288.4 L289.4,288.4 L294.3,288.4 L299.1,288.4 L304.0,288.4 L308.9,288.4 L313.7,288.4 L318.6,288.4 L323.4,288.4 L328.3,288.4 L333.2,290.2 L338.0,288.4 L342.9,288.4 L347.8,288.4 L352.6,288.4 L357.5,288.4 L362.3,288.4 L367.2,288.4 L372.1,288.4 L376.9,288.4 L381.8,288.4 L386.7,288.4 L391.5,288.4 L396.4,288.4 L401.3,288.4 L406.1,288.4 L411.0,288.4 L415.8,288.4 L420.7,288.4 L425.6,288.4 L430.4,288.4 L435.3,288.4 L440.2,288.4 L445.0,288.4 L449.9,288.4 L454.8,288.4 L459.6,288.4 L464.5,288.4 L469.3,286.6 L474.2,288.4 L479.1,288.4 L483.9,288.4 L488.8,288.4 L493.7,288.4 L498.5,288.4 L503.4,286.6 L508.3,288.4 L513.1,286.6 L518.0,288.4 L522.8,286.6 L527.7,286.6 L532.6,286.6 L537.4,286.6 L542.3,288.4 L547.2,286.6 L552.0,286.6 L556.9,288.4 L561.7,288.4 L566.6,286.6 L571.5,286.6 L576.3,286.6 L581.2,288.4 L586.1,286.6 L590.9,286.6 L595.8,286.6 L600.7,286.6 L605.5,286.6 L610.4,286.6 L615.2,286.6 L620.1,286.6 L625.0,288.4 L629.8,286.6 L634.7,286.6 L639.6,286.6 L644.4,286.6 L649.3,286.6 L654.2,286.6 L659.0,286.6 L663.9,286.6 L668.7,286.6 L673.6,286.6 L678.5,286.6 L683.3,286.6 L688.2,286.6 L693.1,286.6 L697.9,286.6 L702.8,286.6 L707.7,286.6 L712.5,286.6 L717.4,286.6 L722.2,284.8 L727.1,286.6 L732.0,286.6 L736.8,286.6 L741.7,286.6 L746.6,286.6 L751.4,286.6 L756.3,286.6 L761.1,286.6 L766.0,284.8 L770.9,286.6 L775.7,286.6 L780.6,286.6 L785.5,286.6 L790.3,284.8 L795.2,286.6 L800.1,284.8 L804.9,286.6 L809.8,284.8 L814.6,286.6 L819.5,286.6 L824.4,284.8 L829.2,284.8 L834.1,284.8 L839.0,286.6 L843.8,284.8 L848.7,284.8 L853.6,284.8 L858.4,284.8 L863.3,286.6 L868.1,284.8 L897.3,286.6 L902.2,286.6 L907.0,284.8 L911.9,284.8 L916.8,286.6 L921.6,286.6 L926.5,284.8 L931.4,284.8 L936.2,286.6 L941.1,286.6 L946.0,284.8 L950.8,286.6 L955.7,286.6 L960.5,286.6 L965.4,284.8 L970.3,284.8 L975.1,284.8 L975.1,445.0 L90.0,445.0 Z" fill="#198754" opacity="0.15" stroke="none"/><path d="M90.0,290.2 L94.9,290.2 L99.7,290.2 L104.6,290.2 L109.5,290.2 L114.3,290.2 L119.2,290.2 L124.0,290.2 L128.9,290.2 L133.8,290.2 L138.6,290.2 L143.5,290.2 L148.4,290.2 L153.2,290.2 L158.1,290.2 L163.0,288.4 L167.8,290.2 L172.7,290.2 L177.5,288.4 L182.4,288.4 L187.3,288.4 L192.1,290.2 L197.0,290.2 L201.9,290.2 L206.7,288.4 L211.6,290.2 L216.4,290.2 L221.3,288.4 L226.2,290.2 L231.0,290.2 L235.9,288.4 L240.8,288.4 L245.6,288.4 L250.5,288.4 L255.4,290.2 L260.2,290.2 L265.1,290.2 L269.9,288.4 L274.8,288.4 L279.7,288.4 L284.5,288.4 L289.4,288.4 L294.3,288.4 L299.1,288.4 L304.0,288.4 L308.9,288.4 L313.7,288.4 L318.6,288.4 L323.4,288.4 L328.3,288.4 L333.2,290.2 L338.0,288.4 L342.9,288.4 L347.8,288.4 L352.6,288.4 L357.5,288.4 L362.3,288.4 L367.2,288.4 L372.1,288.4 L376.9,288.4 L381.8,288.4 L386.7,288.4 L391.5,288.4 L396.4,288.4 L401.3,288.4 L406.1,288.4 L411.0,288.4 L415.8,288.4 L420.7,288.4 L425.6,288.4 L430.4,288.4 L435.3,288.4 L440.2,288.4 L445.0,288.4 L449.9,288.4 L454.8,288.4 L459.6,288.4 L464.5,288.4 L469.3,286.6 L474.2,288.4 L479.1,288.4 L483.9,288.4 L488.8,288.4 L493.7,288.4 L498.5,288.4 L503.4,286.6 L508.3,288.4 L513.1,286.6 L518.0,288.4 L522.8,286.6 L527.7,286.6 L532.6,286.6 L537.4,286.6 L542.3,288.4 L547.2,286.6 L552.0,286.6 L556.9,288.4 L561.7,288.4 L566.6,286.6 L571.5,286.6 L576.3,286.6 L581.2,288.4 L586.1,286.6 L590.9,286.6 L595.8,286.6 L600.7,286.6 L605.5,286.6 L610.4,286.6 L615.2,286.6 L620.1,286.6 L625.0,288.4 L629.8,286.6 L634.7,286.6 L639.6,286.6 L644.4,286.6 L649.3,286.6 L654.2,286.6 L659.0,286.6 L663.9,286.6 L668.7,286.6 L673.6,286.6 L678.5,286.6 L683.3,286.6 L688.2,286.6 L693.1,286.6 L697.9,286.6 L702.8,286.6 L707.7,286.6 L712.5,286.6 L717.4,286.6 L722.2,284.8 L727.1,286.6 L732.0,286.6 L736.8,286.6 L741.7,286.6 L746.6,286.6 L751.4,286.6 L756.3,286.6 L761.1,286.6 L766.0,284.8 L770.9,286.6 L775.7,286.6 L780.6,286.6 L785.5,286.6 L790.3,284.8 L795.2,286.6 L800.1,284.8 L804.9,286.6 L809.8,284.8 L814.6,286.6 L819.5,286.6 L824.4,284.8 L829.2,284.8 L834.1,284.8 L839.0,286.6 L843.8,284.8 L848.7,284.8 L853.6,284.8 L858.4,284.8 L863.3,286.6 L868.1,284.8 L897.3,286.6 L902.2,286.6 L907.0,284.8 L911.9,284.8 L916.8,286.6 L921.6,286.6 L926.5,284.8 L931.4,284.8 L936.2,286.6 L941.1,286.6 L946.0,284.8 L950.8,286.6 L955.7,286.6 L960.5,286.6 L965.4,284.8 L970.3,284.8 L975.1,284.8" fill="none" stroke="#198754" stroke-width="1.5"/><rect x="95" y="275" width="14" height="4" fill="#198754"/>
<text x="113" y="279" font-size="10" fill="#212529">Pegel Mythenquai (M)</text>
<text x="90" y="488" font-size="12" font-weight="600" fill="#212529">Wind &amp; Böen  </text>
<line x1="90" y1="670.0" x2="980" y2="670.0" stroke="#dee2e6" stroke-width="0.5"/>
<text x="84" y="674.0" text-anchor="end" font-size="11" fill="#6c757d">-1.0</text>
<line x1="90" y1="634.0" x2="980" y2="634.0" stroke="#dee2e6" stroke-width="0.5"/>
<text x="84" y="638.0" text-anchor="end" font-size="11" fill="#6c757d">0.0</text>
<line x1="90" y1="598.0" x2="980" y2="598.0" stroke="#dee2e6" stroke-width="0.5"/>
<text x="84" y="602.0" text-anchor="end" font-size="11" fill="#6c757d">1.0</text>
<line x1="90" y1="562.0" x2="980" y2="562.0" stroke="#dee2e6" stroke-width="0.5"/>
<text x="84" y="566.0" text-anchor="end" font-size="11" fill="#6c757d">2.0</text>
<line x1="90" y1="526.0" x2="980" y2="526.0" stroke="#dee2e6" stroke-width="0.5"/>
<text x="84" y="530.0" text-anchor="end" font-size="11" fill="#6c757d">3.0</text>
<line x1="90" y1="490.0" x2="980" y2="490.0" stroke="#dee2e6" stroke-width="0.5"/>
<text x="84" y="494.0" text-anchor="end" font-size="11" fill="#6c757d">4.0 m/s</text>
<line x1="90.0" y1="490" x2="90.0" y2="670" stroke="#dee2e6" stroke-width="0.5" stroke-dasharray="4,4"/>
<text x="90.0" y="682" text-anchor="middle" font-size="8" fill="#6c757d">09.04.2026</text>
<text x="90.0" y="692" text-anchor="middle" font-size="8" fill="#6c757d">22:00</text>
<line x1="201.9" y1="490" x2="201.9" y2="670" stroke="#dee2e6" stroke-width="0.5" stroke-dasharray="4,4"/>
<text x="201.9" y="682" text-anchor="middle" font-size="8" fill="#6c757d">10.04.2026</text>
<text x="201.9" y="692" text-anchor="middle" font-size="8" fill="#6c757d">02:40</text>
<line x1="313.7" y1="490" x2="313.7" y2="670" stroke="#dee2e6" stroke-width="0.5" stroke-dasharray="4,4"/>
<text x="313.7" y="685" text-anchor="middle" font-size="9" fill="#6c757d">06:30</text>
<line x1="425.6" y1="490" x2="425.6" y2="670" stroke="#dee2e6" stroke-width="0.5" stroke-dasharray="4,4"/>
<text x="425.6" y="685" text-anchor="middle" font-size="9" fill="#6c757d">10:20</text>
<line x1="537.4" y1="490" x2="537.4" y2="670" stroke="#dee2e6" stroke-width="0.5" stroke-dasharray="4,4"/>
<text x="537.4" y="685" text-anchor="middle" font-size="9" fill="#6c757d">14:10</text>
<line x1="649.3" y1="490" x2="649.3" y2="670" stroke="#dee2e6" stroke-width="0.5" stroke-dasharray="4,4"/>
<text x="649.3" y="685" text-anchor="middle" font-size="9" fill="#6c757d">18:00</text>
<line x1="761.1" y1="490" x2="761.1" y2="670" stroke="#dee2e6" stroke-width="0.5" stroke-dasharray="4,4"/>
<text x="761.1" y="685" text-anchor="middle" font-size="9" fill="#6c757d">21:50</text>
<line x1="873.0" y1="490" x2="873.0" y2="670" stroke="#dee2e6" stroke-width="0.5" stroke-dasharray="4,4"/>
<text x="873.0" y="682" text-anchor="middle" font-size="8" fill="#6c757d">11.04.2026</text>
<text x="873.0" y="692" text-anchor="middle" font-size="8" fill="#6c757d">01:40</text>
<path d="M90.0,634.0 L94.9,634.0 L99.7,630.4 L104.6,634.0 L109.5,634.0 L114.3,634.0 L119.2,634.0 L124.0,634.0 L128.9,634.0 L133.8,630.4 L138.6,634.0 L143.5,634.0 L148.4,626.8 L153.2,634.0 L158.1,634.0 L163.0,634.0 L167.8,634.0 L172.7,634.0 L177.5,634.0 L182.4,634.0 L187.3,634.0 L192.1,634.0 L197.0,634.0 L201.9,634.0 L206.7,634.0 L211.6,634.0 L216.4,634.0 L221.3,634.0 L226.2,634.0 L231.0,634.0 L235.9,634.0 L240.8,634.0 L245.6,634.0 L250.5,634.0 L255.4,634.0 L260.2,634.0 L265.1,626.8 L269.9,634.0 L274.8,630.4 L279.7,634.0 L284.5,634.0 L289.4,623.2 L294.3,623.2 L299.1,623.2 L304.0,608.8 L308.9,623.2 L313.7,623.2 L318.6,626.8 L323.4,626.8 L328.3,630.4 L333.2,634.0 L338.0,630.4 L342.9,634.0 L347.8,634.0 L352.6,630.4 L357.5,634.0 L362.3,634.0 L367.2,634.0 L372.1,630.4 L376.9,634.0 L381.8,634.0 L386.7,634.0 L391.5,634.0 L396.4,623.2 L401.3,626.8 L406.1,634.0 L411.0,630.4 L415.8,612.4 L420.7,626.8 L425.6,634.0 L430.4,630.4 L435.3,623.2 L440.2,630.4 L445.0,608.8 L449.9,616.0 L454.8,616.0 L459.6,634.0 L464.5,598.0 L469.3,612.4 L474.2,630.4 L479.1,616.0 L483.9,594.4 L488.8,580.0 L493.7,594.4 L498.5,608.8 L503.4,619.6 L508.3,634.0 L513.1,626.8 L518.0,634.0 L522.8,634.0 L527.7,626.8 L532.6,608.8 L537.4,605.2 L542.3,608.8 L547.2,608.8 L552.0,608.8 L556.9,619.6 L561.7,612.4 L566.6,626.8 L571.5,569.2 L576.3,608.8 L581.2,630.4 L586.1,634.0 L590.9,634.0 L595.8,634.0 L600.7,630.4 L605.5,630.4 L610.4,619.6 L615.2,605.2 L620.1,619.6 L625.0,626.8 L629.8,634.0 L634.7,630.4 L639.6,616.0 L644.4,630.4 L649.3,619.6 L654.2,608.8 L659.0,590.8 L663.9,583.6 L668.7,616.0 L673.6,605.2 L678.5,612.4 L683.3,630.4 L688.2,626.8 L693.1,634.0 L697.9,634.0 L702.8,634.0 L707.7,634.0 L712.5,634.0 L717.4,626.8 L722.2,634.0 L727.1,634.0 L732.0,634.0 L736.8,634.0 L741.7,634.0 L746.6,634.0 L751.4,634.0 L756.3,634.0 L761.1,634.0 L766.0,634.0 L770.9,634.0 L775.7,634.0 L780.6,634.0 L785.5,634.0 L790.3,634.0 L795.2,634.0 L800.1,634.0 L804.9,634.0 L809.8,634.0 L814.6,634.0 L819.5,634.0 L824.4,634.0 L829.2,634.0 L834.1,634.0 L839.0,634.0 L843.8,634.0 L848.7,634.0 L853.6,634.0 L858.4,634.0 L863.3,630.4 L868.1,634.0 L873.0,634.0 L877.9,634.0 L882.7,634.0 L887.6,634.0 L892.5,616.0 L897.3,634.0 L902.2,634.0 L907.0,634.0 L911.9,634.0 L916.8,634.0 L921.6,634.0 L926.5,634.0 L931.4,634.0 L936.2,634.0 L941.1,634.0 L946.0,634.0 L950.8,630.4 L955.7,634.0 L960.5,623.2 L965.4,619.6 L970.3,616.0 L975.1,623.2 L980.0,626.8" fill="none" stroke="#198754" stroke-width="1.5"/><path d="M90.0,626.8 L94.9,634.0 L99.7,605.2 L104.6,612.4 L109.5,634.0 L114.3,634.0 L119.2,634.0 L124.0,634.0 L128.9,623.2 L133.8,608.8 L138.6,634.0 L143.5,626.8 L148.4,598.0 L153.2,634.0 L158.1,634.0 L163.0,634.0 L167.8,634.0 L172.7,634.0 L177.5,634.0 L182.4,634.0 L187.3,634.0 L192.1,630.4 L197.0,634.0 L201.9,634.0 L206.7,634.0 L211.6,634.0 L216.4,634.0 L221.3,634.0 L226.2,623.2 L231.0,634.0 L235.9,634.0 L240.8,634.0 L245.6,634.0 L250.5,634.0 L255.4,634.0 L260.2,634.0 L265.1,590.8 L269.9,634.0 L274.8,601.6 L279.7,612.4 L284.5,612.4 L289.4,583.6 L294.3,580.0 L299.1,569.2 L304.0,576.4 L308.9,569.2 L313.7,587.2 L318.6,598.0 L323.4,590.8 L328.3,587.2 L333.2,634.0 L338.0,590.8 L342.9,612.4 L347.8,590.8 L352.6,598.0 L357.5,619.6 L362.3,634.0 L367.2,634.0 L372.1,605.2 L376.9,612.4 L381.8,634.0 L386.7,630.4 L391.5,630.4 L396.4,594.4 L401.3,601.6 L406.1,619.6 L411.0,594.4 L415.8,587.2 L420.7,601.6 L425.6,612.4 L430.4,605.2 L435.3,601.6 L440.2,583.6 L445.0,565.6 L449.9,583.6 L454.8,576.4 L459.6,612.4 L464.5,544.0 L469.3,580.0 L474.2,605.2 L479.1,572.8 L483.9,544.0 L488.8,551.2 L493.7,569.2 L498.5,583.6 L503.4,601.6 L508.3,608.8 L513.1,594.4 L518.0,612.4 L522.8,634.0 L527.7,576.4 L532.6,594.4 L537.4,590.8 L542.3,594.4 L547.2,598.0 L552.0,594.4 L556.9,601.6 L561.7,547.6 L566.6,605.2 L571.5,536.8 L576.3,554.8 L581.2,601.6 L586.1,616.0 L590.9,630.4 L595.8,634.0 L600.7,601.6 L605.5,605.2 L610.4,576.4 L615.2,558.4 L620.1,590.8 L625.0,616.0 L629.8,630.4 L634.7,598.0 L639.6,565.6 L644.4,590.8 L649.3,583.6 L654.2,558.4 L659.0,526.0 L663.9,536.8 L668.7,554.8 L673.6,551.2 L678.5,562.0 L683.3,594.4 L688.2,601.6 L693.1,612.4 L697.9,634.0 L702.8,634.0 L707.7,630.4 L712.5,616.0 L717.4,594.4 L722.2,630.4 L727.1,623.2 L732.0,634.0 L736.8,634.0 L741.7,634.0 L746.6,630.4 L751.4,634.0 L756.3,634.0 L761.1,634.0 L766.0,634.0 L770.9,634.0 L775.7,634.0 L780.6,634.0 L785.5,634.0 L790.3,634.0 L795.2,634.0 L800.1,634.0 L804.9,634.0 L809.8,634.0 L814.6,634.0 L819.5,634.0 L824.4,634.0 L829.2,634.0 L834.1,634.0 L839.0,634.0 L843.8,634.0 L848.7,634.0 L853.6,634.0 L858.4,634.0 L863.3,608.8 L868.1,605.2 L873.0,634.0 L877.9,634.0 L882.7,634.0 L887.6,623.2 L892.5,590.8 L897.3,626.8 L902.2,634.0 L907.0,634.0 L911.9,634.0 L916.8,634.0 L921.6,634.0 L926.5,634.0 L931.4,634.0 L936.2,634.0 L941.1,634.0 L946.0,623.2 L950.8,601.6 L955.7,626.8 L960.5,598.0 L965.4,605.2 L970.3,590.8 L975.1,601.6 L980.0,605.2 L980.0,670.0 L90.0,670.0 Z" fill="#fd7e14" opacity="0.15" stroke="none"/><path d="M90.0,626.8 L94.9,634.0 L99.7,605.2 L104.6,612.4 L109.5,634.0 L114.3,634.0 L119.2,634.0 L124.0,634.0 L128.9,623.2 L133.8,608.8 L138.6,634.0 L143.5,626.8 L148.4,598.0 L153.2,634.0 L158.1,634.0 L163.0,634.0 L167.8,634.0 L172.7,634.0 L177.5,634.0 L182.4,634.0 L187.3,634.0 L192.1,630.4 L197.0,634.0 L201.9,634.0 L206.7,634.0 L211.6,634.0 L216.4,634.0 L221.3,634.0 L226.2,623.2 L231.0,634.0 L235.9,634.0 L240.8,634.0 L245.6,634.0 L250.5,634.0 L255.4,634.0 L260.2,634.0 L265.1,590.8 L269.9,634.0 L274.8,601.6 L279.7,612.4 L284.5,612.4 L289.4,583.6 L294.3,580.0 L299.1,569.2 L304.0,576.4 L308.9,569.2 L313.7,587.2 L318.6,598.0 L323.4,590.8 L328.3,587.2 L333.2,634.0 L338.0,590.8 L342.9,612.4 L347.8,590.8 L352.6,598.0 L357.5,619.6 L362.3,634.0 L367.2,634.0 L372.1,605.2 L376.9,612.4 L381.8,634.0 L386.7,630.4 L391.5,630.4 L396.4,594.4 L401.3,601.6 L406.1,619.6 L411.0,594.4 L415.8,587.2 L420.7,601.6 L425.6,612.4 L430.4,605.2 L435.3,601.6 L440.2,583.6 L445.0,565.6 L449.9,583.6 L454.8,576.4 L459.6,612.4 L464.5,544.0 L469.3,580.0 L474.2,605.2 L479.1,572.8 L483.9,544.0 L488.8,551.2 L493.7,569.2 L498.5,583.6 L503.4,601.6 L508.3,608.8 L513.1,594.4 L518.0,612.4 L522.8,634.0 L527.7,576.4 L532.6,594.4 L537.4,590.8 L542.3,594.4 L547.2,598.0 L552.0,594.4 L556.9,601.6 L561.7,547.6 L566.6,605.2 L571.5,536.8 L576.3,554.8 L581.2,601.6 L586.1,616.0 L590.9,630.4 L595.8,634.0 L600.7,601.6 L605.5,605.2 L610.4,576.4 L615.2,558.4 L620.1,590.8 L625.0,616.0 L629.8,630.4 L634.7,598.0 L639.6,565.6 L644.4,590.8 L649.3,583.6 L654.2,558.4 L659.0,526.0 L663.9,536.8 L668.7,554.8 L673.6,551.2 L678.5,562.0 L683.3,594.4 L688.2,601.6 L693.1,612.4 L697.9,634.0 L702.8,634.0 L707.7,630.4 L712.5,616.0 L717.4,594.4 L722.2,630.4 L727.1,623.2 L732.0,634.0 L736.8,634.0 L741.7,634.0 L746.6,630.4 L751.4,634.0 L756.3,634.0 L761.1,634.0 L766.0,634.0 L770.9,634.0 L775.7,634.0 L780.6,634.0 L785.5,634.0 L790.3,634.0 L795.2,634.0 L800.1,634.0 L804.9,634.0 L809.8,634.0 L814.6,634.0 L819.5,634.0 L824.4,634.0 L829.2,634.0 L834.1,634.0 L839.0,634.0 L843.8,634.0 L848.7,634.0 L853.6,634.0 L858.4,634.0 L863.3,608.8 L868.1,605.2 L873.0,634.0 L877.9,634.0 L882.7,634.0 L887.6,623.2 L892.5,590.8 L897.3,626.8 L902.2,634.0 L907.0,634.0 L911.9,634.0 L916.8,634.0 L921.6,634.0 L926.5,634.0 L931.4,634.0 L936.2,634.0 L941.1,634.0 L946.0,623.2 L950.8,601.6 L955.7,626.8 L960.5,598.0 L965.4,605.2 L970.3,590.8 L975.1,601.6 L980.0,605.2" fill="none" stroke="#fd7e14" stroke-width="1.5"/><rect x="95" y="500" width="14" height="4" fill="#198754"/>
<text x="113" y="504" font-size="10" fill="#212529">Wind (T)</text>
<rect x="176" y="500" width="14" height="4" fill="#fd7e14"/>
<text x="194" y="504" font-size="10" fill="#212529">Böen (T)</text>
<text x="90" y="713" font-size="12" font-weight="600" fill="#212529">Luftdruck  </text>
<line x1="90" y1="895.0" x2="980" y2="895.0" stroke="#dee2e6" stroke-width="0.5"/>
<text x="84" y="899.0" text-anchor="end" font-size="11" fill="#6c757d">965.0</text>
<line x1="90" y1="859.0" x2="980" y2="859.0" stroke="#dee2e6" stroke-width="0.5"/>
<text x="84" y="863.0" text-anchor="end" font-size="11" fill="#6c757d">966.0</text>
<line x1="90" y1="823.0" x2="980" y2="823.0" stroke="#dee2e6" stroke-width="0.5"/>
<text x="84" y="827.0" text-anchor="end" font-size="11" fill="#6c757d">967.0</text>
<line x1="90" y1="787.0" x2="980" y2="787.0" stroke="#dee2e6" stroke-width="0.5"/>
<text x="84" y="791.0" text-anchor="end" font-size="11" fill="#6c757d">968.0</text>
<line x1="90" y1="751.0" x2="980" y2="751.0" stroke="#dee2e6" stroke-width="0.5"/>
<text x="84" y="755.0" text-anchor="end" font-size="11" fill="#6c757d">969.0</text>
<line x1="90" y1="715.0" x2="980" y2="715.0" stroke="#dee2e6" stroke-width="0.5"/>
<text x="84" y="719.0" text-anchor="end" font-size="11" fill="#6c757d">970.0 hPa</text>
<line x1="90.0" y1="715" x2="90.0" y2="895" stroke="#dee2e6" stroke-width="0.5" stroke-dasharray="4,4"/>
<text x="90.0" y="907" text-anchor="middle" font-size="8" fill="#6c757d">09.04.2026</text>
<text x="90.0" y="917" text-anchor="middle" font-size="8" fill="#6c757d">22:00</text>
<line x1="201.9" y1="715" x2="201.9" y2="895" stroke="#dee2e6" stroke-width="0.5" stroke-dasharray="4,4"/>
<text x="201.9" y="907" text-anchor="middle" font-size="8" fill="#6c757d">10.04.2026</text>
<text x="201.9" y="917" text-anchor="middle" font-size="8" fill="#6c757d">02:40</text>
<line x1="313.7" y1="715" x2="313.7" y2="895" stroke="#dee2e6" stroke-width="0.5" stroke-dasharray="4,4"/>
<text x="313.7" y="910" text-anchor="middle" font-size="9" fill="#6c757d">06:30</text>
<line x1="425.6" y1="715" x2="425.6" y2="895" stroke="#dee2e6" stroke-width="0.5" stroke-dasharray="4,4"/>
<text x="425.6" y="910" text-anchor="middle" font-size="9" fill="#6c757d">10:20</text>
<line x1="537.4" y1="715" x2="537.4" y2="895" stroke="#dee2e6" stroke-width="0.5" stroke-dasharray="4,4"/>
<text x="537.4" y="910" text-anchor="middle" font-size="9" fill="#6c757d">14:10</text>
<line x1="649.3" y1="715" x2="649.3" y2="895" stroke="#dee2e6" stroke-width="0.5" stroke-dasharray="4,4"/>
<text x="649.3" y="910" text-anchor="middle" font-size="9" fill="#6c757d">18:00</text>
<line x1="761.1" y1="715" x2="761.1" y2="895" stroke="#dee2e6" stroke-width="0.5" stroke-dasharray="4,4"/>
<text x="761.1" y="910" text-anchor="middle" font-size="9" fill="#6c757d">21:50</text>
<line x1="873.0" y1="715" x2="873.0" y2="895" stroke="#dee2e6" stroke-width="0.5" stroke-dasharray="4,4"/>
<text x="873.0" y="907" text-anchor="middle" font-size="8" fill="#6c757d">11.04.2026</text>
<text x="873.0" y="917" text-anchor="middle" font-size="8" fill="#6c757d">01:40</text>
<path d="M90.0,761.8 L94.9,761.8 L99.7,761.8 L104.6,761.8 L109.5,761.8 L114.3,761.8 L119.2,761.8 L124.0,761.8 L128.9,758.2 L133.8,758.2 L138.6,758.2 L143.5,758.2 L148.4,761.8 L153.2,758.2 L158.1,765.4 L163.0,769.0 L167.8,769.0 L172.7,769.0 L177.5,779.8 L182.4,776.2 L187.3,776.2 L192.1,776.2 L197.0,776.2 L201.9,776.2 L206.7,776.2 L211.6,779.8 L216.4,776.2 L221.3,779.8 L226.2,779.8 L231.0,776.2 L235.9,779.8 L240.8,779.8 L245.6,783.4 L250.5,776.2 L255.4,776.2 L260.2,772.6 L265.1,769.0 L269.9,769.0 L274.8,772.6 L279.7,769.0 L284.5,769.0 L289.4,779.8 L294.3,776.2 L299.1,769.0 L304.0,776.2 L308.9,772.6 L313.7,772.6 L318.6,776.2 L323.4,769.0 L328.3,765.4 L333.2,765.4 L338.0,769.0 L342.9,772.6 L347.8,772.6 L352.6,769.0 L357.5,769.0 L362.3,765.4 L367.2,765.4 L372.1,761.8 L376.9,754.6 L381.8,754.6 L386.7,751.0 L391.5,747.4 L396.4,747.4 L401.3,751.0 L406.1,754.6 L411.0,754.6 L415.8,751.0 L420.7,747.4 L425.6,743.8 L430.4,743.8 L435.3,743.8 L440.2,743.8 L445.0,740.2 L449.9,740.2 L454.8,751.0 L459.6,751.0 L464.5,751.0 L469.3,747.4 L474.2,751.0 L479.1,747.4 L483.9,747.4 L488.8,747.4 L493.7,743.8 L498.5,743.8 L503.4,747.4 L508.3,747.4 L513.1,751.0 L518.0,754.6 L522.8,754.6 L527.7,758.2 L532.6,761.8 L537.4,761.8 L542.3,761.8 L547.2,761.8 L552.0,761.8 L556.9,758.2 L561.7,758.2 L566.6,761.8 L571.5,761.8 L576.3,761.8 L581.2,765.4 L586.1,765.4 L590.9,769.0 L595.8,769.0 L600.7,772.6 L605.5,776.2 L610.4,776.2 L615.2,772.6 L620.1,772.6 L625.0,772.6 L629.8,772.6 L634.7,772.6 L639.6,772.6 L644.4,776.2 L649.3,783.4 L654.2,787.0 L659.0,787.0 L663.9,783.4 L668.7,779.8 L673.6,779.8 L678.5,783.4 L683.3,787.0 L688.2,783.4 L693.1,779.8 L697.9,779.8 L702.8,783.4 L707.7,787.0 L712.5,790.6 L717.4,797.8 L722.2,797.8 L727.1,797.8 L732.0,797.8 L736.8,797.8 L741.7,797.8 L746.6,797.8 L751.4,801.4 L756.3,805.0 L761.1,808.6 L766.0,808.6 L770.9,808.6 L775.7,808.6 L780.6,805.0 L785.5,805.0 L790.3,805.0 L795.2,805.0 L800.1,808.6 L804.9,808.6 L809.8,812.2 L814.6,812.2 L819.5,815.8 L824.4,815.8 L829.2,819.4 L834.1,819.4 L839.0,823.0 L843.8,826.6 L848.7,826.6 L853.6,830.2 L858.4,833.8 L863.3,833.8 L868.1,837.4 L873.0,841.0 L877.9,844.6 L882.7,844.6 L887.6,844.6 L892.5,848.2 L897.3,848.2 L902.2,859.0 L907.0,855.4 L911.9,855.4 L916.8,859.0 L921.6,859.0 L926.5,859.0 L931.4,862.6 L936.2,862.6 L941.1,862.6 L946.0,859.0 L950.8,859.0 L955.7,855.4 L960.5,855.4 L965.4,855.4 L970.3,855.4 L975.1,851.8 L980.0,851.8" fill="none" stroke="#6f42c1" stroke-width="1.5"/><rect x="95" y="725" width="14" height="4" fill="#6f42c1"/>
<text x="113" y="729" font-size="10" fill="#212529">Luftdruck (T)</text>
<text x="500" y="939" text-anchor="middle" font-size="9" fill="#6c757d">Quellen: Tiefenbrunnen (T) + Mythenquai (M) — Wasserschutzpolizei Zürich (tecdottir.metaodi.ch) · pegelstand CLI</text>
</svg>
